<svg width="1093" height="1096" viewBox="0 0 1093 1096" fill="none" xmlns="http://www.w3.org/2000/svg">
<path opacity="0.6" d="M1089.02 660.185C1076.38 721.422 1053.8 778.267 1021.4 830.949C988.479 884.48 948.503 930.641 901.472 969.559C854.45 1008.47 801.16 1038.9 741.588 1060.63L741.584 1060.63C682.044 1082.46 618.843 1093.32 551.851 1093.32C475.521 1093.32 404.245 1079.06 337.879 1050.45L337.875 1050.45C271.461 1021.93 213.495 982.896 163.844 933.57C114.195 884.245 75.0183 826.66 46.3118 760.682C17.6266 694.752 3.27539 623.946 3.27539 548.122C3.27539 472.298 17.6266 401.492 46.3118 335.563C75.0183 269.585 114.195 212 163.844 162.675C213.494 113.35 271.459 74.4279 337.875 45.9073C404.246 17.4066 475.524 3.03516 551.851 3.03516C608.353 3.03516 662.098 11.0697 713.325 27.1291C764.474 43.3134 811.847 65.8295 855.226 94.8994C898.509 123.981 937.231 158.491 971.172 198.546L971.174 198.549C1005.11 238.484 1032.55 282.375 1053.5 330.115L1053.51 330.134L1053.52 330.152C1058.43 340.857 1062.33 350.659 1065.42 359.463L817.802 545.622H435.691L746.945 332.651L749.552 330.867L747.218 328.74C720.683 304.556 690.794 285.868 657.448 272.686C624.081 259.495 588.875 252.962 551.851 252.962C510.576 252.962 471.919 260.638 435.902 275.891C399.921 291.129 368.42 312.219 341.419 339.043C314.418 365.868 293.188 397.164 277.848 432.914C262.493 468.7 254.765 507.111 254.765 548.122C254.765 589.128 262.376 627.543 277.851 663.337C293.19 699.084 314.42 730.379 341.419 757.202C368.42 784.026 399.921 805.116 435.902 820.354C471.919 835.607 510.576 843.283 551.851 843.283C614.24 843.283 670.117 825.858 719.403 791.113C768.153 756.746 803.598 713.132 825.907 660.185H1089.02Z" fill="url(#paint0_linear_30_80)" stroke="url(#paint1_linear_30_80)" stroke-width="5"/>
<defs>
<linearGradient id="paint0_linear_30_80" x1="913.717" y1="988.892" x2="189.986" y2="145.276" gradientUnits="userSpaceOnUse">
<stop stop-color="white" stop-opacity="0.3"/>
<stop offset="1" stop-color="white" stop-opacity="0.5"/>
</linearGradient>
<linearGradient id="paint1_linear_30_80" x1="292.209" y1="53.4074" x2="650.009" y2="1122.82" gradientUnits="userSpaceOnUse">
<stop stop-color="white"/>
<stop offset="0.5" stop-color="white" stop-opacity="0"/>
<stop offset="1" stop-color="white"/>
</linearGradient>
</defs>
</svg>
