<svg width="110" height="110" viewBox="0 0 110 110" fill="none" xmlns="http://www.w3.org/2000/svg">
<circle cx="55.1124" cy="55.3371" r="54.4787" fill="#0000FF"/>
<g clip-path="url(#clip0_104_431)">
<path d="M71.9051 34.5145H38.3198L43.9836 28.8372H66.2413L71.9051 34.5145Z" fill="white"/>
<path d="M82.1974 44.6785H28.2136V50.3558H82.1974V44.6785Z" fill="white"/>
<path d="M50.9901 29.8414L48.2628 32.5753L36.1906 44.6764L31.1208 49.7583L30.5289 50.3537L27.1177 53.7732L23.1124 49.7583L27.1177 45.7456L38.3197 34.5145L43.9835 28.8372H49.9882L50.9901 29.8414Z" fill="white"/>
<path d="M67.0403 29.8414L64.2774 32.6109L62.3783 34.5145L61.4309 35.4643L52.2387 44.6764L48.7773 48.1482L46.577 50.3537L44.4332 52.5027L40.2837 56.6601L36.2806 60.6749L32.2753 56.6601L36.2806 52.6473L38.5666 50.3537L44.2304 44.6764L57.4257 31.4494L60.0338 28.8372H66.0385L67.0403 29.8414Z" fill="white"/>
<path d="M59.1156 77.8223L58.7224 78.2186L57.0722 79.8727L55.1124 81.8372L53.366 80.0866L51.5924 78.3087L51.1093 77.8223L34.0008 60.6749L29.9956 56.6601L27.1177 53.7732L23.1124 49.7583L27.1177 45.7456L28.2136 46.8442L31.7148 50.3538L34.0008 52.6473L53.9119 72.6041L55.1124 73.8075L58.1765 76.881L59.1156 77.8223Z" fill="white"/>
<path d="M58.7224 78.2187L57.0722 79.8728L55.1124 81.8372L53.366 80.0867L52.1174 77.0174L52.0589 76.8706L47.857 66.5369L42.1535 52.5028L41.2813 50.3538L39.9867 47.1734L45.2322 45.0308L46.4975 48.1483L47.3948 50.3538L55.1752 69.495L56.4029 72.5161L58.1765 76.8811L58.233 77.0174L58.7224 78.2187Z" fill="white"/>
<path d="M70.3616 47.1734L69.069 50.3538L68.1801 52.5426L62.5791 66.323V66.3251L58.2559 76.9607L58.2329 77.0174L57.0721 79.8728L55.1124 81.8372L53.366 80.0867L51.5924 78.3088L52.1174 77.0174L52.2575 76.6693L53.9119 72.6042L55.1752 69.495L62.9535 50.3538L63.8361 48.1881L65.1182 45.0308L70.3616 47.1734Z" fill="white"/>
<path d="M87.1124 49.7583L83.1093 53.7732L61.9977 32.6109L59.2348 29.8414L60.2366 28.8372H66.2413L71.9051 34.5145L82.0447 44.6764L82.1953 44.8294L83.1072 45.7456L87.1124 49.7583Z" fill="white"/>
<path d="M77.7153 56.6265L73.7101 60.6393L65.6327 52.5425L63.4492 50.3537L61.2886 48.188L57.7875 44.6764L52.6005 39.4791L48.5953 35.4643L47.6479 34.5145L45.7153 32.5753L42.9859 29.8414L43.9877 28.8372H49.9924L77.7153 56.6265Z" fill="white"/>
<path d="M87.1124 49.7583L83.1093 53.7732L80.2628 56.6265L76.2575 60.6393L59.1156 77.8223L58.7224 78.2186L57.0722 79.8727L55.1125 81.8372L53.366 80.0866L51.5925 78.3087L51.1093 77.8223L52.0589 76.8705L52.2576 76.6693L55.1125 73.8075L56.4029 72.5161L62.5791 66.325V66.3229L72.2544 56.6265L76.2575 52.6117L78.5101 50.3538L79.1041 49.7583L82.1953 46.6597L83.1072 45.7456L87.1124 49.7583Z" fill="white"/>
</g>
<defs>
<clipPath id="clip0_104_431">
<rect width="64" height="53" fill="white" transform="translate(23.1124 28.8372)"/>
</clipPath>
</defs>
</svg>
