<svg width="1089" height="1080" viewBox="0 0 1089 1080" fill="none" xmlns="http://www.w3.org/2000/svg">
<g clip-path="url(#clip0_521_59)">
<path opacity="0.6" d="M1085.6 654.185C1072.96 715.422 1050.39 772.267 1017.98 824.949C985.063 878.48 945.087 924.641 898.056 963.559C851.034 1002.47 797.744 1032.9 738.172 1054.63H738.168C678.628 1076.46 615.427 1087.32 548.435 1087.32C472.105 1087.32 400.829 1073.06 334.463 1044.45H334.459C268.045 1015.93 210.079 976.896 160.428 927.57C110.779 878.245 71.6022 820.66 42.8958 754.682C14.2106 688.752 -0.140625 617.946 -0.140625 542.122C-0.140625 466.298 14.2106 395.492 42.8958 329.563C71.6022 263.585 110.779 206 160.428 156.675C210.078 107.35 268.043 68.4279 334.459 39.9073C400.83 11.4066 472.108 -2.96484 548.435 -2.96484C604.937 -2.96484 658.682 5.06972 709.909 21.1291C761.058 37.3134 808.431 59.8295 851.81 88.8994C895.093 117.981 933.815 152.491 967.756 192.546L967.758 192.549C1001.69 232.484 1029.13 276.375 1050.09 324.115L1050.09 324.134L1050.1 324.152C1055.01 334.857 1058.91 344.659 1062 353.463L814.386 539.622H432.275L743.529 326.651L746.136 324.867L743.802 322.74C717.267 298.556 687.378 279.868 654.032 266.686C620.665 253.495 585.459 246.962 548.435 246.962C507.16 246.962 468.503 254.638 432.486 269.891C396.505 285.129 365.004 306.219 338.003 333.043C311.002 359.868 289.772 391.164 274.432 426.914C259.077 462.7 251.349 501.111 251.349 542.122C251.349 583.128 258.96 621.543 274.435 657.337C289.774 693.084 311.004 724.379 338.003 751.202C365.004 778.026 396.505 799.116 432.486 814.354C468.503 829.607 507.16 837.283 548.435 837.283C610.824 837.283 666.701 819.858 715.987 785.113C764.737 750.746 800.182 707.132 822.491 654.185H1085.6Z" fill="url(#paint0_linear_521_59)" stroke="url(#paint1_linear_521_59)" stroke-width="5"/>
</g>
<defs>
<linearGradient id="paint0_linear_521_59" x1="910.301" y1="982.892" x2="186.57" y2="139.276" gradientUnits="userSpaceOnUse">
<stop stop-color="white" stop-opacity="0.3"/>
<stop offset="1" stop-color="white" stop-opacity="0.5"/>
</linearGradient>
<linearGradient id="paint1_linear_521_59" x1="288.793" y1="47.4074" x2="646.593" y2="1116.82" gradientUnits="userSpaceOnUse">
<stop stop-color="white"/>
<stop offset="0.5" stop-color="white" stop-opacity="0"/>
<stop offset="1" stop-color="white"/>
</linearGradient>
<clipPath id="clip0_521_59">
<rect width="1089" height="1080" fill="white"/>
</clipPath>
</defs>
</svg>
