<svg width="110" height="110" viewBox="0 0 110 110" fill="none" xmlns="http://www.w3.org/2000/svg">
<circle cx="54.5643" cy="55.3073" r="54.4787" fill="#0000FF"/>
<path d="M26.5792 46.7642C27.0375 46.7642 27.4338 46.7642 27.8302 46.7642C31.8431 46.7642 35.8436 46.7892 39.8565 46.7393C40.3271 46.7393 40.8597 46.44 41.256 46.1532C43.8322 44.3074 44.5877 41.8132 44.3648 38.6331C44.0799 34.7546 44.3029 30.8387 44.3029 26.9353C44.3029 26.5611 44.3029 26.187 44.3029 25.7505C44.6621 25.7256 44.9593 25.6882 45.2442 25.6882C47.9938 25.6882 50.7433 25.6757 53.4929 25.6882C58.6329 25.7131 62.0389 29.1426 62.0637 34.3181C62.0761 37.6354 62.0637 40.9527 62.0637 44.27C62.0637 44.6442 62.0637 45.0058 62.0637 45.5047H82.5493V84.9381H26.5792V46.7642ZM76.468 51.628H55.9576V50.3808C55.9576 46.7144 55.9576 43.0603 55.9576 39.3938C55.9576 37.6105 55.97 35.8396 55.9576 34.0562C55.9453 32.8465 55.3507 31.9985 54.3228 31.9112C53.0594 31.8114 51.7713 31.8863 50.4089 31.8863C50.4089 32.3352 50.4089 32.7094 50.4089 33.071C50.4089 36.8747 50.3965 40.6659 50.4213 44.4696C50.4213 45.1804 50.2232 45.6917 49.7277 46.1781C48.3529 47.5499 47.0029 48.9467 45.7148 50.4058C45.3556 50.8173 45.0956 51.4658 45.0832 52.0146C45.046 60.5697 45.0584 69.1248 45.0584 77.68C45.0584 78.0416 45.0956 78.4033 45.1079 78.7774H76.4557V51.628H76.468ZM32.6729 52.9249V78.7899H38.9523V77.4929C38.9523 69.9355 38.9523 62.378 38.9523 54.8205C38.9523 54.409 39.0267 53.9725 38.9276 53.5984C38.8533 53.3365 38.5188 52.9624 38.2959 52.9499C36.4629 52.9 34.6298 52.9249 32.6729 52.9249Z" fill="white" stroke="white" stroke-width="2"/>
</svg>
