<?xml version="1.0" encoding="UTF-8"?>
<svg version="1.1" xmlns="http://www.w3.org/2000/svg" width="1000" height="1010">
<path d="M0 0 C0.7008478 -0.00282738 1.40169559 -0.00565475 2.1237812 -0.00856781 C5.8477425 -0.02344781 9.57166631 -0.03274239 13.2956543 -0.03710938 C16.30001253 -0.04145105 19.3040766 -0.05518973 22.30834961 -0.078125 C113.30349877 -0.75824104 202.74594738 25.39584504 295.93896484 82.83251953 C298.2107004 84.41209885 300.49243889 85.9767979 302.7734375 87.54296875 C312.76217891 94.43530416 322.5001754 101.53929518 331.91015625 109.203125 C333.37001953 110.39035156 333.37001953 110.39035156 334.859375 111.6015625 C336.67307996 113.08389319 338.48322026 114.57060062 340.2890625 116.0625 C343.84422083 118.96596761 347.47228018 121.77427795 351.109375 124.57421875 C351.70363281 125.11175781 352.29789063 125.64929688 352.91015625 126.203125 C352.91015625 126.863125 352.91015625 127.523125 352.91015625 128.203125 C353.4825 128.4609375 354.05484375 128.71875 354.64453125 128.984375 C357.1214462 130.31678442 359.04427285 131.85368618 361.16015625 133.703125 C361.8665625 134.3115625 362.57296875 134.92 363.30078125 135.546875 C364.91015625 137.203125 364.91015625 137.203125 364.91015625 139.203125 C365.49949951 139.46722168 366.08884277 139.73131836 366.69604492 140.00341797 C368.99462774 141.24889552 370.49955142 142.54864714 372.3359375 144.3984375 C372.9640332 145.0277417 373.59212891 145.6570459 374.23925781 146.30541992 C374.8937793 146.9729126 375.54830078 147.64040527 376.22265625 148.328125 C376.8990918 149.01173096 377.57552734 149.69533691 378.27246094 150.3996582 C382.02626283 154.21481158 385.70202493 158.06245312 389.1484375 162.16015625 C390.65340013 163.90537899 392.19238982 165.59424151 393.765625 167.27734375 C394.27319336 167.82173096 394.78076172 168.36611816 395.30371094 168.92700195 C396.31747892 170.01114377 397.33495175 171.09183539 398.35644531 172.16870117 C401.91015625 175.98202974 401.91015625 175.98202974 401.91015625 178.203125 C402.57015625 178.203125 403.23015625 178.203125 403.91015625 178.203125 C405.63804982 180.20833482 407.25063812 182.22189665 408.84765625 184.328125 C409.84734173 185.6265443 410.84735038 186.92471484 411.84765625 188.22265625 C412.61335937 189.22159912 412.61335937 189.22159912 413.39453125 190.24072266 C414.7990803 192.05930598 416.22297298 193.85949916 417.66015625 195.65234375 C443.60435653 228.05313883 492.91015625 290.27460784 492.91015625 333.203125 C491.49926758 334.46142578 491.49926758 334.46142578 489.4921875 335.8984375 C488.74267822 336.44153564 487.99316895 336.98463379 487.22094727 337.54418945 C486.39651123 338.13288818 485.5720752 338.72158691 484.72265625 339.328125 C482.97670514 340.59345378 481.23195748 341.86044443 479.48828125 343.12890625 C478.57369141 343.7935791 477.65910156 344.45825195 476.71679688 345.14306641 C472.08904379 348.53981141 467.53073047 352.02622966 462.97265625 355.515625 C461.2032228 356.86861749 459.43369467 358.22148618 457.6640625 359.57421875 C456.84309082 360.20183105 456.02211914 360.82944336 455.17626953 361.47607422 C452.26656664 363.69361767 449.3410392 365.88865118 446.41015625 368.078125 C442.38370503 371.08652463 438.38913558 374.13249248 434.41015625 377.203125 C429.45437988 381.0275651 424.46043545 384.7964935 419.4453125 388.54296875 C415.79448966 391.28081673 412.17198779 394.05540239 408.546875 396.82714844 C399.9337565 403.41163447 391.26955446 409.91491371 382.52661133 416.32592773 C375.90812814 421.18581934 369.39429216 426.16551487 362.91015625 431.203125 C354.52055792 437.70149016 346.06230904 444.09997734 337.56518555 450.45703125 C332.07245088 454.57024587 326.60466099 458.71381107 321.16015625 462.890625 C315.2090384 467.45609296 309.22645725 471.97612637 303.21875 476.46679688 C296.65370422 481.38094562 290.13382947 486.35388683 283.61816406 491.33325195 C281.98298187 492.58195103 280.34104643 493.82186977 278.69161296 495.05168253 C276.84666216 496.47874249 275.04917119 497.96948311 273.30691648 499.52025455 C265.29098544 506.33259615 259.12237259 507.48926148 248.83807373 507.28541565 C247.34689869 507.28934823 245.85572982 507.29724299 244.36459374 507.30871814 C240.29772938 507.32870798 236.2330249 507.29303891 232.16643548 507.24771559 C227.76988192 507.2086606 223.37343922 507.22201496 218.97676086 507.22883606 C211.36956935 507.23354348 203.76307534 507.20543114 196.15605927 507.15469551 C185.15786875 507.08139011 174.16001372 507.05809612 163.16160539 507.04680359 C145.31539104 507.02713113 127.46954802 506.96730557 109.62353516 506.88208008 C92.29315034 506.79940335 74.96286657 506.73572975 57.63232422 506.69750977 C56.56314549 506.69514525 55.49396676 506.69278074 54.39238867 506.69034458 C49.02835534 506.6785988 43.66432129 506.66722553 38.30028677 506.65603745 C-6.16334719 506.56281549 -50.62657626 506.40436615 -95.08984375 506.203125 C-95.08984375 505.543125 -95.08984375 504.883125 -95.08984375 504.203125 C-93.37182617 502.80541992 -93.37182617 502.80541992 -90.9453125 501.18359375 C-90.05021973 500.57999023 -89.15512695 499.97638672 -88.23291016 499.35449219 C-87.25757324 498.70641602 -86.28223633 498.05833984 -85.27734375 497.390625 C-83.24724489 496.02496393 -81.21729961 494.65907455 -79.1875 493.29296875 C-78.16156738 492.6057373 -77.13563477 491.91850586 -76.07861328 491.21044922 C-71.77221747 488.31817783 -67.49247094 485.38770372 -63.21484375 482.453125 C-61.65369027 481.38404968 -60.09249309 480.3150382 -58.53125 479.24609375 C-57.78504395 478.73481934 -57.03883789 478.22354492 -56.27001953 477.69677734 C-54.85977539 476.73061008 -53.44930855 475.76476778 -52.03857422 474.79931641 C-43.06448303 468.65682376 -34.14359253 462.44241821 -25.24389648 456.19262695 C-19.85677165 452.41741417 -14.42195004 448.73761302 -8.9296875 445.1171875 C-5.66501717 442.91679071 -2.47032495 440.63068782 0.72265625 438.328125 C5.51442439 434.87496133 10.35985259 431.52552894 15.28515625 428.265625 C27.59439624 420.11779258 39.68737025 411.66599428 51.76831055 403.18457031 C56.11597078 400.13831614 60.47832567 397.12638048 64.91015625 394.203125 C70.16618123 390.73607055 75.32102885 387.13496095 80.47265625 383.515625 C89.48810502 377.18189023 98.56478572 370.94302494 107.66699219 364.73486328 C111.21123982 362.31468373 114.74881607 359.88483924 118.28515625 357.453125 C119.27636475 356.77165405 119.27636475 356.77165405 120.28759766 356.07641602 C124.20992332 353.37791487 128.12439362 350.66836952 132.03515625 347.953125 C137.91016195 343.8807608 143.8147046 339.85251274 149.72265625 335.828125 C161.97829294 327.47789184 174.22475602 319.12044323 186.34765625 310.578125 C187.08862549 310.05645752 187.82959473 309.53479004 188.59301758 308.99731445 C189.27388428 308.51609131 189.95475098 308.03486816 190.65625 307.5390625 C191.26138428 307.11157715 191.86651855 306.6840918 192.48999023 306.24365234 C193.89280305 305.27130392 193.89280305 305.27130392 194.91015625 304.203125 C191.24904957 301.19628453 187.58121132 298.19781033 183.91015625 295.203125 C183.05035156 294.49929688 182.19054687 293.79546875 181.3046875 293.0703125 C126.55612136 248.6795832 56.44494949 231.49230816 -13.02734375 238.328125 C-41.0862957 241.44493334 -68.61334911 248.98344933 -94.08984375 261.203125 C-94.73824219 261.51217773 -95.38664062 261.82123047 -96.0546875 262.13964844 C-100.77902008 264.40742017 -105.44838118 266.77053072 -110.08984375 269.203125 C-110.74452637 269.54569336 -111.39920898 269.88826172 -112.07373047 270.24121094 C-128.36549676 278.8589409 -145.92832853 289.71916601 -158.84765625 303.01171875 C-160.08984375 304.203125 -160.08984375 304.203125 -162.08984375 304.203125 C-162.41984375 305.193125 -162.74984375 306.183125 -163.08984375 307.203125 C-164.65625 308.74609375 -164.65625 308.74609375 -166.65234375 310.390625 C-173.79620796 316.47943453 -179.94985961 323.04682229 -185.81640625 330.375 C-187.26495477 332.17697445 -188.73679297 333.96064372 -190.23828125 335.71875 C-212.53427428 361.95879956 -229.84478302 395.10226227 -239.08984375 428.203125 C-239.33927734 429.07952637 -239.58871094 429.95592773 -239.84570312 430.85888672 C-259.43778037 501.20895669 -249.52963952 576.82776144 -214.10693359 640.41064453 C-211.61366092 644.80469349 -208.93397997 649.02875677 -206.08984375 653.203125 C-205.6633252 653.83186523 -205.23680664 654.46060547 -204.79736328 655.10839844 C-198.08004557 664.96415398 -190.99078287 674.27110733 -183.08984375 683.203125 C-182.35378906 684.05003906 -181.61773437 684.89695312 -180.859375 685.76953125 C-171.41199707 696.49032625 -161.3845769 706.43401968 -150.08984375 715.203125 C-149.02697923 716.04511298 -147.9644933 716.88757904 -146.90234375 717.73046875 C-140.22277592 722.9941187 -133.39636453 727.83888737 -126.08984375 732.203125 C-125.40647949 732.61175781 -124.72311523 733.02039063 -124.01904297 733.44140625 C-95.66940439 750.31865195 -66.72271158 762.35984305 -34.27734375 769.015625 C-33.33737549 769.21051514 -32.39740723 769.40540527 -31.42895508 769.60620117 C-14.86833989 772.81535958 1.70559849 773.58221277 18.53515625 773.515625 C19.49682709 773.51380219 20.45849792 773.51197937 21.4493103 773.51010132 C36.45589704 773.46234481 51.1123898 772.91309652 65.91015625 770.203125 C67.33448975 769.94571533 67.33448975 769.94571533 68.78759766 769.68310547 C112.20634701 761.56792582 151.63524543 743.03805101 185.91015625 715.203125 C186.42900391 714.78724121 186.94785156 714.37135742 187.48242188 713.94287109 C195.69142461 707.32004013 203.24288177 700.07122495 210.72265625 692.640625 C211.5940625 691.77848389 212.46546875 690.91634277 213.36328125 690.02807617 C221.46588208 681.88616478 228.70535683 673.10284577 235.47265625 663.828125 C235.93462402 663.19511475 236.3965918 662.56210449 236.87255859 661.90991211 C241.22670171 655.87372653 245.16031377 649.63249563 248.91015625 643.203125 C249.26287598 642.6045166 249.6155957 642.0059082 249.97900391 641.38916016 C256.70883715 629.92736653 263.6952808 617.84775136 267.91015625 605.203125 C349.09015625 605.203125 430.27015625 605.203125 513.91015625 605.203125 C513.91015625 610.2501569 513.80915183 613.52056732 512.6953125 618.2109375 C512.42614014 619.34740723 512.15696777 620.48387695 511.87963867 621.65478516 C511.58033447 622.8669873 511.28103027 624.07918945 510.97265625 625.328125 C510.65981689 626.60349121 510.34697754 627.87885742 510.0246582 629.19287109 C500.87784869 665.9416685 488.09205642 702.78539252 469.6796875 735.97265625 C467.92854359 739.16955695 466.35401659 742.41357912 464.78515625 745.703125 C456.12771153 763.11639448 445.08211388 779.32738154 433.91015625 795.203125 C433.06226518 796.42171165 432.21459434 797.64045157 431.3671875 798.859375 C418.29777 817.53299684 403.74433056 834.89340459 388.28125 851.61328125 C386.31956569 853.75594467 384.40995922 855.92234668 382.53515625 858.140625 C377.94777083 863.54440952 372.72868335 868.16787958 367.44921875 872.87890625 C365.2123285 874.92652117 363.08334256 877.02729405 360.97265625 879.203125 C357.10487867 883.13328608 352.90724262 886.55232448 348.609375 890 C346.25801437 891.91920028 344.01701766 893.8982584 341.78515625 895.953125 C334.86582348 902.1596313 327.35492167 907.65007527 319.91015625 913.203125 C319.17555176 913.75194336 318.44094727 914.30076172 317.68408203 914.86621094 C306.44116227 923.22690464 294.8790529 930.92309812 282.91015625 938.203125 C282.01184082 938.75033203 281.11352539 939.29753906 280.18798828 939.86132812 C268.66754228 946.84779181 257.09706348 953.45786874 244.91015625 959.203125 C243.99878906 959.63947266 243.08742188 960.07582031 242.1484375 960.52539062 C187.28246413 986.75175176 129.41901581 1003.3728944 68.91015625 1009.203125 C67.65517838 1009.33133888 67.65517838 1009.33133888 66.37484741 1009.46214294 C57.70959475 1010.27930679 49.07379366 1010.40230063 40.37890625 1010.44140625 C39.20510155 1010.44751954 39.20510155 1010.44751954 38.00758362 1010.45375633 C33.8422982 1010.4745111 29.6770444 1010.48884209 25.51171875 1010.49829102 C22.15345407 1010.50702565 18.79562025 1010.52761081 15.4375 1010.55981445 C-77.95565395 1011.4350277 -172.90098055 984.91568144 -251.08984375 933.203125 C-252.32152951 932.39960917 -253.55330169 931.59622578 -254.78515625 930.79296875 C-276.67692067 916.42801642 -297.43322898 900.86217599 -316.82421875 883.25390625 C-318.91555749 881.36088412 -321.02637168 879.49457309 -323.15234375 877.640625 C-331.92060835 869.99058038 -340.17905439 862.27332609 -347.9296875 853.578125 C-349.62287184 851.71654077 -351.33629213 849.94156758 -353.15234375 848.203125 C-355.08984375 846.203125 -355.08984375 846.203125 -355.08984375 844.203125 C-355.74984375 844.203125 -356.40984375 844.203125 -357.08984375 844.203125 C-358.44366524 842.71574265 -359.72124261 841.15881949 -360.96484375 839.578125 C-363.9867922 835.79106539 -367.04796123 832.07798223 -370.24755859 828.44042969 C-436.71373659 752.5738771 -475.93878194 651.99944322 -485.08984375 552.203125 C-485.17646271 551.2663089 -485.26308167 550.3294928 -485.35232544 549.36428833 C-486.06915234 540.95403867 -486.26933205 532.58589951 -486.29296875 524.1484375 C-486.29579613 523.44883785 -486.2986235 522.7492382 -486.30153656 522.02843857 C-486.31641852 518.30980831 -486.3257114 514.59121559 -486.33007812 510.87255859 C-486.33441631 507.87503577 -486.3481407 504.87780835 -486.37109375 501.88037109 C-487.03010566 413.9701705 -463.45550749 328.00287746 -419.08984375 252.203125 C-418.32969971 250.89384033 -418.32969971 250.89384033 -417.55419922 249.55810547 C-406.90491583 231.25215725 -394.96451606 214.006004 -382.08984375 197.203125 C-381.14044922 195.94822266 -381.14044922 195.94822266 -380.171875 194.66796875 C-376.01731393 189.2305266 -371.61086127 184.00892566 -367.16357422 178.81054688 C-365.23766952 176.55596309 -363.32501598 174.29156401 -361.42675781 172.01367188 C-354.3301567 163.54642222 -346.80738922 155.60856441 -338.97143555 147.82397461 C-337.01828887 145.88162016 -335.07616755 143.92869542 -333.13476562 141.97460938 C-326.82199243 135.65548661 -320.47949281 129.60994111 -313.44702148 124.08886719 C-310.93497772 122.07923218 -308.57498211 119.95074243 -306.21484375 117.765625 C-300.98584331 113.01423405 -295.46097405 108.71839269 -289.80957031 104.49023438 C-288.68143146 103.64589195 -287.55568797 102.79833753 -286.43261719 101.94726562 C-263.06965889 84.25013339 -238.14268749 68.55651433 -212.05175781 55.20751953 C-210.15090118 54.23438312 -208.25704237 53.24857316 -206.36328125 52.26171875 C-187.56894306 42.56924156 -167.99133436 34.32672559 -148.08984375 27.203125 C-147.18540527 26.87747559 -146.2809668 26.55182617 -145.34912109 26.21630859 C-99.26016598 9.79086169 -48.98402231 0.13691481 0 0 Z " fill="#0000FF" transform="translate(486.08984375,-0.203125)"/>
</svg>
