<svg width="110" height="110" viewBox="0 0 110 110" fill="none" xmlns="http://www.w3.org/2000/svg">
<circle cx="54.6124" cy="55.3371" r="54.4787" fill="#0000FF"/>
<g clip-path="url(#clip0_104_441)">
<path d="M65.1585 40.9595H60.7679V45.3216H65.1585V40.9595Z" fill="white"/>
<path d="M73.3995 40.9595H69.0089V45.3216H73.3995V40.9595Z" fill="white"/>
<path d="M65.1585 49.1099H60.7679V53.472H65.1585V49.1099Z" fill="white"/>
<path d="M73.3995 49.1099H69.0089V53.472H73.3995V49.1099Z" fill="white"/>
<path d="M65.1585 57.4873H60.7679V61.8494H65.1585V57.4873Z" fill="white"/>
<path d="M73.3995 57.4873H69.0089V61.8494H73.3995V57.4873Z" fill="white"/>
<path d="M81.6068 78.1558V32.526L81.6087 28.3372L79.2568 28.7285L67.9699 30.5937L52.5475 33.1465V35.09C52.5419 35.8055 52.5456 36.521 52.5456 37.2738C52.4612 37.2868 52.3768 37.3018 52.2924 37.3148L27.6312 41.1887L27.6349 43.2291V43.2421C27.6331 43.2794 27.6331 43.3148 27.6331 43.3521V78.1558H27.6124V82.3372H48.3876V80.3546C48.3913 80.3005 48.3932 80.2446 48.3932 80.1887C48.3969 76.8589 48.3969 73.5291 48.3932 70.1993C48.3932 70.0558 48.3838 69.9179 48.3688 69.7875V67.9018H35.9304V72.0831H35.936C35.936 73.8813 35.9379 75.6813 35.9379 77.4794V78.1558H31.8155V44.8912C38.7118 43.749 45.5893 42.6105 52.5456 41.457V80.1365C52.5456 80.1794 52.5456 80.2223 52.5475 80.2633V82.3372H73.3226V78.1558H73.3076C73.3114 75.5005 73.3095 72.8415 73.3057 70.1862C73.3057 70.1415 73.3057 70.0968 73.3057 70.0521V67.9018H60.8373V72.0831H60.8523C60.8504 73.8869 60.8523 75.6906 60.8523 77.4924V78.1726H56.7355V36.6403C63.6412 35.498 70.515 34.3577 77.4619 33.208V82.3372H81.6143V78.1558H81.6087H81.6068ZM40.1409 72.0626H44.2127V78.1707H40.1409V72.0626ZM65.0441 72.0552H69.1252V78.1577H65.0441V72.0552Z" fill="white"/>
<path d="M40.2628 49.1863H35.8722V53.5465H40.2628V49.1863Z" fill="white"/>
<path d="M48.5038 49.1863H44.1132V53.5465H48.5038V49.1863Z" fill="white"/>
<path d="M40.2628 57.3347H35.8722V61.6968H40.2628V57.3347Z" fill="white"/>
<path d="M48.5038 57.3347H44.1132V61.6968H48.5038V57.3347Z" fill="white"/>
</g>
<defs>
<clipPath id="clip0_104_441">
<rect width="54" height="54" fill="white" transform="translate(27.6124 28.3372)"/>
</clipPath>
</defs>
</svg>
