<svg width="110" height="110" viewBox="0 0 110 110" fill="none" xmlns="http://www.w3.org/2000/svg">
<circle cx="55.0737" cy="55.3356" r="54.4787" fill="#0000FF"/>
<rect x="24.0139" y="37.343" width="62.1198" height="35.9854" stroke="white" stroke-width="8"/>
<path d="M52.4237 63.3357H46.5237L45.8487 61.3107H39.6737L38.9737 63.3357H33.0737L39.5737 46.5857H45.9237L52.4237 63.3357ZM44.3237 56.8107L42.7737 52.2607L41.2237 56.8107H44.3237ZM53.3091 46.5857H62.4341C64.2341 46.5857 65.7091 47.1607 66.8341 48.2607C67.9341 49.3857 68.5091 50.8357 68.5091 52.6357C68.5091 54.5357 67.8841 56.0357 66.6841 57.1857C65.4841 58.3357 63.8841 58.9107 61.9091 58.9107H58.8341V63.3357H53.3091V46.5857ZM58.8341 54.7357H61.0341C61.5841 54.7357 62.0841 54.5607 62.4841 54.2107C62.8841 53.8607 63.1091 53.3857 63.1091 52.8107C63.1091 52.3107 62.8841 51.8857 62.4841 51.5357C62.0841 51.1857 61.5841 51.0107 61.0341 51.0107H58.8341V54.7357ZM75.4112 63.3357H69.8862V46.5857H75.4112V63.3357Z" fill="white"/>
</svg>
