<svg width="110" height="110" viewBox="0 0 110 110" fill="none" xmlns="http://www.w3.org/2000/svg">
<circle cx="55.2668" cy="55.0309" r="54.4787" fill="#0000FF"/>
<path d="M55.2505 24.1547L55 24.0097L54.7495 24.1547L28.58 39.3054L28.3306 39.4498V39.7381V70.0396V70.3279L28.58 70.4723L54.7495 85.623L55 85.768L55.2505 85.623L81.42 70.4723L81.6694 70.3279V70.0396V39.7381V39.4498L81.42 39.3054L55.2505 24.1547ZM34.8399 43.2025L55 31.5312L75.1601 43.2025V66.5751L55 78.2465L34.8399 66.5751V43.2025Z" fill="white" stroke="white"/>
<mask id="path-3-outside-1_112_189" maskUnits="userSpaceOnUse" x="27.8829" y="34.6064" width="47" height="50" fill="black">
<rect fill="white" x="27.8829" y="34.6064" width="47" height="50"/>
<path d="M55.0001 35.6064C54.7277 35.6064 54.4614 35.6872 54.2349 35.8386C54.0084 35.9899 53.8318 36.205 53.7276 36.4567C53.6233 36.7084 53.5961 36.9853 53.6492 37.2525C53.7024 37.5197 53.8335 37.7651 54.0262 37.9577C54.2188 38.1503 54.4642 38.2815 54.7314 38.3347C54.9986 38.3878 55.2755 38.3605 55.5272 38.2563C55.7788 38.152 55.994 37.9755 56.1453 37.749C56.2966 37.5225 56.3774 37.2562 56.3774 36.9838C56.3774 36.6185 56.2323 36.2682 55.974 36.0099C55.7157 35.7516 55.3654 35.6064 55.0001 35.6064ZM55.0001 45.2478C54.7277 45.2478 54.4614 45.3286 54.2349 45.4799C54.0084 45.6313 53.8318 45.8464 53.7276 46.0981C53.6233 46.3497 53.5961 46.6267 53.6492 46.8939C53.7024 47.161 53.8335 47.4065 54.0262 47.5991C54.2188 47.7917 54.4642 47.9229 54.7314 47.976C54.9986 48.0292 55.2755 48.0019 55.5272 47.8976C55.7788 47.7934 55.994 47.6169 56.1453 47.3904C56.2966 47.1639 56.3774 46.8976 56.3774 46.6252C56.3774 46.2599 56.2323 45.9095 55.974 45.6512C55.7157 45.3929 55.3654 45.2478 55.0001 45.2478ZM55.0001 54.8892C54.7277 54.8892 54.4614 54.97 54.2349 55.1213C54.0084 55.2727 53.8318 55.4878 53.7276 55.7394C53.6233 55.9911 53.5961 56.2681 53.6492 56.5352C53.7024 56.8024 53.8335 57.0478 54.0262 57.2404C54.2188 57.4331 54.4642 57.5643 54.7314 57.6174C54.9986 57.6705 55.2755 57.6433 55.5272 57.539C55.7788 57.4348 55.994 57.2582 56.1453 57.0317C56.2966 56.8052 56.3774 56.5389 56.3774 56.2665C56.3774 55.9012 56.2323 55.5509 55.974 55.2926C55.7157 55.0343 55.3654 54.8892 55.0001 54.8892ZM45.3587 57.6439C45.053 57.6442 44.756 57.7462 44.5146 57.9339C44.2733 58.1216 44.1012 58.3843 44.0256 58.6806C43.95 58.9768 43.9751 59.2898 44.097 59.5703C44.2189 59.8507 44.4306 60.0826 44.6988 60.2294C44.967 60.3762 45.2765 60.4296 45.5784 60.3811C45.8803 60.3327 46.1574 60.1852 46.3663 59.9618C46.5751 59.7385 46.7036 59.452 46.7317 59.1475C46.7597 58.8431 46.6857 58.5379 46.5212 58.2802C46.3966 58.0849 46.2247 57.9243 46.0215 57.813C45.8183 57.7018 45.5904 57.6436 45.3587 57.6439ZM38.472 63.1532C38.1661 63.1529 37.8689 63.2545 37.6271 63.4418C37.3853 63.6292 37.2128 63.8917 37.1367 64.1879C37.0606 64.4842 37.0853 64.7974 37.2069 65.078C37.3284 65.3587 37.54 65.5909 37.8082 65.7381C38.0763 65.8852 38.3858 65.9389 38.6879 65.8907C38.9899 65.8424 39.2673 65.695 39.4763 65.4717C39.6854 65.2484 39.8141 64.9618 39.8422 64.6572C39.8704 64.3527 39.7963 64.0474 39.6317 63.7895C39.5068 63.5948 39.3348 63.4347 39.1316 63.3239C38.9284 63.2132 38.7007 63.1554 38.4693 63.156M64.6414 57.6439C64.3099 57.6434 63.9894 57.7625 63.7386 57.9793C63.4878 58.1961 63.3237 58.496 63.2762 58.8241C63.2288 59.1522 63.3013 59.4864 63.4804 59.7654C63.6595 60.0443 63.9332 60.2493 64.2513 60.3427C64.5694 60.4361 64.9105 60.4117 65.212 60.2739C65.5135 60.1361 65.7552 59.8942 65.8927 59.5925C66.0302 59.2909 66.0543 58.9498 65.9606 58.6318C65.8668 58.3138 65.6616 58.0403 65.3825 57.8615C65.1616 57.7188 64.9044 57.6423 64.6414 57.6411M71.6246 63.1532C71.2931 63.1527 70.9725 63.2718 70.7217 63.4886C70.4709 63.7054 70.3068 64.0054 70.2593 64.3335C70.2119 64.6616 70.2844 64.9958 70.4635 65.2747C70.6426 65.5537 70.9163 65.7587 71.2344 65.8521C71.5525 65.9455 71.8936 65.9211 72.1951 65.7832C72.4966 65.6454 72.7383 65.4035 72.8758 65.1019C73.0133 64.8002 73.0374 64.4591 72.9437 64.1412C72.8499 63.8232 72.6447 63.5497 72.3656 63.3708C72.1444 63.2291 71.8873 63.1536 71.6246 63.1532ZM32.6376 38.9809L29.8829 43.752L49.2401 54.9277L51.9947 50.1566L32.6376 38.9809ZM57.7548 68.7066H52.2454V82.8684H57.7548V68.7066Z"/>
</mask>
<path d="M55.0001 35.6064C54.7277 35.6064 54.4614 35.6872 54.2349 35.8386C54.0084 35.9899 53.8318 36.205 53.7276 36.4567C53.6233 36.7084 53.5961 36.9853 53.6492 37.2525C53.7024 37.5197 53.8335 37.7651 54.0262 37.9577C54.2188 38.1503 54.4642 38.2815 54.7314 38.3347C54.9986 38.3878 55.2755 38.3605 55.5272 38.2563C55.7788 38.152 55.994 37.9755 56.1453 37.749C56.2966 37.5225 56.3774 37.2562 56.3774 36.9838C56.3774 36.6185 56.2323 36.2682 55.974 36.0099C55.7157 35.7516 55.3654 35.6064 55.0001 35.6064ZM55.0001 45.2478C54.7277 45.2478 54.4614 45.3286 54.2349 45.4799C54.0084 45.6313 53.8318 45.8464 53.7276 46.0981C53.6233 46.3497 53.5961 46.6267 53.6492 46.8939C53.7024 47.161 53.8335 47.4065 54.0262 47.5991C54.2188 47.7917 54.4642 47.9229 54.7314 47.976C54.9986 48.0292 55.2755 48.0019 55.5272 47.8976C55.7788 47.7934 55.994 47.6169 56.1453 47.3904C56.2966 47.1639 56.3774 46.8976 56.3774 46.6252C56.3774 46.2599 56.2323 45.9095 55.974 45.6512C55.7157 45.3929 55.3654 45.2478 55.0001 45.2478ZM55.0001 54.8892C54.7277 54.8892 54.4614 54.97 54.2349 55.1213C54.0084 55.2727 53.8318 55.4878 53.7276 55.7394C53.6233 55.9911 53.5961 56.2681 53.6492 56.5352C53.7024 56.8024 53.8335 57.0478 54.0262 57.2404C54.2188 57.4331 54.4642 57.5643 54.7314 57.6174C54.9986 57.6705 55.2755 57.6433 55.5272 57.539C55.7788 57.4348 55.994 57.2582 56.1453 57.0317C56.2966 56.8052 56.3774 56.5389 56.3774 56.2665C56.3774 55.9012 56.2323 55.5509 55.974 55.2926C55.7157 55.0343 55.3654 54.8892 55.0001 54.8892ZM45.3587 57.6439C45.053 57.6442 44.756 57.7462 44.5146 57.9339C44.2733 58.1216 44.1012 58.3843 44.0256 58.6806C43.95 58.9768 43.9751 59.2898 44.097 59.5703C44.2189 59.8507 44.4306 60.0826 44.6988 60.2294C44.967 60.3762 45.2765 60.4296 45.5784 60.3811C45.8803 60.3327 46.1574 60.1852 46.3663 59.9618C46.5751 59.7385 46.7036 59.452 46.7317 59.1475C46.7597 58.8431 46.6857 58.5379 46.5212 58.2802C46.3966 58.0849 46.2247 57.9243 46.0215 57.813C45.8183 57.7018 45.5904 57.6436 45.3587 57.6439ZM38.472 63.1532C38.1661 63.1529 37.8689 63.2545 37.6271 63.4418C37.3853 63.6292 37.2128 63.8917 37.1367 64.1879C37.0606 64.4842 37.0853 64.7974 37.2069 65.078C37.3284 65.3587 37.54 65.5909 37.8082 65.7381C38.0763 65.8852 38.3858 65.9389 38.6879 65.8907C38.9899 65.8424 39.2673 65.695 39.4763 65.4717C39.6854 65.2484 39.8141 64.9618 39.8422 64.6572C39.8704 64.3527 39.7963 64.0474 39.6317 63.7895C39.5068 63.5948 39.3348 63.4347 39.1316 63.3239C38.9284 63.2132 38.7007 63.1554 38.4693 63.156M64.6414 57.6439C64.3099 57.6434 63.9894 57.7625 63.7386 57.9793C63.4878 58.1961 63.3237 58.496 63.2762 58.8241C63.2288 59.1522 63.3013 59.4864 63.4804 59.7654C63.6595 60.0443 63.9332 60.2493 64.2513 60.3427C64.5694 60.4361 64.9105 60.4117 65.212 60.2739C65.5135 60.1361 65.7552 59.8942 65.8927 59.5925C66.0302 59.2909 66.0543 58.9498 65.9606 58.6318C65.8668 58.3138 65.6616 58.0403 65.3825 57.8615C65.1616 57.7188 64.9044 57.6423 64.6414 57.6411M71.6246 63.1532C71.2931 63.1527 70.9725 63.2718 70.7217 63.4886C70.4709 63.7054 70.3068 64.0054 70.2593 64.3335C70.2119 64.6616 70.2844 64.9958 70.4635 65.2747C70.6426 65.5537 70.9163 65.7587 71.2344 65.8521C71.5525 65.9455 71.8936 65.9211 72.1951 65.7832C72.4966 65.6454 72.7383 65.4035 72.8758 65.1019C73.0133 64.8002 73.0374 64.4591 72.9437 64.1412C72.8499 63.8232 72.6447 63.5497 72.3656 63.3708C72.1444 63.2291 71.8873 63.1536 71.6246 63.1532ZM32.6376 38.9809L29.8829 43.752L49.2401 54.9277L51.9947 50.1566L32.6376 38.9809ZM57.7548 68.7066H52.2454V82.8684H57.7548V68.7066Z" fill="white"/>
<path d="M45.3587 57.6439L45.3598 58.6439L45.3587 57.6439ZM46.5212 58.2802L47.3641 57.7422L46.5212 58.2802ZM39.6317 63.7895L40.4747 63.2515L40.4734 63.2495L39.6317 63.7895ZM65.3825 57.8615L64.8399 58.7015L64.843 58.7035L65.3825 57.8615ZM71.6246 63.1532L71.6231 64.1532L71.6246 63.1532ZM72.3656 63.3708L72.905 62.5288L72.3656 63.3708ZM32.6376 38.9809L33.1376 38.1149L32.2716 37.6149L31.7716 38.4809L32.6376 38.9809ZM29.8829 43.752L29.0169 43.252L28.5169 44.118L29.3829 44.6181L29.8829 43.752ZM49.2401 54.9277L48.7401 55.7938L49.6061 56.2938L50.1061 55.4278L49.2401 54.9277ZM51.9947 50.1566L52.8607 50.6567L53.3608 49.7906L52.4947 49.2906L51.9947 50.1566ZM57.7548 68.7066H58.7548V67.7066H57.7548V68.7066ZM52.2454 68.7066V67.7066H51.2454V68.7066H52.2454ZM52.2454 82.8684H51.2454V83.8684H52.2454V82.8684ZM57.7548 82.8684V83.8684H58.7548V82.8684H57.7548ZM55.0001 34.6064C54.5299 34.6064 54.0703 34.7459 53.6793 35.0071L54.7904 36.67C54.8525 36.6286 54.9254 36.6064 55.0001 36.6064V34.6064ZM53.6793 35.0071C53.2883 35.2683 52.9836 35.6396 52.8037 36.074L54.6515 36.8394C54.68 36.7704 54.7284 36.7115 54.7904 36.67L53.6793 35.0071ZM52.8037 36.074C52.6238 36.5084 52.5767 36.9864 52.6684 37.4476L54.63 37.0574C54.6154 36.9842 54.6229 36.9083 54.6515 36.8394L52.8037 36.074ZM52.6684 37.4476C52.7602 37.9087 52.9866 38.3323 53.319 38.6648L54.7333 37.2506C54.6805 37.1978 54.6446 37.1306 54.63 37.0574L52.6684 37.4476ZM53.319 38.6648C53.6515 38.9973 54.0751 39.2237 54.5363 39.3154L54.9265 37.3539C54.8533 37.3393 54.786 37.3034 54.7333 37.2506L53.319 38.6648ZM54.5363 39.3154C54.9974 39.4072 55.4754 39.3601 55.9098 39.1802L55.1445 37.3324C55.0755 37.361 54.9997 37.3684 54.9265 37.3539L54.5363 39.3154ZM55.9098 39.1802C56.3442 39.0002 56.7155 38.6955 56.9768 38.3046L55.3138 37.1934C55.2724 37.2555 55.2134 37.3038 55.1445 37.3324L55.9098 39.1802ZM56.9768 38.3046C57.238 37.9136 57.3774 37.454 57.3774 36.9838H55.3774C55.3774 37.0584 55.3553 37.1314 55.3138 37.1934L56.9768 38.3046ZM57.3774 36.9838C57.3774 36.3533 57.127 35.7486 56.6811 35.3028L55.2669 36.717C55.3377 36.7877 55.3774 36.8837 55.3774 36.9838H57.3774ZM56.6811 35.3028C56.2353 34.8569 55.6306 34.6064 55.0001 34.6064V36.6064C55.1002 36.6064 55.1961 36.6462 55.2669 36.717L56.6811 35.3028ZM55.0001 44.2478C54.5299 44.2478 54.0703 44.3872 53.6793 44.6485L54.7904 46.3114C54.8525 46.2699 54.9254 46.2478 55.0001 46.2478V44.2478ZM53.6793 44.6485C53.2883 44.9097 52.9836 45.281 52.8037 45.7154L54.6515 46.4808C54.68 46.4118 54.7284 46.3529 54.7904 46.3114L53.6793 44.6485ZM52.8037 45.7154C52.6238 46.1498 52.5767 46.6278 52.6684 47.089L54.63 46.6988C54.6154 46.6256 54.6229 46.5497 54.6515 46.4808L52.8037 45.7154ZM52.6684 47.089C52.7602 47.5501 52.9866 47.9737 53.319 48.3062L54.7333 46.892C54.6805 46.8392 54.6446 46.772 54.63 46.6988L52.6684 47.089ZM53.319 48.3062C53.6515 48.6387 54.0751 48.8651 54.5363 48.9568L54.9265 46.9952C54.8533 46.9807 54.786 46.9447 54.7333 46.892L53.319 48.3062ZM54.5363 48.9568C54.9974 49.0485 55.4754 49.0015 55.9098 48.8215L55.1445 46.9738C55.0755 47.0023 54.9997 47.0098 54.9265 46.9952L54.5363 48.9568ZM55.9098 48.8215C56.3442 48.6416 56.7155 48.3369 56.9768 47.9459L55.3138 46.8348C55.2724 46.8968 55.2134 46.9452 55.1445 46.9738L55.9098 48.8215ZM56.9768 47.9459C57.238 47.555 57.3774 47.0953 57.3774 46.6252H55.3774C55.3774 46.6998 55.3553 46.7727 55.3138 46.8348L56.9768 47.9459ZM57.3774 46.6252C57.3774 45.9946 57.127 45.39 56.6811 44.9441L55.2669 46.3583C55.3377 46.4291 55.3774 46.5251 55.3774 46.6252H57.3774ZM56.6811 44.9441C56.2353 44.4983 55.6306 44.2478 55.0001 44.2478V46.2478C55.1002 46.2478 55.1961 46.2876 55.2669 46.3583L56.6811 44.9441ZM55.0001 53.8892C54.5299 53.8892 54.0703 54.0286 53.6793 54.2898L54.7904 55.9528C54.8525 55.9113 54.9254 55.8892 55.0001 55.8892V53.8892ZM53.6793 54.2898C53.2883 54.5511 52.9836 54.9224 52.8037 55.3568L54.6515 56.1221C54.68 56.0532 54.7284 55.9942 54.7904 55.9528L53.6793 54.2898ZM52.8037 55.3568C52.6238 55.7912 52.5767 56.2692 52.6684 56.7303L54.63 56.3401C54.6154 56.2669 54.6229 56.1911 54.6515 56.1221L52.8037 55.3568ZM52.6684 56.7303C52.7602 57.1915 52.9866 57.6151 53.319 57.9476L54.7333 56.5333C54.6805 56.4806 54.6446 56.4133 54.63 56.3401L52.6684 56.7303ZM53.319 57.9476C53.6515 58.28 54.0751 58.5065 54.5363 58.5982L54.9265 56.6366C54.8533 56.6221 54.786 56.5861 54.7333 56.5333L53.319 57.9476ZM54.5363 58.5982C54.9974 58.6899 55.4754 58.6428 55.9098 58.4629L55.1445 56.6151C55.0755 56.6437 54.9997 56.6512 54.9265 56.6366L54.5363 58.5982ZM55.9098 58.4629C56.3442 58.283 56.7155 57.9783 56.9768 57.5873L55.3138 56.4762C55.2724 56.5382 55.2134 56.5866 55.1445 56.6151L55.9098 58.4629ZM56.9768 57.5873C57.238 57.1963 57.3774 56.7367 57.3774 56.2665H55.3774C55.3774 56.3412 55.3553 56.4141 55.3138 56.4762L56.9768 57.5873ZM57.3774 56.2665C57.3774 55.636 57.127 55.0313 56.6811 54.5855L55.2669 55.9997C55.3377 56.0705 55.3774 56.1664 55.3774 56.2665H57.3774ZM56.6811 54.5855C56.2353 54.1397 55.6306 53.8892 55.0001 53.8892V55.8892C55.1002 55.8892 55.1961 55.9289 55.2669 55.9997L56.6811 54.5855ZM45.3577 56.6439C44.8299 56.6444 44.3173 56.8206 43.9007 57.1445L45.1285 58.7233C45.1946 58.6719 45.276 58.6439 45.3598 58.6439L45.3577 56.6439ZM43.9007 57.1445C43.4841 57.4685 43.1872 57.9219 43.0567 58.4333L44.9945 58.9279C45.0153 58.8467 45.0624 58.7748 45.1285 58.7233L43.9007 57.1445ZM43.0567 58.4333C42.9262 58.9446 42.9695 59.4849 43.1799 59.9689L45.0141 59.1716C44.9807 59.0948 44.9738 59.009 44.9945 58.9279L43.0567 58.4333ZM43.1799 59.9689C43.3903 60.4529 43.7557 60.8531 44.2187 61.1066L45.179 59.3522C45.1055 59.312 45.0475 59.2484 45.0141 59.1716L43.1799 59.9689ZM44.2187 61.1066C44.6816 61.36 45.2157 61.4521 45.7368 61.3685L45.4199 59.3938C45.3372 59.407 45.2525 59.3924 45.179 59.3522L44.2187 61.1066ZM45.7368 61.3685C46.2579 61.2849 46.7363 61.0303 47.0967 60.6448L45.6358 59.2789C45.5786 59.3401 45.5027 59.3805 45.4199 59.3938L45.7368 61.3685ZM47.0967 60.6448C47.4572 60.2593 47.6791 59.7648 47.7275 59.2393L45.7359 59.0558C45.7282 59.1392 45.693 59.2177 45.6358 59.2789L47.0967 60.6448ZM47.7275 59.2393C47.7759 58.7138 47.6481 58.1871 47.3641 57.7422L45.6782 58.8182C45.7233 58.8888 45.7436 58.9724 45.7359 59.0558L47.7275 59.2393ZM47.3641 57.7422C47.149 57.4052 46.8524 57.1278 46.5017 56.9358L45.5413 58.6902C45.597 58.7207 45.6441 58.7647 45.6782 58.8182L47.3641 57.7422ZM46.5017 56.9358C46.151 56.7439 45.7575 56.6434 45.3577 56.6439L45.3598 58.6439C45.4232 58.6438 45.4857 58.6597 45.5413 58.6902L46.5017 56.9358ZM38.473 62.1532C37.945 62.1527 37.4319 62.328 37.0146 62.6514L38.2396 64.2323C38.3058 64.181 38.3873 64.1531 38.4711 64.1532L38.473 62.1532ZM37.0146 62.6514C36.5972 62.9747 36.2994 63.4278 36.1681 63.9392L38.1052 64.4367C38.1261 64.3555 38.1734 64.2836 38.2396 64.2323L37.0146 62.6514ZM36.1681 63.9392C36.0368 64.4505 36.0794 64.9911 36.2893 65.4755L38.1245 64.6805C38.0912 64.6036 38.0844 64.5179 38.1052 64.4367L36.1681 63.9392ZM36.2893 65.4755C36.4991 65.96 36.8643 66.3608 37.3271 66.6148L38.2892 64.8614C38.2157 64.8211 38.1578 64.7574 38.1245 64.6805L36.2893 65.4755ZM37.3271 66.6148C37.79 66.8687 38.3242 66.9614 38.8456 66.8782L38.5302 64.9032C38.4475 64.9164 38.3627 64.9017 38.2892 64.8614L37.3271 66.6148ZM38.8456 66.8782C39.3669 66.7949 39.8457 66.5405 40.2065 66.155L38.7462 64.7884C38.689 64.8496 38.613 64.89 38.5302 64.9032L38.8456 66.8782ZM40.2065 66.155C40.5672 65.7695 40.7894 65.2749 40.838 64.7492L38.8465 64.5653C38.8387 64.6487 38.8035 64.7272 38.7462 64.7884L40.2065 66.155ZM40.838 64.7492C40.8865 64.2235 40.7587 63.6966 40.4747 63.2515L38.7888 64.3275C38.8339 64.3982 38.8542 64.4818 38.8465 64.5653L40.838 64.7492ZM40.4734 63.2495C40.2577 62.9134 39.9609 62.637 39.6102 62.4459L38.6531 64.202C38.7087 64.2323 38.7558 64.2762 38.7901 64.3295L40.4734 63.2495ZM39.6102 62.4459C39.2595 62.2547 38.8663 62.155 38.4669 62.156L38.4716 64.156C38.535 64.1558 38.5974 64.1716 38.6531 64.202L39.6102 62.4459ZM64.6429 56.6439C64.0707 56.643 63.5175 56.8486 63.0846 57.2228L64.3926 58.7357C64.4613 58.6764 64.5492 58.6437 64.64 58.6439L64.6429 56.6439ZM63.0846 57.2228C62.6518 57.597 62.3684 58.1148 62.2865 58.6811L64.266 58.9672C64.2789 58.8773 64.3239 58.7951 64.3926 58.7357L63.0846 57.2228ZM62.2865 58.6811C62.2047 59.2474 62.3298 59.8242 62.6389 60.3057L64.3219 59.2251C64.2728 59.1487 64.253 59.0571 64.266 58.9672L62.2865 58.6811ZM62.6389 60.3057C62.9481 60.7871 63.4205 61.141 63.9695 61.3022L64.5331 59.3832C64.4459 59.3577 64.371 59.3015 64.3219 59.2251L62.6389 60.3057ZM63.9695 61.3022C64.5185 61.4634 65.1073 61.4212 65.6277 61.1834L64.7963 59.3644C64.7137 59.4021 64.6202 59.4088 64.5331 59.3832L63.9695 61.3022ZM65.6277 61.1834C66.1481 60.9455 66.5652 60.528 66.8026 60.0073L64.9828 59.1777C64.9451 59.2604 64.8789 59.3266 64.7963 59.3644L65.6277 61.1834ZM66.8026 60.0073C67.0399 59.4867 67.0815 58.8979 66.9198 58.3491L65.0014 58.9145C65.027 59.0016 65.0204 59.0951 64.9828 59.1777L66.8026 60.0073ZM66.9198 58.3491C66.758 57.8002 66.4037 57.3282 65.9219 57.0195L64.843 58.7035C64.9194 58.7525 64.9757 58.8274 65.0014 58.9145L66.9198 58.3491ZM65.9251 57.0215C65.5438 56.7752 65.1 56.6432 64.6461 56.6411L64.6368 58.6411C64.7089 58.6414 64.7793 58.6624 64.8399 58.7015L65.9251 57.0215ZM71.626 62.1532C71.0539 62.1524 70.5006 62.3579 70.0677 62.7321L71.3757 64.2451C71.4444 64.1857 71.5323 64.1531 71.6231 64.1532L71.626 62.1532ZM70.0677 62.7321C69.6349 63.1063 69.3515 63.6241 69.2696 64.1904L71.2491 64.4766C71.2621 64.3867 71.307 64.3045 71.3757 64.2451L70.0677 62.7321ZM69.2696 64.1904C69.1878 64.7567 69.3129 65.3335 69.6221 65.815L71.305 64.7344C71.2559 64.658 71.2361 64.5665 71.2491 64.4766L69.2696 64.1904ZM69.6221 65.815C69.9312 66.2965 70.4036 66.6503 70.9526 66.8116L71.5162 64.8926C71.4291 64.867 71.3541 64.8109 71.305 64.7344L69.6221 65.815ZM70.9526 66.8116C71.5016 66.9728 72.0904 66.9306 72.6108 66.6928L71.7794 64.8737C71.6968 64.9115 71.6033 64.9182 71.5162 64.8926L70.9526 66.8116ZM72.6108 66.6928C73.1312 66.4549 73.5483 66.0373 73.7857 65.5167L71.9659 64.6871C71.9282 64.7697 71.862 64.836 71.7794 64.8737L72.6108 66.6928ZM73.7857 65.5167C74.023 64.9961 74.0646 64.4073 73.9029 63.8584L71.9845 64.4239C72.0101 64.511 72.0035 64.6044 71.9659 64.6871L73.7857 65.5167ZM73.9029 63.8584C73.7411 63.3096 73.3868 62.8375 72.905 62.5288L71.8261 64.2128C71.9026 64.2618 71.9588 64.3368 71.9845 64.4239L73.9029 63.8584ZM72.905 62.5288C72.5233 62.2842 72.0795 62.1539 71.626 62.1532L71.6231 64.1532C71.695 64.1533 71.7655 64.174 71.8261 64.2128L72.905 62.5288ZM31.7716 38.4809L29.0169 43.252L30.749 44.252L33.5036 39.4809L31.7716 38.4809ZM29.3829 44.6181L48.7401 55.7938L49.74 54.0617L30.3829 42.886L29.3829 44.6181ZM50.1061 55.4278L52.8607 50.6567L51.1287 49.6566L48.374 54.4277L50.1061 55.4278ZM52.4947 49.2906L33.1376 38.1149L32.1376 39.847L51.4947 51.0227L52.4947 49.2906ZM57.7548 67.7066H52.2454V69.7066H57.7548V67.7066ZM51.2454 68.7066V82.8684H53.2454V68.7066H51.2454ZM52.2454 83.8684H57.7548V81.8684H52.2454V83.8684ZM58.7548 82.8684V68.7066H56.7548V82.8684H58.7548Z" fill="white" mask="url(#path-3-outside-1_112_189)"/>
</svg>
