<svg width="110" height="110" viewBox="0 0 110 110" fill="none" xmlns="http://www.w3.org/2000/svg">
<circle cx="55.1125" cy="54.6203" r="54.4787" fill="#0000FF"/>
<g clip-path="url(#clip0_124_87)">
<path d="M88.1729 51.8314V51.084C88.1729 48.1793 88.1765 45.2745 88.1729 42.3698V39.6452H85.6921V39.6542C81.3534 39.6488 77.0111 39.5659 72.6742 39.6758C65.017 39.8667 59.2732 43.3981 55.4088 50.0377C55.3085 50.2088 55.2047 50.3763 55.0633 50.6086C54.938 50.3979 54.8575 50.2664 54.7805 50.1314C50.8732 43.3423 45.0274 39.8036 37.2252 39.6686C32.9115 39.5929 28.5943 39.6524 24.2788 39.6542C24.2072 39.6542 24.1374 39.6578 24.0694 39.6614V39.6506H21.9663V42.1663C21.9627 44.7559 21.9663 47.3419 21.9663 49.9333V51.8836H19.6125V65.0368H22.403C27.7083 64.9882 33.0171 65.0332 38.326 65.0098C42.0615 64.9954 45.2761 66.2434 47.9413 68.8888C48.4479 69.3912 49.0314 69.6253 49.7437 69.6199C53.2967 69.6091 56.8514 69.6091 60.4044 69.6199C61.1168 69.6235 61.7039 69.384 62.2068 68.8834C64.8935 66.2236 68.1314 64.9882 71.8938 65.008C77.3154 65.0368 82.7388 65.017 88.1622 65.0152H88.1729V65.0368H90.6108V51.8314H88.1729ZM59.513 51.2911C62.6364 46.4991 67.0485 43.9563 72.7565 43.8465C76.288 43.7781 79.8212 43.8339 83.3509 43.8339H83.9863V51.916H83.2561C78.6632 51.916 74.0703 51.934 69.4774 51.9124C65.0778 51.8926 61.1884 53.2558 57.8395 56.1389C57.7732 56.1966 57.6981 56.2398 57.4904 56.3857C57.8788 54.4444 58.5357 52.793 59.5148 51.2911H59.513ZM26.1528 43.9167C26.2262 43.8843 26.2656 43.8483 26.305 43.8483C30.2267 43.8483 34.1519 43.76 38.0718 43.8645C44.8448 44.05 51.0754 49.2796 52.5575 55.885C52.5807 55.9967 52.5861 56.1119 52.6147 56.3406C52.4053 56.1894 52.2675 56.1029 52.1422 55.9985C48.9974 53.3603 45.3746 51.97 41.2829 51.9322C36.7383 51.8908 32.1884 51.916 27.6403 51.9178H26.1528V43.9167ZM86.3311 60.8373H85.5614C80.9686 60.8373 76.3757 60.8499 71.7846 60.8337C67.3582 60.8175 63.4633 62.2365 60.0947 65.1269C59.8907 65.3016 59.5703 65.4222 59.2982 65.4222C56.4827 65.4456 53.6672 65.4456 50.8535 65.4222C50.5653 65.4222 50.2216 65.2835 49.9997 65.0927C46.6848 62.251 42.8544 60.8409 38.5085 60.8391C33.8691 60.8355 29.2315 60.8391 24.5921 60.8391H23.8045V56.1011H24.4399C29.9349 56.1011 35.4263 56.0975 40.9177 56.1011C44.4456 56.1047 47.5064 57.3041 50.0659 59.755C50.6512 60.3169 51.3027 60.5816 52.1171 60.569C54.1236 60.5402 56.1337 60.5492 58.1402 60.5654C58.8776 60.5744 59.4826 60.3241 60.0088 59.8162C62.6346 57.2825 65.7813 56.0867 69.4112 56.0975C74.788 56.1137 80.1649 56.1029 85.5418 56.1029H86.3293V60.8409L86.3311 60.8373Z" fill="white"/>
</g>
<defs>
<clipPath id="clip0_124_87">
<rect width="71" height="30" fill="white" transform="translate(19.6125 39.6201)"/>
</clipPath>
</defs>
</svg>
