<svg width="110" height="109" viewBox="0 0 110 109" fill="none" xmlns="http://www.w3.org/2000/svg">
<circle cx="55.1125" cy="54.4787" r="54.4787" fill="#0000FF"/>
<path d="M84.1124 30.9785H26.1124V43.1255H84.1124V30.9785Z" fill="white"/>
<path d="M42.0429 53.7863C46.4705 53.7863 50.0703 57.423 50.0703 61.8916C50.0703 66.3602 46.4685 69.9969 42.0429 69.9969C37.6172 69.9969 34.0154 66.3602 34.0154 61.8916C34.0154 57.423 37.6172 53.7863 42.0429 53.7863ZM42.0429 45.8066C33.2449 45.8066 26.1124 53.0083 26.1124 61.8936C26.1124 70.7789 33.2449 77.9785 42.0429 77.9785C50.8409 77.9785 57.9733 70.7769 57.9733 61.8936C57.9733 53.0102 50.8409 45.8086 42.0429 45.8086V45.8066Z" fill="white"/>
<path d="M84.1125 45.5552V77.9784H56.7306L84.1125 45.5552Z" fill="white"/>
</svg>
