<svg width="110" height="109" viewBox="0 0 110 109" fill="none" xmlns="http://www.w3.org/2000/svg">
<circle cx="54.6125" cy="54.4787" r="54.4787" fill="#0000FF"/>
<path d="M85.5135 48.4669H80.718C77.2172 48.4669 75.4639 44.2336 77.9386 41.7591L81.3304 38.3674C81.5093 38.1885 81.5093 37.9005 81.3304 37.7215L72.0554 28.4469C71.8764 28.2679 71.5884 28.2679 71.4094 28.4469L68.0176 31.8386C65.543 34.3131 61.3095 32.5599 61.3095 29.0592V24.2556C61.3095 24.0039 61.1054 23.7998 60.8537 23.7998H47.7395C47.4879 23.7998 47.2837 24.0039 47.2837 24.2556V29.0564C47.2837 32.5571 43.0503 34.3103 40.5756 31.8358L37.181 28.4413C37.0021 28.2624 36.7141 28.2624 36.5351 28.4413L27.2517 37.7187C27.0727 37.8977 27.0727 38.1857 27.2517 38.3646L30.6435 41.7563C33.1181 44.2308 31.3649 48.4641 27.8641 48.4641H23.0658C22.8141 48.4641 22.61 48.6682 22.61 48.9198V62.0335C22.61 62.2851 22.8141 62.4892 23.0658 62.4892H27.8669C31.3677 62.4892 33.1209 66.7225 30.6463 69.1971L27.2517 72.5915C27.0727 72.7705 27.0727 73.0584 27.2517 73.2374L36.5239 82.5092C36.7029 82.6882 36.9909 82.6882 37.1698 82.5092L40.5644 79.1148C43.0391 76.6402 47.2726 78.3934 47.2726 81.8941V86.695C47.2726 86.9466 47.4767 87.1507 47.7283 87.1507H60.8426C61.0942 87.1507 61.2983 86.9466 61.2983 86.695V81.8969C61.2983 78.3962 65.5318 76.643 68.0064 79.1176L71.3982 82.5092C71.5772 82.6882 71.8652 82.6882 72.0442 82.5092L81.3192 73.2374C81.4982 73.0584 81.4982 72.7705 81.3192 72.5915L77.9246 69.1971C75.45 66.7225 77.2032 62.4892 80.704 62.4892H85.5023C85.754 62.4892 85.9581 62.2851 85.9581 62.0335V48.9198C85.9581 48.6682 85.754 48.4641 85.5023 48.4641L85.5135 48.4669ZM54.5735 65.1679C49.0901 65.3217 44.5966 60.9262 44.5966 55.4795C44.5966 50.0327 48.9363 45.7882 54.291 45.7882C59.6458 45.7882 64.3546 50.508 63.9603 56.1757C63.6164 61.1052 59.5116 65.0281 54.5735 65.1679Z" fill="white"/>
</svg>
