<svg width="110" height="110" viewBox="0 0 110 110" fill="none" xmlns="http://www.w3.org/2000/svg">
<circle cx="54.6124" cy="55.3073" r="54.4787" fill="#0000FF"/>
<path d="M63.589 84.3613H45.6037V91.2507H63.589V84.3613Z" fill="white" stroke="white"/>
<path d="M90.666 51.7134H78.2563V58.6483H90.666V51.7134Z" fill="white" stroke="white"/>
<path d="M45.6037 80.1626V77.2895C45.6011 75.9507 45.5984 74.5691 45.6118 73.2062C45.6118 73.1446 45.6091 73.1098 45.6064 73.0911C45.593 73.0804 45.5662 73.059 45.5127 73.0322C38.0519 68.9168 34.3777 62.5924 34.5946 54.241C34.8463 44.5188 42.7303 36.1781 52.5397 35.2544C53.2011 35.1928 53.8706 35.1606 54.5321 35.1606C64.62 35.1606 72.9993 42.4329 74.4588 52.4551C75.0507 56.5116 74.341 60.6243 72.4129 64.3488C70.4821 68.0733 67.5175 71.0508 63.8353 72.9545C63.5702 73.0911 63.5702 73.1179 63.5729 73.3562C63.6024 74.8315 63.597 76.331 63.5916 77.7849C63.5916 78.3418 63.589 78.9014 63.589 79.461V80.1652H45.6037V80.1626ZM56.6557 73.2464V73.0242C56.6557 72.3334 56.6557 71.664 56.6557 70.9946C56.6557 70.8232 56.6396 70.6251 56.6182 70.4135C56.562 69.7977 56.4977 69.0988 56.886 68.5633C57.269 68.0385 57.9197 67.8538 58.4955 67.6904C58.7151 67.6289 58.9213 67.57 59.0927 67.5003C64.3897 65.3261 67.2712 61.4383 67.6541 55.9493C67.9059 52.3319 66.6874 48.8805 64.2183 46.2351C61.7519 43.5896 58.2812 42.0741 54.6954 42.0741C53.7849 42.0741 52.8637 42.1705 51.9586 42.3633C46.8704 43.4397 43.539 46.5002 42.0581 51.459C40.6093 56.3188 41.7475 60.7207 45.4431 64.547C46.9293 66.0839 48.8494 67.1763 51.4846 67.985C52.229 68.2126 52.5745 68.6945 52.5424 69.4576C52.5182 70.0387 52.5236 70.6411 52.529 71.2248C52.529 71.4765 52.5343 71.7309 52.5343 71.9826V73.2464H56.653H56.6557Z" fill="white" stroke="white"/>
<path d="M26.4429 31.712L31.1508 27.0557L39.7979 35.7015L35.1142 40.39L26.4429 31.712Z" fill="white" stroke="white"/>
<path d="M69.3305 35.6134L78.0018 26.9595L82.7793 31.8219L74.1696 40.4196L69.3305 35.6134Z" fill="white" stroke="white"/>
<path d="M58.0268 19.1436H51.1765V31.5166H58.0268V19.1436Z" fill="white" stroke="white"/>
<path d="M30.9312 51.751H18.559V58.5975H30.9312V51.751Z" fill="white" stroke="white"/>
<path d="M46.308 90.5464V85.0654H62.8846V90.5464H46.308Z" fill="white" stroke="white"/>
<path d="M89.9616 57.944H78.9578V52.4175H89.9616V57.944Z" fill="white" stroke="white"/>
<path d="M62.8847 79.4613H46.308C46.308 79.223 46.308 78.9821 46.308 78.7411C46.308 76.8989 46.3 75.0594 46.3161 73.2172C46.3188 72.8344 46.2197 72.6228 45.8528 72.422C38.7107 68.4806 35.0874 62.4186 35.2989 54.2654C35.5426 44.8564 43.2177 36.8451 52.6066 35.9589C63.0909 34.9682 72.2468 42.1521 73.7626 52.5598C74.9221 60.5256 70.7525 68.5877 63.5113 72.3336C63.0427 72.5773 62.8579 72.829 62.8686 73.3725C62.9088 75.3914 62.8847 77.4103 62.8847 79.464V79.4613ZM57.36 73.9536C57.36 72.9254 57.3573 71.9641 57.36 71.0002C57.3627 70.3094 57.127 69.4365 57.4564 68.9813C57.8072 68.4994 58.707 68.4217 59.3605 68.154C64.8101 65.9182 67.946 61.859 68.3558 56.0005C68.9904 46.9235 60.7235 39.7905 51.8113 41.6755C46.5116 42.7947 42.9285 46.0774 41.3833 51.2612C39.8247 56.4824 41.1556 61.1253 44.9369 65.0399C46.6937 66.858 48.8976 67.9317 51.281 68.6627C51.7095 68.7939 51.8622 68.984 51.8434 69.4338C51.8086 70.2853 51.8327 71.1368 51.8327 71.9882C51.8327 72.6442 51.8327 73.3003 51.8327 73.9563H57.36V73.9536Z" fill="white" stroke="white"/>
<path d="M38.8017 35.7016C37.5939 36.9118 36.3273 38.1783 35.1141 39.3939C32.562 36.8395 29.9858 34.261 27.4391 31.7147C28.6308 30.5365 29.9162 29.2647 31.1454 28.0464C33.6439 30.5446 36.2175 33.1204 38.799 35.7016H38.8017Z" fill="white" stroke="white"/>
<path d="M74.167 39.426C72.8815 38.1488 71.5988 36.8743 70.3268 35.6105C72.8681 33.0748 75.439 30.5071 77.9965 27.958C79.2471 29.2299 80.5245 30.5312 81.7858 31.8191C79.2872 34.3146 76.7191 36.8797 74.167 39.426Z" fill="white" stroke="white"/>
<path d="M51.8809 19.8477H57.3225V30.8123H51.8809V19.8477Z" fill="white" stroke="white"/>
<path d="M19.2632 57.893V52.4521H30.2268V57.893H19.2632Z" fill="white" stroke="white"/>
</svg>
