<svg width="26" height="28" viewBox="0 0 26 28" fill="none" xmlns="http://www.w3.org/2000/svg">
<path d="M12.6863 17.5931C14.7551 17.5931 16.4322 15.916 16.4322 13.8472C16.4322 11.7784 14.7551 10.1013 12.6863 10.1013C10.6175 10.1013 8.94043 11.7784 8.94043 13.8472C8.94043 15.916 10.6175 17.5931 12.6863 17.5931Z" stroke="#D0D0D0" stroke-width="1.5"/>
<path d="M14.8902 1.55063C14.432 1.36084 13.8501 1.36084 12.6864 1.36084C11.5227 1.36084 10.9408 1.36084 10.4826 1.55063C10.1794 1.67614 9.90389 1.86016 9.67186 2.09219C9.43983 2.32422 9.2558 2.59971 9.1303 2.9029C9.01542 3.18135 8.96922 3.50724 8.95174 3.98047C8.94361 4.32251 8.84886 4.65689 8.67635 4.95235C8.50383 5.24781 8.2592 5.49468 7.96532 5.66987C7.66666 5.8369 7.3305 5.92543 6.98831 5.92718C6.64611 5.92893 6.30907 5.84383 6.00872 5.67986C5.58917 5.4576 5.28576 5.33524 4.98484 5.29528C4.32845 5.20896 3.66466 5.38682 3.13936 5.78974C2.74729 6.09316 2.45511 6.59636 1.87324 7.604C1.29138 8.61165 0.9992 9.11485 0.93552 9.60806C0.892611 9.93327 0.914193 10.2637 0.999034 10.5806C1.08387 10.8975 1.23031 11.1945 1.42998 11.4548C1.61478 11.6945 1.87324 11.8956 2.27405 12.1478C2.86466 12.5186 3.24424 13.1504 3.24424 13.8472C3.24424 14.5439 2.86466 15.1757 2.27405 15.5453C1.87324 15.7988 1.61353 15.9998 1.42998 16.2395C1.23031 16.4998 1.08387 16.7969 0.999034 17.1137C0.914193 17.4306 0.892611 17.7611 0.93552 18.0863C1.00045 18.5782 1.29138 19.0827 1.87199 20.0903C2.45511 21.098 2.74604 21.6012 3.13936 21.9046C3.39962 22.1043 3.69666 22.2507 4.01353 22.3355C4.3304 22.4204 4.66088 22.442 4.98609 22.3991C5.28576 22.3591 5.58917 22.2367 6.00872 22.0145C6.30907 21.8505 6.64611 21.7654 6.98831 21.7672C7.3305 21.7689 7.66666 21.8574 7.96532 22.0245C8.56841 22.3741 8.92677 23.0171 8.95174 23.7139C8.96922 24.1883 9.01417 24.513 9.1303 24.7914C9.2558 25.0946 9.43983 25.3701 9.67186 25.6021C9.90389 25.8342 10.1794 26.0182 10.4826 26.1437C10.9408 26.3335 11.5227 26.3335 12.6864 26.3335C13.8501 26.3335 14.432 26.3335 14.8902 26.1437C15.1934 26.0182 15.4689 25.8342 15.7009 25.6021C15.933 25.3701 16.117 25.0946 16.2425 24.7914C16.3574 24.513 16.4036 24.1883 16.4211 23.7139C16.446 23.0171 16.8044 22.3728 17.4075 22.0245C17.7061 21.8574 18.0423 21.7689 18.3845 21.7672C18.7267 21.7654 19.0637 21.8505 19.3641 22.0145C19.7836 22.2367 20.087 22.3591 20.3867 22.3991C20.7119 22.442 21.0424 22.4204 21.3593 22.3355C21.6761 22.2507 21.9732 22.1043 22.2334 21.9046C22.6268 21.6024 22.9177 21.098 23.4996 20.0903C24.0814 19.0827 24.3736 18.5795 24.4373 18.0863C24.4802 17.7611 24.4586 17.4306 24.3738 17.1137C24.2889 16.7969 24.1425 16.4998 23.9428 16.2395C23.758 15.9998 23.4996 15.7988 23.0988 15.5466C22.8065 15.3685 22.5642 15.1192 22.3945 14.822C22.2248 14.5248 22.1333 14.1894 22.1286 13.8472C22.1286 13.1504 22.5081 12.5186 23.0988 12.149C23.4996 11.8956 23.7593 11.6945 23.9428 11.4548C24.1425 11.1945 24.2889 10.8975 24.3738 10.5806C24.4586 10.2637 24.4802 9.93327 24.4373 9.60806C24.3724 9.1161 24.0814 8.61165 23.5008 7.604C22.9177 6.59636 22.6268 6.09316 22.2334 5.78974C21.9732 5.59007 21.6761 5.44364 21.3593 5.3588C21.0424 5.27395 20.7119 5.25237 20.3867 5.29528C20.087 5.33524 19.7836 5.4576 19.3628 5.67986C19.0626 5.84361 18.7258 5.92858 18.3839 5.92684C18.0419 5.92509 17.706 5.83668 17.4075 5.66987C17.1136 5.49468 16.869 5.24781 16.6965 4.95235C16.5239 4.65689 16.4292 4.32251 16.4211 3.98047C16.4036 3.50599 16.3586 3.18135 16.2425 2.9029C16.117 2.59971 15.933 2.32422 15.7009 2.09219C15.4689 1.86016 15.1934 1.67614 14.8902 1.55063Z" stroke="#D0D0D0" stroke-width="1.5"/>
</svg>
