<svg width="109" height="110" viewBox="0 0 109 110" fill="none" xmlns="http://www.w3.org/2000/svg">
<circle cx="54.4999" cy="55.0309" r="54.4787" fill="#0000FF"/>
<path d="M75.1686 47.0692C74.2793 42.1619 71.7722 37.9492 67.9218 34.8857C64.296 32.0011 59.7455 30.4116 55.1122 30.4116C50.4789 30.4116 46.0797 31.9752 42.4043 34.9304C36.359 39.793 33.8733 46.2097 35.0204 54.0016C35.666 58.3696 37.6669 62.1844 40.971 65.335C42.6621 66.9504 43.4308 68.7683 43.3858 71.0571C43.3433 73.207 43.3551 75.3898 43.3646 77.5021V77.5727C43.3693 78.4863 43.3717 79.4 43.3717 80.3136V81.637H47.4279L47.4728 82.0585C47.8914 85.958 51.179 88.8991 55.1217 88.8991C59.0644 88.8991 62.3519 85.958 62.7705 82.0585L62.8155 81.637H62.9172V81.6135H66.8788V80.3042C66.8788 79.3717 66.8788 78.4369 66.8764 77.5068C66.8764 75.2933 66.8764 73.0775 66.8859 70.8616C66.8882 70.1717 66.9261 69.6536 67.0089 69.1803C67.2383 67.8523 67.9242 66.7008 69.2959 65.328C74.4543 60.1687 76.4316 54.0251 75.1686 47.0692ZM57.799 82.301C57.676 82.7202 57.4655 83.097 57.1699 83.4148C56.6614 83.9682 55.9613 84.279 55.195 84.2955H55.1311C54.3648 84.2979 53.6624 84.0059 53.1468 83.4784C52.8298 83.1535 52.6004 82.7579 52.4656 82.3034L52.2835 81.6982H57.974L57.799 82.301ZM61.9427 76.6897H48.3219V72.9079H61.9427V76.6897ZM66.453 61.2095C64.5799 63.2063 62.9763 65.0642 62.333 67.605L62.2407 67.9606H58.0521L57.579 67.9512L48.0097 67.9323L47.9104 67.5932C47.8228 67.2918 47.7188 66.9386 47.5958 66.5972C46.9809 64.8758 45.9426 63.3358 44.4218 61.8877C42.1796 59.7542 40.6801 57.0863 39.9659 53.9592C39.0482 49.9255 39.9304 45.5715 42.3901 42.0112C44.8428 38.4602 48.601 36.0889 52.6974 35.5026C53.4921 35.3896 54.2986 35.3331 55.0909 35.3331C62.4702 35.3331 68.707 40.3369 70.2586 47.5048C71.3844 52.7065 70.1048 57.3171 66.453 61.2095Z" fill="white"/>
<path d="M75.1686 47.0692C74.2793 42.1619 71.7722 37.9492 67.9218 34.8857C64.296 32.0011 59.7455 30.4116 55.1122 30.4116C50.4789 30.4116 46.0797 31.9752 42.4043 34.9304C36.359 39.793 33.8733 46.2097 35.0204 54.0016C35.666 58.3696 37.6669 62.1844 40.971 65.335C42.6621 66.9504 43.4308 68.7683 43.3858 71.0571C43.3433 73.207 43.3551 75.3898 43.3646 77.5021V77.5727C43.3693 78.4863 43.3717 79.4 43.3717 80.3136V81.637H47.4279L47.4728 82.0585C47.8914 85.958 51.179 88.8991 55.1217 88.8991C59.0644 88.8991 62.3519 85.958 62.7705 82.0585L62.8155 81.637H62.9172V81.6135H66.8788V80.3042C66.8788 79.3717 66.8788 78.4369 66.8764 77.5068C66.8764 75.2933 66.8764 73.0775 66.8859 70.8616C66.8882 70.1717 66.9261 69.6536 67.0089 69.1803C67.2383 67.8523 67.9242 66.7008 69.2959 65.328C74.4543 60.1687 76.4316 54.0251 75.1686 47.0692ZM57.799 82.301C57.676 82.7202 57.4655 83.097 57.1699 83.4148C56.6614 83.9682 55.9613 84.279 55.195 84.2955H55.1311C54.3648 84.2979 53.6624 84.0059 53.1468 83.4784C52.8298 83.1535 52.6004 82.7579 52.4656 82.3034L52.2835 81.6982H57.974L57.799 82.301ZM61.9427 76.6897H48.3219V72.9079H61.9427V76.6897ZM66.453 61.2095C64.5799 63.2063 62.9763 65.0642 62.333 67.605L62.2407 67.9606H58.0521L57.579 67.9512L48.0097 67.9323L47.9104 67.5932C47.8228 67.2918 47.7188 66.9386 47.5958 66.5972C46.9809 64.8758 45.9426 63.3358 44.4218 61.8877C42.1796 59.7542 40.6801 57.0863 39.9659 53.9592C39.0482 49.9255 39.9304 45.5715 42.3901 42.0112C44.8428 38.4602 48.601 36.0889 52.6974 35.5026C53.4921 35.3896 54.2986 35.3331 55.0909 35.3331C62.4702 35.3331 68.707 40.3369 70.2586 47.5048C71.3844 52.7065 70.1048 57.3171 66.453 61.2095Z" fill="white"/>
<path d="M57.3946 21.1011H52.5768V27.2776H57.3946V21.1011Z" fill="white"/>
<path d="M57.3946 21.1011H52.5768V27.2776H57.3946V21.1011Z" fill="white"/>
<path d="M31.4396 48.3359H25.2098V53.1444H31.4396V48.3359Z" fill="white"/>
<path d="M31.4396 48.3359H25.2098V53.1444H31.4396V48.3359Z" fill="white"/>
<path d="M84.7901 48.3667H78.5295V53.1398H84.7901V48.3667Z" fill="white"/>
<path d="M84.7901 48.3667H78.5295V53.1398H84.7901V48.3667Z" fill="white"/>
<path d="M82.0418 38.0032L76.5925 41.1468L74.1398 36.92L79.5938 33.7905L82.0418 38.0032Z" fill="white"/>
<path d="M82.0418 38.0032L76.5925 41.1468L74.1398 36.92L79.5938 33.7905L82.0418 38.0032Z" fill="white"/>
<path d="M45.3585 29.2412L41.1202 31.6807L37.9722 26.253L42.2081 23.8135L45.3585 29.2412Z" fill="white"/>
<path d="M45.3585 29.2412L41.1202 31.6807L37.9722 26.253L42.2081 23.8135L45.3585 29.2412Z" fill="white"/>
<path d="M72.0278 26.2483L68.8774 31.676L64.6391 29.2412L67.7871 23.8135L72.0278 26.2483Z" fill="white"/>
<path d="M72.0278 26.2483L68.8774 31.676L64.6391 29.2412L67.7871 23.8135L72.0278 26.2483Z" fill="white"/>
<path d="M35.8506 36.9132L33.4098 41.1423L27.9558 38.0058L30.399 33.7837L35.8506 36.9132Z" fill="white"/>
<path d="M35.8506 36.9132L33.4098 41.1423L27.9558 38.0058L30.399 33.7837L35.8506 36.9132Z" fill="white"/>
</svg>
