<svg width="109" height="110" viewBox="0 0 109 110" fill="none" xmlns="http://www.w3.org/2000/svg">
<circle cx="54.5" cy="54.676" r="54.4787" fill="#0000FF"/>
<path d="M90.2134 55.5704C92.1448 56.286 93.4747 55.3609 93.4809 53.2824C93.4892 50.2 93.4768 47.1176 93.4996 44.0331C93.5079 43.0457 93.4643 42.0832 92.9996 41.1871C92.6946 40.8843 92.3917 40.5794 92.0867 40.2765C91.2175 39.8119 90.2818 39.7476 89.313 39.76C87.0205 39.7911 84.728 39.7787 82.3567 39.7849C82.3318 37.1754 81.2841 35.0866 79.2219 33.5641C77.8112 32.5228 76.1909 32.1038 74.4316 32.1867C71.3591 32.334 67.5998 34.7589 67.3675 39.8928C61.3676 39.8471 55.3574 39.8015 49.3493 39.7559C49.1937 34.8771 45.3784 32.1971 41.8557 32.195C38.501 32.193 34.5426 34.6883 34.3331 39.928H34.3269V44.1223C35.1567 44.1223 35.9866 44.1202 36.8144 44.1181C38.0529 44.114 38.945 43.5394 39.1089 42.4857C39.194 41.9339 39.0487 41.3095 38.8765 40.7598C38.4471 39.3887 38.8641 37.8931 39.9782 37.1049C41.169 36.2627 42.6939 36.3084 43.8432 37.2169C44.8805 38.0384 45.2581 39.4738 44.783 40.7806C44.0341 42.8321 44.9283 44.1119 47.1128 44.1098C50.1003 44.1078 53.0878 44.1015 56.0006 44.0974C56.0006 46.4102 56.0006 48.6899 55.9985 51.0463C53.677 51.094 51.6438 52.0109 50.1273 53.9213C48.9883 55.3609 48.4738 57.0245 48.5381 58.8644C48.6543 62.1833 51.26 65.8548 55.9944 66.0145C56.0026 68.2755 56.0089 70.5344 56.0151 72.7705C53.8243 72.7726 51.5795 72.7747 49.2871 72.7768C49.2559 70.522 48.4406 68.5618 46.7104 67.0537C45.2685 65.7988 43.5611 65.1993 41.6379 65.2367C38.0882 65.3051 34.4514 68.0909 34.3248 72.8639C33.1879 72.8597 32.0469 72.8494 30.9058 72.8535C29.7585 72.8597 28.6133 72.8825 27.4225 72.8991C27.4121 72.5942 27.3955 72.366 27.3955 72.1379C27.3955 69.2919 27.4038 66.448 27.3976 63.6042C27.3934 61.6854 26.0138 60.7541 24.2068 61.4365C22.7151 62.0028 21.3168 61.6128 20.3812 60.3703C19.5783 59.3041 19.6032 57.7401 20.4414 56.6241C21.2982 55.4853 22.7815 55.1161 24.2483 55.6762C25.9993 56.3441 27.3997 55.4003 27.4059 53.5189C27.4163 50.4137 27.4038 47.3064 27.3997 44.1264H29.1009V39.816C28.2461 39.816 27.3934 39.8202 26.5387 39.8306C24.4744 39.8554 23.1363 41.2017 23.1239 43.2656C23.1093 45.844 23.1239 48.4244 23.1239 51.065C20.6716 51.1314 18.6281 52.015 17.1074 53.9358C15.9166 55.4418 15.4041 57.1676 15.5141 59.0843C15.705 62.3803 18.4207 65.917 23.0678 66.0415C23.0782 66.2676 23.0969 66.4958 23.0969 66.726C23.0969 68.7816 23.1114 70.8373 23.0844 72.8908C23.072 73.8782 23.1197 74.8407 23.5823 75.7368C23.8852 76.0417 24.1902 76.3446 24.4931 76.6495C25.3852 77.1245 26.3478 77.1743 27.3354 77.1681C30.4183 77.1432 33.5032 77.0872 36.5841 77.1743C38.7334 77.2324 39.6442 75.3862 38.9056 73.8264C38.277 72.4988 38.8019 70.9804 39.9616 70.1299C41.0694 69.3147 42.6275 69.3438 43.7706 70.2046C44.8287 70.9991 45.2353 72.4988 44.7519 73.8222C44.0009 75.8695 44.8951 77.1411 47.0859 77.139C52.0276 77.1369 56.9694 77.1307 61.9112 77.1287V72.6979C61.4133 72.6979 60.9133 72.7 60.4112 72.7C60.4195 69.742 60.4527 66.7094 60.4195 63.6768C60.4133 63.1105 60.2598 62.4695 59.959 62.0028C59.3843 61.115 58.4175 60.9574 57.2765 61.393C55.8512 61.9364 54.4322 61.6108 53.5691 60.5446C52.6521 59.4079 52.5878 57.8335 53.4135 56.6843C54.2496 55.5206 55.735 55.0767 57.1167 55.5766C57.2059 55.6098 57.2931 55.6513 57.3823 55.6845C58.9963 56.286 60.4258 55.336 60.4424 53.5977C60.4714 50.7061 60.459 47.8146 60.4527 44.923C60.4527 44.6616 60.3801 44.4023 60.3324 44.0808C63.6062 44.085 66.7098 44.0787 69.8135 44.0933C70.8114 44.0974 71.5914 43.7531 72.0396 42.8321C72.3674 42.16 72.2304 41.5045 71.969 40.8262C71.1143 38.6046 72.7387 36.354 75.0748 36.4826C77.2344 36.6009 78.5705 38.7581 77.778 40.847C77.3174 42.0625 77.4564 42.9773 78.3734 43.5954C78.8132 43.892 79.4294 44.0497 79.9709 44.058C82.7654 44.1015 85.562 44.0767 88.3586 44.0663C88.62 44.0663 88.8814 43.9937 89.0619 43.9646C89.0619 46.3978 89.0599 48.6837 89.0599 50.9779C84.1471 51.8325 81.5455 54.4752 81.5601 58.5698C81.5725 61.7103 83.9251 65.7822 89.0702 65.9958C89.0682 68.2382 89.0661 70.4784 89.064 72.6751C86.8794 72.6689 84.6243 72.6606 82.3629 72.6523C82.1451 67.5225 78.0083 65.1952 74.8652 65.1889C71.774 65.1806 67.5874 67.4769 67.3281 72.6876V77.1245H69.6683C70.4691 77.1245 71.1848 76.9752 71.7159 76.3155C72.3445 75.5314 72.2864 74.7162 71.9296 73.8264C71.3695 72.422 71.8321 70.9576 73.0437 70.0719C74.1391 69.2691 75.7117 69.3272 76.8444 70.2108C77.8776 71.0177 78.2676 72.4781 77.7987 73.7724C77.0477 75.8447 77.9191 77.1079 80.1057 77.1079C83.1389 77.1079 86.174 77.0892 89.2092 77.1079C90.1988 77.1141 91.1594 77.0581 92.0536 76.5852C92.3565 76.2803 92.6614 75.9774 92.9664 75.6725C93.4311 74.7743 93.4768 73.8139 93.4705 72.8265C93.4519 69.7918 93.4705 66.755 93.4705 63.7203C93.4705 61.5797 92.1801 60.6753 90.1864 61.4137C88.8296 61.9178 87.3109 61.5029 86.5143 60.4139C85.6803 59.2689 85.6533 57.7318 86.4479 56.6656C87.3524 55.4542 88.7819 55.0373 90.2134 55.5704Z" fill="white"/>
</svg>
