<svg width="110" height="110" viewBox="0 0 110 110" fill="none" xmlns="http://www.w3.org/2000/svg">
<circle cx="54.8834" cy="55.0309" r="54.4787" fill="#0000FF"/>
<g clip-path="url(#clip0_125_15)">
<path d="M54.4546 86C50.831 85.9814 47.8663 83.0022 47.8477 79.3617C47.8291 75.3731 47.8338 71.322 47.8384 67.4007V65.6419V65.0456V60.7531H51.8169V59.0895C51.8169 57.9572 51.8169 56.8249 51.8169 55.6926C51.8193 54.1171 52.5222 53.189 54.0254 52.769C62.0822 50.5137 70.139 48.2607 78.1957 46.0124C79.4183 45.669 79.634 45.3859 79.634 44.1144V37.9657C79.634 36.7708 79.1794 36.3276 77.9591 36.3276H77.0497V42.2884H74.0989C67.5709 42.2884 61.0406 42.2884 54.5103 42.2884C47.9799 42.2884 41.4496 42.2884 34.9216 42.2884C34.8706 42.2884 34.8172 42.2884 34.7685 42.2884H31.9476V36.3322H30.6299C29.4282 36.3322 28.2289 36.3322 27.0272 36.3322C26.0761 36.3322 25.2827 36.0375 24.7306 35.483C24.2457 34.9934 23.9952 34.353 23.9998 33.6221C24.0137 32.0328 25.2177 30.9631 26.9924 30.9608H31.9452V25C31.9452 25 49.1677 25 54.5033 25C59.8389 25 64.7384 25 69.856 25H70.5101H77.0613V30.9608H78.1122C82.0884 30.9724 84.9836 33.8611 84.9952 37.8288C85.0021 39.9936 85.0021 42.1886 84.9952 44.3511C84.9859 47.5995 83.1416 50.0706 80.0609 50.9615C74.7508 52.4952 69.3502 54.0382 64.126 55.5302C61.9314 56.1566 59.7368 56.7831 57.5423 57.4119C57.4309 57.4444 57.3219 57.4769 57.2105 57.5117V60.7508H61.1496V63.5398L61.1543 65.5816C61.1612 70.1038 61.1705 74.7792 61.1473 79.3779C61.1287 83.0301 58.1431 86 54.4917 86H54.4569H54.4546ZM53.2088 68.7024C53.2065 72.2222 53.2019 75.8627 53.2204 79.4406C53.2204 79.6309 53.2251 80.2109 54.0579 80.5497C54.2087 80.61 54.3664 80.6425 54.5242 80.6425C55.1436 80.6425 55.7838 80.1297 55.7862 79.2712C55.7954 75.8604 55.7931 72.3893 55.7908 69.0342V66.1431H53.2135V68.7024H53.2088ZM71.6353 36.8798V30.397H37.3412V36.8798H71.6353Z" fill="white"/>
</g>
<defs>
<clipPath id="clip0_125_15">
<rect width="61" height="61" fill="white" transform="translate(24 25)"/>
</clipPath>
</defs>
</svg>
