<svg width="110" height="110" viewBox="0 0 110 110" fill="none" xmlns="http://www.w3.org/2000/svg">
<circle cx="54.5643" cy="55.3371" r="54.4787" fill="#0000FF"/>
<g clip-path="url(#clip0_104_444)">
<path d="M70.1415 81.4779L69.8858 81.2943C69.7354 81.1869 69.6127 81.0985 69.4918 81.0084L67.4717 79.4892C64.992 77.6252 62.4294 75.6971 59.9134 73.7932C59.7164 73.6442 59.5539 73.5888 59.3086 73.5888C52.7317 73.5957 46.1635 73.5957 39.5953 73.5957H26.5643V39.9153H29.7594V30.3372H79.3761V39.9413H82.5643V73.5905H71.3339V82.3372L70.1398 81.4779H70.1415ZM60.4093 68.8681C60.9692 68.8681 61.4375 69.0258 61.8816 69.367C63.2968 70.4446 64.7432 71.5307 66.1446 72.5823L66.625 72.9426V68.8612H77.8416V44.7036H31.2714V68.8768H41.6568C47.9071 68.8768 54.159 68.8768 60.4093 68.8699V68.8681ZM74.6154 39.9084V35.0717H34.4717V39.9084H74.6154Z" fill="white"/>
<path d="M78.6227 40.6984V31.0925H30.5145V40.6707H27.3177V72.8422H27.9933C38.4289 72.8422 48.8644 72.8457 59.2999 72.8353C59.7146 72.8353 60.0378 72.9427 60.3678 73.1921C63.5543 75.6018 66.7494 78.0012 69.9411 80.4039C70.1208 80.5373 70.3074 80.6672 70.5804 80.8647V72.8353H81.8109V40.6984H78.6227ZM33.7183 34.3147H75.3688V40.6638H33.7183V34.3147ZM78.595 69.6148H67.3784V74.4256C67.1434 74.261 67.0034 74.1709 66.8721 74.0704C65.056 72.7053 63.2346 71.3455 61.4254 69.9665C61.1143 69.7292 60.805 69.6235 60.4093 69.6235C50.665 69.6339 40.9207 69.6304 31.1781 69.6304H30.5163V43.9466H78.5933V69.6148H78.595Z" fill="white"/>
<path d="M61.3286 49.8141V63.4633H58.6484V54.0462C58.6121 54.0341 58.5759 54.022 58.5396 54.0098C57.228 56.1995 55.9147 58.3892 54.5513 60.6673C53.2 58.4152 51.8815 56.2151 50.5647 54.0168C50.5371 54.022 50.5095 54.0272 50.4818 54.0341V63.4563H47.7844V49.8141C48.2855 49.8141 48.7935 49.8089 49.3033 49.8141C49.3759 49.8141 49.4484 49.8141 49.521 49.8141C49.5539 49.8141 49.5867 49.8141 49.6195 49.8141H50.9501L54.3889 55.0787C54.4027 55.0995 54.4165 55.122 54.4321 55.1445L54.5496 55.3247L54.591 55.2623L54.7034 55.0926L54.7708 54.9903L54.8019 54.9401L58.1801 49.8123H58.7953C59.6317 49.8245 60.4698 49.8123 61.3321 49.8123L61.3286 49.8141Z" fill="white"/>
<path d="M66.8479 52.5423V55.2673H72.2462V57.9906H66.8634V60.745H72.2497V63.4492H64.1176V49.8381H72.2445V52.5406H66.8496L66.8479 52.5423Z" fill="white"/>
<path d="M44.9746 52.5512H39.5797V55.2572H44.9746V63.465H36.8512V60.7782H42.2374V58.0237H36.8477V49.8401H44.9746V52.5495V52.5512Z" fill="white"/>
</g>
<defs>
<clipPath id="clip0_104_444">
<rect width="56" height="52" fill="white" transform="translate(26.5643 30.3372)"/>
</clipPath>
</defs>
</svg>
