<svg width="110" height="110" viewBox="0 0 110 110" fill="none" xmlns="http://www.w3.org/2000/svg">
<circle cx="54.811" cy="54.7863" r="54.4787" fill="#0000FF"/>
<g clip-path="url(#clip0_541_47)">
<path d="M56.4216 29.2861C57.3382 29.413 58.2601 29.5191 59.1741 29.6692C62.1519 30.1609 64.9458 31.1703 67.5481 32.6948C67.8847 32.8915 68.0711 32.8656 68.3378 32.5886C69.2467 31.644 70.1866 30.7252 71.1162 29.8012C71.2302 29.6899 71.3519 29.5864 71.5253 29.4285C73.0764 35.5133 74.6093 41.5256 76.1655 47.6311C70.0779 46.0808 64.0525 44.546 57.9882 43.0009C59.1327 41.8621 60.2435 40.7569 61.4294 39.5793C57.592 38.0445 53.8219 37.8064 50.0078 38.9814C46.2066 40.1539 43.2029 42.4444 40.9994 45.7573C38.7803 49.096 38.0372 52.8101 38.3246 56.845C35.2614 56.1799 32.2862 55.5354 29.311 54.891C29.311 54.526 29.311 54.1611 29.311 53.7962C29.3395 53.6357 29.3835 53.4778 29.3913 53.3173C29.5544 50.1701 30.2587 47.142 31.6104 44.3001C35.4167 36.3001 41.6804 31.4136 50.3832 29.6847C51.3232 29.4984 52.2812 29.4155 53.2315 29.2861C54.2958 29.2861 55.3574 29.2861 56.4216 29.2861Z" fill="white"/>
<path d="M41.6338 76.6835C40.466 77.8507 39.3086 79.0128 38.0605 80.2629C36.4862 74.1497 34.9377 68.1321 33.3634 62.0059C39.4717 63.5744 45.4945 65.1221 51.5355 66.6724C50.4376 67.7594 49.3682 68.818 48.2729 69.905C52.4418 71.9083 59.1897 72.1593 64.6428 68.0027C69.5859 64.2343 71.673 59.1356 71.3389 52.9292C72.4834 53.1621 73.5502 53.377 74.6171 53.5944C76.3882 53.9541 78.1567 54.3242 79.9304 54.671C80.2049 54.7254 80.3188 54.803 80.3085 55.111C80.1816 59.485 79.1562 63.6235 76.9268 67.4023C72.877 74.2713 66.9215 78.5081 59.0498 79.8902C53.0089 80.954 47.2993 79.8462 41.9575 76.8388C41.8591 76.7818 41.7503 76.7404 41.6312 76.6835H41.6338Z" fill="white"/>
</g>
<defs>
<clipPath id="clip0_541_47">
<rect width="51" height="51" fill="white" transform="translate(29.311 29.2861)"/>
</clipPath>
</defs>
</svg>
