<svg width="49" height="26" viewBox="0 0 49 26" fill="none" xmlns="http://www.w3.org/2000/svg">
<path d="M27.4583 0.946479C28.0165 0.415065 28.7593 0.121278 29.53 0.127109C30.3007 0.13294 31.0389 0.437935 31.589 0.977734C32.1391 1.51753 32.458 2.24992 32.4783 3.02034C32.4987 3.79077 32.219 4.53898 31.6982 5.1071L15.8879 24.8799C15.616 25.1728 15.2879 25.4077 14.9231 25.5709C14.5584 25.734 14.1645 25.8219 13.765 25.8292C13.3655 25.8366 12.9686 25.7634 12.598 25.6139C12.2275 25.4644 11.8909 25.2417 11.6084 24.9592L1.12361 14.4744C0.83163 14.2024 0.597438 13.8743 0.435008 13.5097C0.272578 13.1452 0.185237 12.7516 0.178197 12.3526C0.171156 11.9536 0.24456 11.5572 0.394029 11.1872C0.543499 10.8171 0.765971 10.4809 1.04817 10.1987C1.33038 9.91654 1.66653 9.69407 2.03658 9.5446C2.40663 9.39513 2.803 9.32173 3.20203 9.32877C3.60106 9.33581 3.99459 9.42315 4.35914 9.58558C4.72369 9.74801 5.05178 9.9822 5.32386 10.2742L13.6213 18.5677L27.3791 1.03365L27.4583 0.946479ZM23.8128 21.3137L27.4583 24.9592C27.7408 25.2411 28.0771 25.4633 28.4473 25.6124C28.8175 25.7615 29.2139 25.8346 29.6129 25.8272C30.0119 25.8198 30.4054 25.7321 30.7698 25.5694C31.1342 25.4066 31.462 25.1721 31.7339 24.8799L47.5521 5.1071C47.8363 4.82656 48.061 4.49163 48.2128 4.12232C48.3647 3.75301 48.4405 3.35688 48.4359 2.9576C48.4312 2.55833 48.3461 2.16408 48.1857 1.79841C48.0253 1.43274 47.7929 1.10314 47.5022 0.829305C47.2116 0.555469 46.8688 0.343006 46.4943 0.204605C46.1197 0.0662052 45.7211 0.00470467 45.3222 0.0237782C44.9234 0.0428517 44.5325 0.142109 44.1728 0.315619C43.8132 0.489129 43.4922 0.733335 43.229 1.03365L29.4673 18.5677L27.5455 16.6419L23.8128 21.3137Z" fill="#C0C0C0"/>
</svg>
