<svg width="49" height="26" viewBox="0 0 49 26" fill="none" xmlns="http://www.w3.org/2000/svg">
<path d="M27.4544 0.946479C28.0126 0.415065 28.7554 0.121278 29.5261 0.127109C30.2968 0.13294 31.035 0.437935 31.5851 0.977734C32.1352 1.51753 32.4541 2.24992 32.4744 3.02034C32.4948 3.79077 32.2151 4.53898 31.6943 5.1071L15.884 24.8799C15.6121 25.1728 15.284 25.4077 14.9192 25.5709C14.5545 25.734 14.1606 25.8219 13.7611 25.8292C13.3616 25.8366 12.9647 25.7634 12.5941 25.6139C12.2236 25.4644 11.887 25.2417 11.6045 24.9592L1.11971 14.4744C0.827724 14.2024 0.593532 13.8743 0.431102 13.5097C0.268671 13.1452 0.181331 12.7516 0.174291 12.3526C0.16725 11.9536 0.240654 11.5572 0.390123 11.1872C0.539592 10.8171 0.762065 10.4809 1.04427 10.1987C1.32647 9.91654 1.66263 9.69407 2.03268 9.5446C2.40272 9.39513 2.79909 9.32173 3.19812 9.32877C3.59716 9.33581 3.99069 9.42315 4.35523 9.58558C4.71978 9.74801 5.04788 9.9822 5.31995 10.2742L13.6174 18.5677L27.3752 1.03365L27.4544 0.946479ZM23.8089 21.3137L27.4544 24.9592C27.7369 25.2411 28.0732 25.4633 28.4434 25.6124C28.8136 25.7615 29.21 25.8346 29.609 25.8272C30.008 25.8198 30.4015 25.7321 30.7659 25.5694C31.1303 25.4066 31.4581 25.1721 31.73 24.8799L47.5482 5.1071C47.8324 4.82656 48.0571 4.49163 48.2089 4.12232C48.3608 3.75301 48.4366 3.35688 48.432 2.9576C48.4273 2.55833 48.3422 2.16408 48.1818 1.79841C48.0214 1.43274 47.789 1.10314 47.4983 0.829305C47.2077 0.555469 46.8649 0.343006 46.4903 0.204605C46.1158 0.0662052 45.7172 0.00470467 45.3183 0.0237782C44.9195 0.0428517 44.5286 0.142109 44.1689 0.315619C43.8093 0.489129 43.4883 0.733335 43.2251 1.03365L29.4634 18.5677L27.5416 16.6419L23.8089 21.3137Z" fill="#0000FF"/>
</svg>
