<svg width="110" height="110" viewBox="0 0 110 110" fill="none" xmlns="http://www.w3.org/2000/svg">
<circle cx="54.9193" cy="55.0002" r="54.4787" fill="#0000FF"/>
<path d="M28.2434 29.875C23.4354 29.875 19.5414 33.7886 19.5414 38.6178C19.5414 43.4471 23.4354 47.3638 28.2434 47.3638C33.0515 47.3638 36.9424 43.4471 36.9424 38.6178C36.9424 33.7886 33.0484 29.875 28.2434 29.875ZM28.2434 42.0905C26.3361 42.0905 24.7882 40.5348 24.7882 38.6178C24.7882 36.7009 26.3361 35.1483 28.2434 35.1483C30.1508 35.1483 31.6956 36.7009 31.6956 38.6178C31.6956 40.5348 30.1478 42.0905 28.2434 42.0905Z" fill="white"/>
<mask id="path-3-inside-1_154_63" fill="white">
<rect x="18.5777" y="47.3638" width="19.3284" height="32.7611" rx="1"/>
</mask>
<rect x="18.5777" y="47.3638" width="19.3284" height="32.7611" rx="1" stroke="white" stroke-width="12" mask="url(#path-3-inside-1_154_63)"/>
<path d="M81.5982 29.875C76.7902 29.875 72.8962 33.7886 72.8962 38.6178C72.8962 43.4471 76.7902 47.3638 81.5982 47.3638C86.4063 47.3638 90.2972 43.4471 90.2972 38.6178C90.2972 33.7886 86.4032 29.875 81.5982 29.875ZM81.5982 42.0905C79.6908 42.0905 78.143 40.5348 78.143 38.6178C78.143 36.7009 79.6908 35.1483 81.5982 35.1483C83.5056 35.1483 85.0504 36.7009 85.0504 38.6178C85.0504 40.5348 83.5025 42.0905 81.5982 42.0905Z" fill="white"/>
<mask id="path-5-inside-2_154_63" fill="white">
<rect x="71.9325" y="47.3638" width="19.3284" height="32.7611" rx="1"/>
</mask>
<rect x="71.9325" y="47.3638" width="19.3284" height="32.7611" rx="1" stroke="white" stroke-width="12" mask="url(#path-5-inside-2_154_63)"/>
<path d="M54.9214 23.4209C48.4449 23.4209 43.1997 28.6926 43.1997 35.1976C43.1997 41.7026 48.4449 46.9784 54.9214 46.9784C61.3978 46.9784 66.6389 41.7026 66.6389 35.1976C66.6389 28.6926 61.3937 23.4209 54.9214 23.4209ZM54.9214 39.8752C52.3521 39.8752 50.2672 37.7798 50.2672 35.1976C50.2672 32.6154 52.3521 30.524 54.9214 30.524C57.4906 30.524 59.5714 32.6154 59.5714 35.1976C59.5714 37.7798 57.4865 39.8752 54.9214 39.8752Z" fill="white"/>
<mask id="path-7-inside-3_154_63" fill="white">
<rect x="41.972" y="46.978" width="25.8946" height="39.6015" rx="1"/>
</mask>
<rect x="41.972" y="46.978" width="25.8946" height="39.6015" rx="1" stroke="white" stroke-width="14" mask="url(#path-7-inside-3_154_63)"/>
</svg>
