<svg width="110" height="110" viewBox="0 0 110 110" fill="none" xmlns="http://www.w3.org/2000/svg">
<circle cx="54.6125" cy="54.6203" r="54.4787" fill="#0000FF"/>
<g clip-path="url(#clip0_124_75)">
<path d="M41.7189 74.5486C33.5579 74.5486 26.9165 67.8717 26.9165 59.6625V49.829H33.0947V59.6625C33.0947 64.4433 36.9629 68.3334 41.7169 68.3334C46.4709 68.3334 50.3391 64.4433 50.3391 59.6625V50.73C50.3411 41.9262 57.464 34.7651 66.2182 34.7651C74.9725 34.7651 82.0933 41.9283 82.0933 50.73V58.0423H75.9152V50.73C75.9152 45.3525 71.5655 40.9782 66.2182 40.9782C60.871 40.9782 56.5213 45.3525 56.5213 50.73V59.6625C56.5213 67.8696 49.882 74.5486 41.7189 74.5486Z" fill="white"/>
<path d="M30.5084 55.5293C24.7772 55.5293 20.1125 50.8404 20.1125 45.0747C20.1125 39.3091 24.7772 34.6201 30.5084 34.6201C36.2396 34.6201 40.9042 39.3111 40.9042 45.0747C40.9042 50.8383 36.2396 55.5293 30.5084 55.5293ZM30.5084 40.8332C28.1842 40.8332 26.2907 42.7353 26.2907 45.0747C26.2907 47.4141 28.1822 49.3162 30.5084 49.3162C32.8346 49.3162 34.726 47.4141 34.726 45.0747C34.726 42.7353 32.8346 40.8332 30.5084 40.8332Z" fill="white"/>
<path d="M78.7167 74.6201C72.9835 74.6201 68.3209 69.9291 68.3209 64.1655C68.3209 58.4019 72.9855 53.7109 78.7167 53.7109C84.4479 53.7109 89.1126 58.4019 89.1126 64.1655C89.1126 69.9291 84.4479 74.6201 78.7167 74.6201ZM78.7167 59.924C76.3926 59.924 74.4991 61.8262 74.4991 64.1655C74.4991 66.5049 76.3905 68.407 78.7167 68.407C81.0429 68.407 82.9344 66.5049 82.9344 64.1655C82.9344 61.8262 81.0429 59.924 78.7167 59.924Z" fill="white"/>
</g>
<defs>
<clipPath id="clip0_124_75">
<rect width="69" height="40" fill="white" transform="translate(20.1125 34.6201)"/>
</clipPath>
</defs>
</svg>
