<svg width="28" height="28" viewBox="0 0 28 28" fill="none" xmlns="http://www.w3.org/2000/svg">
<path d="M5.447 3.95195L10.8948 9.39825C11.7317 8.87313 12.6998 8.59459 13.6878 8.59459C14.6758 8.59459 15.6438 8.87313 16.4807 9.39825L21.9251 3.95429C19.612 2.02829 16.6972 0.973633 13.6872 0.973633C10.6772 0.973633 7.76238 2.02829 5.44935 3.95429M23.5799 5.60667L18.1332 11.0541C18.6582 11.8909 18.9366 12.8586 18.9366 13.8463C18.9366 14.8341 18.6582 15.8018 18.1332 16.6385L23.5787 22.0837C25.5048 19.7708 26.5596 16.8561 26.5596 13.8463C26.5596 10.8365 25.5048 7.92189 23.5787 5.60901M21.9251 23.7384L16.4796 18.2921C15.6427 18.8172 14.6747 19.0958 13.6866 19.0958C12.6986 19.0958 11.7306 18.8172 10.8937 18.2921L5.447 23.7396C7.76012 25.6659 10.6752 26.7207 13.6854 26.7207C16.6957 26.7207 19.6108 25.6659 21.9239 23.7396M3.79335 22.0837L9.23883 16.6362C8.71391 15.7995 8.43548 14.8317 8.43548 13.844C8.43548 12.8563 8.71391 11.8885 9.23883 11.0518L3.79335 5.60667C1.86723 7.91955 0.8125 10.8342 0.8125 13.844C0.8125 16.8538 1.86723 19.7684 3.79335 22.0813" stroke="#D0D0D0" stroke-width="1.5"/>
</svg>
