<svg width="23" height="22" viewBox="0 0 23 22" fill="none" xmlns="http://www.w3.org/2000/svg">
<path d="M11.8516 6.59058V11.0521L14.64 13.8406" stroke="#D0D0D0" stroke-width="1.5" stroke-linecap="round" stroke-linejoin="round"/>
<path d="M2.16309 11.5522C2.28642 13.9432 3.28999 16.2114 4.99121 17.9126C6.69245 19.6138 8.96062 20.6164 11.3516 20.7397V21.4146C8.78198 21.2907 6.34313 20.2157 4.51562 18.3882C2.68815 16.5607 1.61318 14.1218 1.48926 11.5522H2.16309ZM16.5986 20.2769C15.3149 20.9389 13.8769 21.3411 12.3516 21.4136V20.7397C13.7146 20.6717 15.0467 20.3152 16.2617 19.6938L16.5986 20.2769ZM22.2139 11.5522C22.1445 13.0335 21.756 14.4815 21.0762 15.7993L20.4932 15.4624C21.1146 14.2474 21.472 12.9153 21.54 11.5522H22.2139ZM19.5322 4.07666C21.1504 5.85827 22.098 8.14829 22.2139 10.5522H21.541C21.4263 8.3271 20.5481 6.20866 19.0557 4.5542L19.5322 4.07666ZM5.64551 5.00537L5.64258 5.67822L4.85059 5.67432L5.44727 5.07764C5.48647 5.0554 5.52461 5.03158 5.56152 5.00537H5.64551ZM12.3516 0.693848C14.6665 0.827192 16.9508 1.73309 18.7881 3.40576L18.3486 3.84717C16.6943 2.35529 14.5763 1.47751 12.3516 1.36279V0.693848ZM3.63086 3.11377L2.95996 3.78467L2.95605 2.99268L3.62988 2.98877L3.63086 3.11377ZM11.3516 1.35693C9.19231 1.44526 7.06469 2.25255 5.35547 3.77783L4.91504 3.3335C6.68991 1.73461 8.96506 0.799959 11.3516 0.687988V1.35693Z" fill="black" fill-opacity="0.25" stroke="#D0D0D0"/>
</svg>
