<svg width="110" height="110" viewBox="0 0 110 110" fill="none" xmlns="http://www.w3.org/2000/svg">
<circle cx="54.5531" cy="55.0002" r="54.4787" fill="#0000FF"/>
<rect x="28.1318" y="41.8247" width="43.2211" height="35.9609" stroke="white" stroke-width="8"/>
<path d="M75.3529 68.9265C76.6164 68.9265 77.8675 68.6776 79.0348 68.1941C80.2022 67.7106 81.2628 67.0019 82.1563 66.1085C83.0497 65.215 83.7584 64.1544 84.2419 62.987C84.7255 61.8197 84.9743 60.5686 84.9743 59.3051C84.9743 58.0415 84.7255 56.7904 84.2419 55.6231C83.7584 54.4558 83.0497 53.3951 82.1563 52.5017C81.2628 51.6082 80.2022 50.8995 79.0348 50.416C77.8675 49.9325 76.6164 49.6836 75.3529 49.6836" stroke="white" stroke-width="8"/>
<path d="M59.3638 37.8358C59.3638 36.5723 59.1149 35.3212 58.6314 34.1538C58.1479 32.9865 57.4392 31.9259 56.5457 31.0324C55.6523 30.139 54.5916 29.4303 53.4243 28.9467C52.257 28.4632 51.0058 28.2144 49.7423 28.2144C48.4788 28.2144 47.2277 28.4632 46.0604 28.9467C44.893 29.4303 43.8324 30.139 42.9389 31.0324C42.0455 31.9259 41.3368 32.9865 40.8533 34.1538C40.3697 35.3212 40.1209 36.5723 40.1209 37.8358" stroke="white" stroke-width="8"/>
<rect x="53.2749" y="53.6924" width="22.078" height="11.2417" fill="#0000FF"/>
<rect x="44.1256" y="59.9028" width="22.078" height="11.2367" transform="rotate(-90 44.1256 59.9028)" fill="#0000FF"/>
</svg>
