<svg width="23" height="26" viewBox="0 0 23 26" fill="none" xmlns="http://www.w3.org/2000/svg">
<path d="M15.8224 6.60024H7.13756M15.8224 11.7615H7.13756M15.8224 16.9228H10.0325M1.34766 1.43896H21.6123V24.6647L20.1185 23.524C19.5938 23.1232 18.9256 22.9029 18.2346 22.9029C17.5436 22.9029 16.8754 23.1232 16.3507 23.524L14.8569 24.6647L13.3646 23.524C12.8398 23.1229 12.1713 22.9023 11.48 22.9023C10.7886 22.9023 10.1201 23.1229 9.59537 23.524L8.10302 24.6647L6.60923 23.524C6.08455 23.1232 5.41634 22.9029 4.72534 22.9029C4.03434 22.9029 3.36612 23.1232 2.84145 23.524L1.34766 24.6647V1.43896Z" stroke="#D0D0D0" stroke-width="1.5" stroke-linecap="round" stroke-linejoin="round"/>
</svg>
