<svg width="26" height="22" viewBox="0 0 26 22" fill="none" xmlns="http://www.w3.org/2000/svg">
<path d="M0.914063 10.8472C0.914063 6.40777 0.914062 4.18749 2.29379 2.80893C3.67353 1.43038 5.89264 1.4292 10.332 1.4292H15.041C19.4804 1.4292 21.7007 1.4292 23.0793 2.80893C24.4578 4.18866 24.459 6.40777 24.459 10.8472C24.459 15.2866 24.459 17.5068 23.0793 18.8854C21.6995 20.264 19.4804 20.2651 15.041 20.2651H10.332C5.89264 20.2651 3.67235 20.2651 2.29379 18.8854C0.91524 17.5057 0.914063 15.2866 0.914063 10.8472Z" stroke="#D0D0D0" stroke-width="1.5"/>
<path d="M5.62305 6.13818L8.16472 8.25723C10.3273 10.0584 11.408 10.959 12.6865 10.959C13.965 10.959 15.0469 10.0584 17.2083 8.25605L19.75 6.13818" stroke="#D0D0D0" stroke-width="1.5" stroke-linecap="round"/>
</svg>
