<svg width="109" height="109" viewBox="0 0 109 109" fill="none" xmlns="http://www.w3.org/2000/svg">
<circle cx="54.4787" cy="54.4787" r="54.4787" fill="#0000FF"/>
<g clip-path="url(#clip0_667_70)">
<path d="M75.8573 52.2893C78.2411 52.9775 80.5109 53.6329 82.7678 54.2845C83.0059 64.4083 76.4531 77.1478 62.8271 81.5774C49.4913 85.9128 35.0477 80.0614 28.4539 67.7707C21.8804 55.5171 24.9257 40.2469 35.5738 31.5433C46.5606 22.5632 63.0697 22.5485 74.1401 33.2282C74.6719 32.6966 75.2087 32.1605 75.7445 31.6244C76.2403 31.1277 76.7311 30.626 77.232 30.1344C78.1181 29.2638 79.0677 29.5172 79.4131 30.7251C80.5951 34.8578 81.7693 38.9923 82.9469 43.1262C83.2631 44.2355 83.5669 45.3488 83.901 46.4531C84.0571 46.9695 84.0616 47.4403 83.6623 47.8401C83.2591 48.2438 82.7773 48.2112 82.2714 48.0659C78.8223 47.0737 75.371 46.0888 71.9214 45.0994C70.1424 44.5892 68.3629 44.0807 66.5867 43.5598C65.3703 43.2033 65.1294 42.2781 66.0184 41.3788C67.0505 40.3336 68.0956 39.3009 69.1333 38.2647C64.1439 32.8621 54.1067 29.5971 44.571 34.0177C35.0685 38.4224 29.9145 49.3898 32.6459 59.6127C35.3958 69.9049 44.9669 76.7745 55.5376 75.972C61.5653 75.5142 66.6058 72.9497 70.5585 68.3631C74.4944 63.7956 76.192 58.4324 75.8573 52.2899V52.2893Z" fill="white"/>
<path d="M51.6058 40.1035H56.2077V42.6257C59.481 43.7064 61.7238 45.6255 62.0461 49.35C60.5283 49.35 59.0885 49.3545 57.6492 49.3399C57.5537 49.3387 57.4016 49.2109 57.3735 49.1141C56.9984 47.8087 55.9505 47.3498 54.787 47.1178C53.5448 46.8706 52.3493 47.0733 51.3115 47.856C50.1519 48.7306 50.1671 49.9869 51.3357 50.8558C52.1275 51.4443 53.0383 51.652 54.0109 51.6774C56.7002 51.7467 59.0194 52.6634 60.6917 54.8444C62.8975 57.722 62.3207 61.5518 59.3221 63.7772C58.4123 64.4524 57.3314 64.8956 56.2139 65.5083V67.87H51.6423V65.3557C48.3819 64.284 46.1177 62.3734 45.7875 58.6798H50.3524C51.0161 61.2184 54.8566 61.5371 56.6047 60.0606C57.6638 59.1658 57.6385 57.9827 56.5244 57.1397C55.6967 56.5141 54.7392 56.3181 53.72 56.2967C51.6164 56.2528 49.7201 55.5973 48.127 54.2019C44.5802 51.0957 45.2136 45.9499 49.4331 43.5645C49.979 43.2559 50.5787 43.0334 51.1723 42.8245C51.5036 42.708 51.6294 42.5548 51.6148 42.2C51.5867 41.5248 51.6063 40.8474 51.6063 40.1035H51.6058Z" fill="white"/>
</g>
<defs>
<clipPath id="clip0_667_70">
<rect width="59" height="58" fill="white" transform="translate(25 25)"/>
</clipPath>
</defs>
</svg>
