<svg width="23" height="24" viewBox="0 0 23 24" fill="none" xmlns="http://www.w3.org/2000/svg">
<path d="M22.156 5.56073L12.6498 0.356083C12.4275 0.233331 12.1777 0.168945 11.9238 0.168945C11.6699 0.168945 11.4202 0.233331 11.1979 0.356083L1.6917 5.56073C1.45383 5.69088 1.25533 5.88258 1.11697 6.11577C0.97862 6.34896 0.905501 6.61505 0.905273 6.8862V17.2177C0.905501 17.4889 0.97862 17.7549 1.11697 17.9881C1.25533 18.2213 1.45383 18.413 1.6917 18.5432L11.1979 23.7478C11.4202 23.8704 11.67 23.9347 11.9238 23.9347C12.1777 23.9347 12.4274 23.8704 12.6498 23.7478L22.156 18.5432C22.3938 18.413 22.5923 18.2213 22.7307 17.9881C22.869 17.7549 22.9422 17.4889 22.9424 17.2177V6.8862C22.9422 6.61505 22.869 6.34896 22.7307 6.11577C22.5923 5.88258 22.3938 5.69088 22.156 5.56073ZM11.8158 1.49251C11.8476 1.47511 11.8833 1.46599 11.9195 1.46599C11.9558 1.46599 11.9914 1.47511 12.0232 1.49251L21.053 6.43465L17.3867 8.44068L8.25638 3.44344L11.8158 1.49251ZM11.2757 22.3143L2.3096 17.4068C2.27647 17.3876 2.24901 17.3601 2.23003 17.3268C2.21105 17.2936 2.20123 17.256 2.20157 17.2177V7.5862L11.2757 12.5554V22.3143ZM2.79463 6.43465L6.90714 4.18233L16.0363 9.17957L11.9238 11.4297L2.79463 6.43465ZM21.6461 17.2177C21.6464 17.256 21.6366 17.2936 21.6176 17.3268C21.5986 17.3601 21.5712 17.3876 21.5381 17.4068L12.572 22.3143V12.5532L16.4609 10.424V14.6446C16.4609 14.8165 16.5292 14.9813 16.6507 15.1029C16.7723 15.2244 16.9371 15.2927 17.109 15.2927C17.2809 15.2927 17.4458 15.2244 17.5673 15.1029C17.6889 14.9813 17.7572 14.8165 17.7572 14.6446V9.71537L21.6461 7.5862V17.2177Z" fill="#D0D0D0"/>
</svg>
