<svg width="110" height="110" viewBox="0 0 110 110" fill="none" xmlns="http://www.w3.org/2000/svg">
<circle cx="55.1168" cy="54.7477" r="54.4787" fill="#0000FF"/>
<path d="M88.9742 61.0791H57.5463L46.717 50.2441V47.6492L46.7114 18.8218L60.1496 32.2544V47.6492H60.0192L60.1496 47.7852V47.6492H75.5444L88.9742 61.0791Z" fill="white"/>
<path d="M60.1496 47.6499V47.7859L60.0192 47.6499H60.1496Z" fill="white"/>
<path d="M60.1496 47.6499V47.7859L60.0192 47.6499H60.1496Z" fill="white"/>
<path d="M70.0437 79.9324L59.3003 90.6729L43.5864 74.9562L32.8403 64.2129L45.2099 51.8404V51.7544L56.0365 62.5893H55.9477L54.3297 64.2184L70.0437 79.9324Z" fill="white"/>
<path d="M42.2237 76.3218L37.4751 81.0621L26.7346 70.3215L31.4776 65.5757L42.2237 76.3218Z" fill="white"/>
</svg>
