<svg width="22" height="22" viewBox="0 0 22 22" fill="none" xmlns="http://www.w3.org/2000/svg">
<path fill-rule="evenodd" clip-rule="evenodd" d="M2.67383 7.18433V2.68433H7.17383V7.18433H2.67383ZM0.423828 1.93433C0.423828 1.5365 0.581863 1.15497 0.863168 0.873666C1.14447 0.592361 1.526 0.434326 1.92383 0.434326H7.92383C8.32165 0.434326 8.70318 0.592361 8.98449 0.873666C9.26579 1.15497 9.42383 1.5365 9.42383 1.93433V7.93433C9.42383 8.33215 9.26579 8.71368 8.98449 8.99499C8.70318 9.27629 8.32165 9.43433 7.92383 9.43433H1.92383C1.526 9.43433 1.14447 9.27629 0.863168 8.99499C0.581863 8.71368 0.423828 8.33215 0.423828 7.93433V1.93433ZM12.4238 2.30933C12.4238 2.01096 12.5424 1.72481 12.7533 1.51383C12.9643 1.30285 13.2505 1.18433 13.5488 1.18433H20.2988C20.5972 1.18433 20.8833 1.30285 21.0943 1.51383C21.3053 1.72481 21.4238 2.01096 21.4238 2.30933C21.4238 2.60769 21.3053 2.89384 21.0943 3.10482C20.8833 3.3158 20.5972 3.43433 20.2988 3.43433H13.5488C13.2505 3.43433 12.9643 3.3158 12.7533 3.10482C12.5424 2.89384 12.4238 2.60769 12.4238 2.30933ZM13.5488 6.43433C13.2505 6.43433 12.9643 6.55285 12.7533 6.76383C12.5424 6.97481 12.4238 7.26096 12.4238 7.55933C12.4238 7.85769 12.5424 8.14384 12.7533 8.35482C12.9643 8.5658 13.2505 8.68433 13.5488 8.68433H20.2988C20.5972 8.68433 20.8833 8.5658 21.0943 8.35482C21.3053 8.14384 21.4238 7.85769 21.4238 7.55933C21.4238 7.26096 21.3053 6.97481 21.0943 6.76383C20.8833 6.55285 20.5972 6.43433 20.2988 6.43433H13.5488ZM2.67383 14.6843V19.1843H7.17383V14.6843H2.67383ZM1.92383 12.4343C1.526 12.4343 1.14447 12.5924 0.863168 12.8737C0.581863 13.155 0.423828 13.5365 0.423828 13.9343V19.9343C0.423828 20.3322 0.581863 20.7137 0.863168 20.995C1.14447 21.2763 1.526 21.4343 1.92383 21.4343H7.92383C8.32165 21.4343 8.70318 21.2763 8.98449 20.995C9.26579 20.7137 9.42383 20.3322 9.42383 19.9343V13.9343C9.42383 13.5365 9.26579 13.155 8.98449 12.8737C8.70318 12.5924 8.32165 12.4343 7.92383 12.4343H1.92383ZM13.5488 13.1843C13.2505 13.1843 12.9643 13.3029 12.7533 13.5138C12.5424 13.7248 12.4238 14.011 12.4238 14.3093C12.4238 14.6077 12.5424 14.8938 12.7533 15.1048C12.9643 15.3158 13.2505 15.4343 13.5488 15.4343H20.2988C20.5972 15.4343 20.8833 15.3158 21.0943 15.1048C21.3053 14.8938 21.4238 14.6077 21.4238 14.3093C21.4238 14.011 21.3053 13.7248 21.0943 13.5138C20.8833 13.3029 20.5972 13.1843 20.2988 13.1843H13.5488ZM13.5488 18.4343C13.2505 18.4343 12.9643 18.5529 12.7533 18.7638C12.5424 18.9748 12.4238 19.261 12.4238 19.5593C12.4238 19.8577 12.5424 20.1438 12.7533 20.3548C12.9643 20.5658 13.2505 20.6843 13.5488 20.6843H20.2988C20.5972 20.6843 20.8833 20.5658 21.0943 20.3548C21.3053 20.1438 21.4238 19.8577 21.4238 19.5593C21.4238 19.261 21.3053 18.9748 21.0943 18.7638C20.8833 18.5529 20.5972 18.4343 20.2988 18.4343H13.5488Z" fill="#BFBFBF"/>
</svg>
