<svg width="110" height="110" viewBox="0 0 110 110" fill="none" xmlns="http://www.w3.org/2000/svg">
<circle cx="54.5632" cy="55.3356" r="54.4787" fill="#0000FF"/>
<path d="M52.118 47.5H51.618V48V57.8516C50.0209 58.4991 48.6783 59.6567 47.8029 61.1488C46.8671 62.7436 46.5253 64.6179 46.8379 66.4403C47.1505 68.2627 48.0973 69.916 49.511 71.1079C50.9246 72.2997 52.7142 72.9534 54.5632 72.9534C56.4123 72.9534 58.2018 72.2997 59.6155 71.1079C61.0292 69.916 61.976 68.2627 62.2885 66.4403C62.6011 64.6179 62.2593 62.7436 61.3236 61.1488C60.4481 59.6567 59.1055 58.4991 57.5085 57.8516V48V47.5H57.0085H52.118ZM52.618 65.1166C52.618 64.6007 52.8229 64.1059 53.1877 63.7411C53.5525 63.3763 54.0473 63.1713 54.5632 63.1713C55.0791 63.1713 55.5739 63.3763 55.9387 63.7411C56.3035 64.1059 56.5085 64.6007 56.5085 65.1166C56.5085 65.6325 56.3035 66.1273 55.9387 66.492C55.5739 66.8568 55.0791 67.0618 54.5632 67.0618C54.0473 67.0618 53.5525 66.8568 53.1877 66.492C52.8229 66.1273 52.618 65.6325 52.618 65.1166Z" fill="white" stroke="white"/>
<path d="M71.6794 58.281H72.1794V57.781V55.3358C72.1794 50.6636 70.3234 46.1828 67.0196 42.879C63.7159 39.5753 59.2351 37.7192 54.5629 37.7192C49.8907 37.7192 45.4098 39.5753 42.1061 42.879C38.8023 46.1828 36.9463 50.6636 36.9463 55.3358V57.781V58.281H37.4463H42.3367H42.8367V57.781V55.3358C42.8367 52.2258 44.0722 49.2433 46.2712 47.0442C48.4703 44.8451 51.4529 43.6097 54.5629 43.6097C57.6728 43.6097 60.6554 44.8451 62.8545 47.0442C65.0535 49.2433 66.289 52.2258 66.289 55.3358V57.781V58.281H66.789H71.6794Z" fill="white" stroke="white"/>
<path d="M54.563 82.7332C69.6939 82.7332 81.9604 70.4666 81.9604 55.3357C81.9604 40.2048 69.6939 27.9382 54.563 27.9382C39.4321 27.9382 27.1655 40.2048 27.1655 55.3357C27.1655 70.4666 39.4321 82.7332 54.563 82.7332ZM62.7934 75.2056C60.184 76.2864 57.3873 76.8427 54.563 76.8427C48.859 76.8427 43.3886 74.5768 39.3552 70.5434C35.3219 66.5101 33.056 61.0397 33.056 55.3357C33.056 49.6317 35.3219 44.1613 39.3552 40.1279C43.3886 36.0946 48.859 33.8287 54.563 33.8287C57.3873 33.8287 60.184 34.385 62.7934 35.4658C65.4027 36.5466 67.7736 38.1308 69.7707 40.1279C71.7679 42.125 73.3521 44.496 74.4329 47.1053C75.5137 49.7147 76.07 52.5114 76.07 55.3357C76.07 58.16 75.5137 60.9567 74.4329 63.5661C73.3521 66.1754 71.7679 68.5463 69.7707 70.5434C67.7736 72.5406 65.4027 74.1248 62.7934 75.2056Z" fill="white" stroke="white"/>
</svg>
