<svg width="110" height="110" viewBox="0 0 110 110" fill="none" xmlns="http://www.w3.org/2000/svg">
<circle cx="55.3918" cy="55.0002" r="54.4787" fill="#0000FF"/>
<g clip-path="url(#clip0_154_65)">
<path d="M55.94 27C46.8681 27 39.521 34.3935 39.521 43.5168C39.521 52.6401 46.8681 60.0393 55.94 60.0393C65.0119 60.0393 72.3533 52.6401 72.3533 43.5168C72.3533 34.3935 65.0061 27 55.94 27ZM55.94 50.0772C52.3411 50.0772 49.4207 47.1383 49.4207 43.5168C49.4207 39.8952 52.3411 36.9621 55.94 36.9621C59.5388 36.9621 62.4536 39.8952 62.4536 43.5168C62.4536 47.1383 59.5331 50.0772 55.94 50.0772Z" fill="white"/>
<path d="M28.7072 66.2297L44.5916 50.2451H66.5181L82.6842 66.5073V82.0001H34.9218L44.8905 71.9744H72.8247V70.5165L60.8554 58.4717H50.5935L28.6842 80.5249L28.7072 66.2297Z" fill="white"/>
</g>
<defs>
<clipPath id="clip0_154_65">
<rect width="54" height="55" fill="white" transform="translate(28.6842 27)"/>
</clipPath>
</defs>
</svg>
