<svg width="109" height="110" viewBox="0 0 109 110" fill="none" xmlns="http://www.w3.org/2000/svg">
<circle cx="54.518" cy="54.8884" r="54.4787" fill="#0000FF"/>
<path d="M54.4391 62.4651C56.7252 62.5515 58.9455 62.4553 61.112 62.7562C65.0483 63.3023 68.2176 65.2145 70.3377 68.7012C71.5662 70.7219 71.4985 71.8607 69.891 73.6203C67.9271 75.7709 65.4774 77.213 62.775 78.163C54.4574 81.0883 46.772 79.9336 39.8319 74.3668C39.5377 74.1308 39.2728 73.8526 39.0208 73.5706C37.6495 72.036 37.4835 70.8304 38.4813 69.0383C40.5245 65.3696 43.7804 63.3887 47.8022 62.7697C50.0066 62.4308 52.2805 62.5484 54.4391 62.4639V62.4651Z" fill="white"/>
<path d="M61.4141 60.2264C63.1333 58.8872 64.4149 57.3544 65.1106 55.4514C65.5683 54.1992 65.8143 52.8521 66.0083 51.5258C66.0974 50.9148 66.3263 50.7579 66.8371 50.7554C68.256 50.7481 69.6755 50.7229 71.0945 50.7401C73.6705 50.7714 76.2721 50.6132 78.8164 50.9221C83.2392 51.459 86.6324 53.7181 88.6958 57.7951C89.2402 58.8713 89.1974 59.9396 88.5072 60.8908C87.9708 61.6299 87.3415 62.3372 86.6342 62.9109C82.7546 66.0593 78.2818 67.6534 73.311 67.844C73.0431 67.8544 72.6391 67.6975 72.5109 67.4879C70.0411 63.4502 66.4093 61.1776 61.8327 60.3104C61.7442 60.2938 61.6564 60.2754 61.4135 60.227L61.4141 60.2264Z" fill="white"/>
<path d="M47.5007 60.2565C44.5756 60.7278 41.9807 61.8414 39.7281 63.7187C38.4795 64.7588 37.4346 65.9711 36.5845 67.3629C36.4441 67.5928 36.0969 67.8496 35.8546 67.8404C30.6336 67.6467 25.9478 66.0048 21.9602 62.5432C21.5867 62.219 21.2736 61.8249 20.9386 61.4571C19.7808 60.1866 19.6869 58.769 20.5046 57.3201C22.1372 54.4273 24.5655 52.4409 27.7213 51.4805C29.1274 51.0521 30.6348 50.8131 32.1044 50.7702C35.3896 50.674 38.6796 50.7671 41.9679 50.7537C42.6843 50.7506 42.9639 50.9479 43.0115 51.741C43.2043 54.9268 44.572 57.5635 46.9448 59.6792C47.1034 59.8207 47.2646 59.9586 47.4232 60.1002C47.4391 60.1143 47.4446 60.1413 47.5013 60.2565H47.5007Z" fill="white"/>
<path d="M63.6099 51.011C63.6013 55.976 59.549 59.9966 54.577 59.9745C49.3432 59.9506 45.4056 55.9883 45.4276 50.7659C45.4483 45.8033 49.5794 41.7668 54.6246 41.7803C59.5179 41.7938 63.619 46.0068 63.6105 51.011H63.6099Z" fill="white"/>
<path d="M36.6645 48.2078C31.6876 48.2255 27.5468 44.1412 27.54 39.2081C27.5327 34.0102 31.4294 30.0705 36.5931 30.0552C41.7787 30.0399 45.6809 33.9268 45.7114 39.137C45.7401 44.0812 41.642 48.1906 36.6645 48.2084V48.2078Z" fill="white"/>
<path d="M72.3504 48.2077C67.3662 48.1912 63.2871 44.0959 63.3145 39.1358C63.3438 33.9176 67.2301 30.0436 72.4237 30.0552C77.5873 30.0675 81.4956 34.0175 81.4791 39.2087C81.4639 44.1523 77.3334 48.2243 72.3504 48.2077Z" fill="white"/>
</svg>
