<svg width="110" height="110" viewBox="0 0 110 110" fill="none" xmlns="http://www.w3.org/2000/svg">
<circle cx="55.0361" cy="54.676" r="54.4787" fill="#0000FF"/>
<path d="M69.8156 67.819C69.8156 66.0522 69.8156 64.2871 69.8156 62.5203C69.8156 59.5216 67.8024 57.5049 64.8055 57.5032H45.2649C42.2697 57.5049 40.2565 59.5234 40.2565 62.5238C40.2565 64.2889 40.2565 66.0557 40.2565 67.8208V77.6245C39.5685 77.6245 38.5179 77.6228 38.2152 77.621H37.6855V82.0328H72.4588V77.6175C72.4588 77.6175 70.5178 77.6245 69.8174 77.6263V67.8208L69.8156 67.819ZM64.7562 61.9132C65.3898 61.9132 65.4074 61.9308 65.4074 62.5608C65.4074 65.1987 65.4074 67.8331 65.4074 70.4693V77.5999H44.663V62.5537C44.663 61.9378 44.663 61.9132 45.323 61.9132H64.7545H64.7562Z" fill="white"/>
<path d="M79.4346 70.4426C79.3818 69.3691 79.3202 68.3167 79.1389 67.2662C77.7223 59.1307 73.2806 53.0489 65.9353 49.1914C65.9441 49.1738 65.9529 49.1562 65.9617 49.1369C66.1341 48.7849 66.2978 48.4541 66.4403 48.0968C67.2762 45.9974 67.3361 43.8294 67.2956 42.1769C67.2903 41.9534 67.3255 41.9042 67.4663 41.8056C68.8108 40.8677 69.9071 39.6041 70.7237 38.052C72.0312 35.5707 72.5609 32.8413 72.3427 29.7106C72.2318 28.1022 71.4117 27.3191 69.8367 27.3191H62.7202C60.2899 27.3191 57.8579 27.3191 55.4276 27.3226C54.8187 27.3226 54.1852 27.356 53.5464 27.4212C48.3392 27.9526 43.8131 32.1902 43.0212 37.2795C42.8293 38.5078 42.817 39.7643 42.8029 40.9785C42.7977 41.5329 42.7906 42.1065 42.7677 42.6644C42.6657 45.165 43.1162 47.3032 44.1439 49.1826C44.0841 49.2125 44.0242 49.2442 43.9644 49.2759C35.5949 53.8619 31.1109 60.9837 30.6393 70.4426L30.6112 70.9969H35.0317L35.0634 70.4232C35.1127 69.5064 35.1637 68.5578 35.3362 67.6656C36.656 60.7497 40.5768 55.722 46.993 52.718C47.0299 52.7004 47.0493 52.6969 47.0493 52.6952C47.0581 52.6969 47.0845 52.7075 47.1461 52.7427C47.1461 52.7427 47.4857 52.9503 47.63 53.0401C48.1615 53.3674 48.7088 53.7053 49.2737 54.008L49.3775 54.1083H49.4778C50.3507 54.5113 51.2605 54.8227 52.1826 55.0339C53.1469 55.2574 54.1254 55.37 55.0897 55.37C56.2547 55.37 57.4215 55.2046 58.5565 54.879C60.0048 54.4637 61.4267 53.7792 62.787 52.8465L62.8134 52.8271C62.9137 52.7497 62.9877 52.7092 63.0352 52.7092C63.0651 52.7092 63.1214 52.7198 63.2252 52.7708C70.5846 56.4083 74.5565 62.3722 75.0263 70.4971L75.0545 70.9951H79.461L79.4346 70.4408V70.4426ZM52.5433 44.3045C54.3964 44.3045 56.2494 44.3045 58.1007 44.3028C58.3348 44.3028 58.5688 44.3063 58.8029 44.308C59.0422 44.3116 59.2798 44.3133 59.5191 44.3133C60.0347 44.3133 60.4342 44.2992 60.809 44.2711C61.4355 44.2236 62.062 44.118 62.6674 44.0141C62.7448 44.0018 62.8205 43.9878 62.8979 43.9754C62.8944 44.6002 62.773 45.2601 62.5336 45.9763L62.5055 46.059V46.0696C61.8368 48.3186 60.0066 50.96 55.1073 50.96C49.2138 50.96 47.6934 47.3313 47.308 45.151C47.2534 44.887 47.213 44.6019 47.1918 44.3028H52.5433V44.3045ZM54.7976 39.9174C53.4936 39.9174 52.1896 39.9121 50.8856 39.9068C49.6503 39.9015 48.4149 39.8963 47.1795 39.8963C47.0704 36.3873 49.6274 32.9944 53.1786 32.0423C53.8913 31.8505 54.5759 31.752 55.2129 31.7467C57.7646 31.7291 60.3181 31.7273 62.2591 31.7273C63.2323 31.7273 67.0158 31.7291 67.9362 31.7291C67.9925 33.202 67.6599 34.5694 66.9454 35.7995C65.4091 38.4462 63.1425 39.8153 60.2107 39.8734C58.6163 39.9033 56.897 39.9174 54.7994 39.9174H54.7976Z" fill="white"/>
</svg>
