<svg width="201" height="201" viewBox="0 0 201 201" fill="none" xmlns="http://www.w3.org/2000/svg">
<mask id="mask0_332_357" style="mask-type:alpha" maskUnits="userSpaceOnUse" x="0" y="0" width="201" height="201">
<circle cx="100.959" cy="100.485" r="100" fill="#F4F7FE"/>
</mask>
<g mask="url(#mask0_332_357)">
<circle cx="100.959" cy="100.485" r="100" fill="#F4F7FE"/>
</g>
<path d="M100.958 45.9597C85.9011 45.9597 73.6955 58.1653 73.6955 73.2225C73.6955 88.2797 85.9011 100.485 100.958 100.485C116.016 100.485 128.221 88.2797 128.221 73.2225C128.221 58.1653 116.016 45.9597 100.958 45.9597ZM68.9246 111.39C65.8521 111.39 62.9054 112.611 60.7325 114.783C58.5597 116.955 57.3386 119.902 57.3379 122.974V125.022C57.3379 135.259 62.6323 142.925 70.7512 147.868C78.7391 152.729 89.4698 155.011 100.958 155.011C112.447 155.011 123.177 152.729 131.165 147.868C139.284 142.925 144.579 135.259 144.579 125.022V122.974C144.578 119.902 143.357 116.955 141.184 114.783C139.011 112.611 136.065 111.39 132.992 111.39H68.9246Z" fill="#0000FF" fill-opacity="0.3"/>
</svg>
