<?xml version="1.0" encoding="utf-8"?>
<!-- Generator: Adobe Illustrator 27.8.1, SVG Export Plug-In . SVG Version: 6.00 Build 0)  -->
<svg version="1.1" id="Layer_1" xmlns="http://www.w3.org/2000/svg" xmlns:xlink="http://www.w3.org/1999/xlink" x="0px" y="0px"
	 viewBox="0 0 96 96" style="enable-background:new 0 0 96 96;" xml:space="preserve">
<style type="text/css">
	.st0{fill:#0000FF;}
	.st1{fill:#FFFFFF;}
</style>
<g>
	<circle class="st0" cx="48" cy="48" r="48"/>
	<g>
		<path class="st1" d="M30.35,53.76c-0.15-0.44-0.27-0.89-0.38-1.34c-0.18-0.73-0.83-1.23-1.57-1.23c-0.5,0-0.97,0.23-1.28,0.62
			c-0.31,0.39-0.42,0.9-0.3,1.38c0.19,0.78,0.43,1.56,0.7,2.31c0.92,2.51,2.28,4.81,4.06,6.85c0.32,0.37,0.66,0.73,1.01,1.08
			C36.7,67.54,42.18,69.8,48,69.8c5.82,0,11.3-2.27,15.42-6.39c2.84-2.84,4.83-6.38,5.77-10.23c0.12-0.49,0.01-0.99-0.3-1.38
			c-0.31-0.39-0.78-0.62-1.28-0.62c-0.75,0-1.4,0.51-1.58,1.23C64,60.75,56.58,66.57,48,66.57c-5.32,0-10.4-2.3-13.93-6.31
			C32.38,58.35,31.13,56.16,30.35,53.76z"/>
		<path class="st1" d="M69.19,42.81c-0.7-2.87-1.95-5.52-3.73-7.88c-0.62-0.82-1.3-1.61-2.04-2.35c-1.15-1.16-2.44-2.18-3.81-3.05
			C56.15,27.35,52.14,26.2,48,26.2c-5.82,0-11.3,2.27-15.42,6.39c-2.84,2.84-4.83,6.38-5.77,10.23c-0.12,0.49-0.01,0.99,0.3,1.38
			c0.31,0.39,0.78,0.62,1.28,0.62c0.75,0,1.4-0.51,1.57-1.23c2.04-8.33,9.46-14.15,18.03-14.15c3.28,0,6.5,0.87,9.32,2.51
			c2.19,1.27,4.07,2.95,5.58,4.99c1.49,2,2.54,4.23,3.13,6.64c0.18,0.73,0.83,1.24,1.58,1.24c0.5,0,0.97-0.23,1.28-0.62
			C69.2,43.8,69.31,43.3,69.19,42.81z"/>
		<path class="st1" d="M19.38,62.51c-2.3-4.52-3.47-9.4-3.47-14.51c0-17.69,14.39-32.09,32.09-32.09c6.25,0,12.25,1.78,17.45,5.17
			l-3.79,0.39L62,24.7l9.14-0.95v-8.71H67.9v3.77c-1.93-1.32-4-2.45-6.15-3.36c-4.36-1.84-8.98-2.78-13.75-2.78
			c-4.77,0-9.4,0.93-13.75,2.78c-4.21,1.78-7.98,4.33-11.23,7.57c-3.24,3.25-5.79,7.02-7.57,11.23c-1.84,4.36-2.78,8.98-2.78,13.75
			c0,4.77,0.93,9.4,2.78,13.75c0.38,0.89,0.79,1.77,1.23,2.61l0.36,0.69l2.58-2.08L19.38,62.51z"/>
		<path class="st1" d="M80.55,34.25L80.55,34.25c-1.19-2.8-2.73-5.44-4.58-7.83l-0.4-0.52l-2.53,2.05l0.38,0.5
			c4.36,5.65,6.67,12.42,6.67,19.56c0,17.69-14.39,32.09-32.09,32.09c-8.7,0-17.04-3.57-23.09-9.83l4.02-0.43l-0.34-3.22l-8.99,0.96
			v8.56h3.24V72.8c0.06,0.06,0.12,0.12,0.18,0.18c3.25,3.25,7.02,5.79,11.23,7.57c4.36,1.84,8.98,2.78,13.75,2.78
			c4.77,0,9.4-0.93,13.75-2.78c4.21-1.78,7.98-4.33,11.23-7.57c3.25-3.25,5.79-7.02,7.57-11.23c1.84-4.36,2.78-8.98,2.78-13.75
			C83.33,43.23,82.39,38.6,80.55,34.25z"/>
		<path class="st1" d="M36.12,50.54l2.17,2.24l2.6,2.69l2.37,2.46c0.78,0.8,1.82,1.24,2.93,1.24h0.02c1.12,0,2.16-0.45,2.94-1.27
			l4.88-5.12l6.38-6.7c0.27-0.29,0.5-0.61,0.67-0.94c0.76-1.49,0.56-3.35-0.63-4.63l-0.42-0.45c-0.01-0.01-0.02-0.02-0.03-0.04
			c-0.78-0.82-1.86-1.28-2.99-1.27c-1.16,0.01-2.26,0.52-3.04,1.39l-4.45,5l-3.53,3.97l-3.76-3.97l-0.22-0.24
			c-0.03-0.03-0.06-0.06-0.09-0.09c-0.78-0.77-1.85-1.2-2.95-1.18c-1.15,0.02-2.23,0.53-2.99,1.39c-0.03,0.04-0.07,0.08-0.1,0.12
			c-1.11,1.37-1.19,3.31-0.27,4.77C35.76,50.13,35.93,50.34,36.12,50.54z"/>
	</g>
</g>
</svg>
