<svg width="110" height="110" viewBox="0 0 110 110" fill="none" xmlns="http://www.w3.org/2000/svg">
<circle cx="54.5643" cy="54.6203" r="54.4787" fill="#0000FF"/>
<g clip-path="url(#clip0_124_95)">
<path d="M56.1748 29.1201C57.0915 29.2469 58.0133 29.3531 58.9273 29.5032C61.9051 29.9949 64.699 31.0043 67.3013 32.5287C67.6379 32.7254 67.8244 32.6996 68.0911 32.4226C68.9999 31.4779 69.9399 30.5591 70.8695 29.6352C70.9834 29.5239 71.1051 29.4203 71.2786 29.2625C72.8296 35.3473 74.3625 41.3596 75.9187 47.4651C69.8311 45.9148 63.8057 44.38 57.7414 42.8349C58.8859 41.6961 59.9967 40.5909 61.1827 39.4133C57.3452 37.8785 53.5751 37.6404 49.761 38.8154C45.9598 39.9879 42.9562 42.2784 40.7526 45.5913C38.5336 48.93 37.7904 52.644 38.0778 56.679C35.0146 56.0139 32.0394 55.3694 29.0643 54.7249C29.0643 54.36 29.0643 53.9951 29.0643 53.6301C29.0928 53.4697 29.1368 53.3118 29.1445 53.1513C29.3077 50.0041 30.012 46.9759 31.3636 44.1341C35.17 36.1341 41.4336 31.2476 50.1365 29.5187C51.0764 29.3323 52.0345 29.2495 52.9848 29.1201C54.049 29.1201 55.1106 29.1201 56.1748 29.1201Z" fill="white"/>
<path d="M41.387 76.5175C40.2192 77.6847 39.0618 78.8468 37.8137 80.0969C36.2394 73.9836 34.691 67.9661 33.1166 61.8399C39.2249 63.4083 45.2478 64.9561 51.2888 66.5064C50.1909 67.5934 49.1215 68.652 48.0262 69.739C52.195 71.7423 58.9429 71.9933 64.3961 67.8367C69.3392 64.0683 71.4262 58.9696 71.0922 52.7632C72.2367 52.9961 73.3035 53.2109 74.3703 53.4283C76.1414 53.7881 77.9099 54.1582 79.6837 54.505C79.9581 54.5594 80.0721 54.637 80.0617 54.945C79.9348 59.319 78.9094 63.4575 76.68 67.2363C72.6302 74.1053 66.6747 78.3421 58.8031 79.7242C52.7621 80.7879 47.0526 79.6802 41.7107 76.6727C41.6123 76.6158 41.5036 76.5744 41.3845 76.5175H41.387Z" fill="white"/>
</g>
<defs>
<clipPath id="clip0_124_95">
<rect width="51" height="51" fill="white" transform="translate(29.0643 29.1201)"/>
</clipPath>
</defs>
</svg>
