<svg width="110" height="110" viewBox="0 0 110 110" fill="none" xmlns="http://www.w3.org/2000/svg">
<circle cx="55.1168" cy="55.0309" r="54.4787" fill="#0000FF"/>
<path d="M50.3685 59.3157C42.5497 51.4968 42.5497 38.7733 50.3685 30.9545C58.1874 23.1356 70.9109 23.1356 78.7297 30.9545C86.5486 38.7733 86.5486 51.4968 78.7297 59.3157C70.9109 67.1345 58.1874 67.1345 50.3685 59.3157ZM73.8882 35.796C68.7381 30.6458 60.3578 30.6458 55.2076 35.796C50.0574 40.9462 50.0574 49.3264 55.2076 54.4766C60.3578 59.6268 68.7381 59.6268 73.8882 54.4766C79.0384 49.3264 79.0384 40.9462 73.8882 35.796Z" fill="white"/>
<path d="M47.093 57.7516L42.2723 62.5723L47.1119 67.4119L51.9326 62.5912L47.093 57.7516Z" fill="white"/>
<path d="M46.9719 68.8618L40.8245 62.7144C40.1724 62.0623 39.1152 62.0623 38.4631 62.7144L23.4236 77.7539C22.7715 78.406 22.7715 79.4632 23.4236 80.1153L29.571 86.2627C30.2231 86.9148 31.2803 86.9148 31.9324 86.2627L46.9719 71.2232C47.624 70.5711 47.624 69.5139 46.9719 68.8618Z" fill="white"/>
</svg>
