<svg width="110" height="110" viewBox="0 0 110 110" fill="none" xmlns="http://www.w3.org/2000/svg">
<circle cx="54.8835" cy="55.123" r="54.4787" fill="#0000FF"/>
<path d="M24.8469 26.7454V60.6748H39.8916V53.4124H33.7206V34.0077H57.4182V53.4124H51.2471V60.6748H66.2919V26.7454H24.8469Z" fill="white"/>
<path d="M49.276 53.3501H41.863V65.7704H49.276V53.3501Z" fill="white"/>
<path d="M53.6001 67.2471H37.54V72.337H53.6001V67.2471Z" fill="white"/>
<rect x="54.3652" y="48.5022" width="24.5623" height="33.5422" fill="#0000FF"/>
<path d="M69.6475 76.8611H64.5503V83.5007H69.6475V76.8611Z" fill="white"/>
<path d="M49.2759 43.7102V83.4907H62.9188V76.9421H56.5392V50.2606H77.6603V76.9421H71.2772V83.4907H84.9202V43.7102H49.2759Z" fill="white"/>
<path d="M67.0982 74.2649C68.7303 74.2649 70.0534 72.9682 70.0534 71.3688C70.0534 69.7693 68.7303 68.4727 67.0982 68.4727C65.4661 68.4727 64.1431 69.7693 64.1431 71.3688C64.1431 72.9682 65.4661 74.2649 67.0982 74.2649Z" fill="white"/>
</svg>
