<?xml version="1.0" encoding="utf-8"?>
<!-- Generator: Adobe Illustrator 27.8.1, SVG Export Plug-In . SVG Version: 6.00 Build 0)  -->
<svg version="1.1" id="Layer_1" xmlns="http://www.w3.org/2000/svg" xmlns:xlink="http://www.w3.org/1999/xlink" x="0px" y="0px"
	 viewBox="0 0 82.62 82.76" style="enable-background:new 0 0 82.62 82.76;" xml:space="preserve">
<style type="text/css">
	.st0{fill:#FFFFFF;}
</style>
<g id="TW3Owa_00000034811749511152761590000011152098533668598965_">
	<g>
		<g>
			<path class="st0" d="M40.16,2.71c0.81,0,1.61,0,2.42,0c0.11,0.02,0.22,0.04,0.32,0.05c0.6,0.04,1.21,0.08,1.81,0.12
				c1.27,0.1,2.52,0.27,3.77,0.51c2.97,0.56,5.84,1.45,8.59,2.69c5.79,2.61,10.66,6.4,14.61,11.37c3.26,4.1,5.59,8.68,6.99,13.74
				c0.42,1.5,0.74,3.03,0.96,4.57c0.14,0.98,0.28,1.95,0.3,2.94c0,0.09,0.03,0.18,0.05,0.26c0,1.63,0,3.26,0,4.89
				c-0.02,0.1-0.05,0.19-0.05,0.29c-0.01,0.21-0.01,0.42-0.03,0.63c-0.11,1.13-0.25,2.26-0.45,3.38c-0.4,2.26-1,4.46-1.8,6.6
				c-3.87,10.41-12.07,18.72-22.42,22.73c-3.72,1.44-7.57,2.28-11.55,2.51c-0.09,0.01-0.18,0.03-0.26,0.05c-1.37,0-2.74,0-4.11,0
				c-0.08-0.02-0.15-0.04-0.23-0.05c-1.3-0.07-2.59-0.22-3.87-0.43c-1.86-0.3-3.69-0.73-5.49-1.31c-8.85-2.83-16.43-8.77-21.3-16.69
				c-2.29-3.72-3.91-7.71-4.84-11.98c-0.39-1.8-0.66-3.62-0.78-5.46C2.78,43.76,2.77,43.38,2.74,43c-0.01-0.18-0.01-0.36-0.1-0.53
				c0-0.7,0-1.41,0-2.11c0.1-0.2,0.1-0.41,0.11-0.62c0.03-0.82,0.1-1.63,0.18-2.44c0.13-1.24,0.32-2.47,0.58-3.7
				c0.62-2.97,1.56-5.83,2.86-8.57c3.18-6.69,7.88-12.07,14.09-16.11c4.92-3.2,10.31-5.15,16.13-5.9c1.05-0.13,2.1-0.22,3.16-0.26
				C39.89,2.76,40.03,2.78,40.16,2.71z M75.76,41.54c0.01-1.65-0.1-3.16-0.3-4.67c-0.18-1.33-0.42-2.64-0.76-3.94
				c-1.56-6-4.52-11.21-8.86-15.63c-5.71-5.81-13.52-9.67-22.37-10.22c-1.51-0.09-3.02-0.08-4.53,0.03
				c-1.29,0.09-2.56,0.26-3.83,0.49c-2.41,0.45-4.75,1.15-7.01,2.1C17.04,14.36,9.03,24.59,7.34,36.55c-0.18,1.3-0.3,2.6-0.33,3.91
				c-0.06,2.09,0.08,4.17,0.4,6.23c0.25,1.58,0.6,3.14,1.07,4.67c1.43,4.66,3.74,8.83,6.93,12.51c3.81,4.39,8.43,7.63,13.86,9.7
				c2.28,0.87,4.64,1.48,7.05,1.84c1.11,0.16,2.22,0.28,3.33,0.33c1.33,0.06,2.66,0.06,3.99-0.03c1.08-0.07,2.14-0.19,3.21-0.36
				c1.82-0.29,3.61-0.72,5.36-1.32c7.28-2.49,13.12-6.89,17.51-13.21c3.38-4.87,5.33-10.28,5.91-16.19
				C75.72,43.57,75.78,42.49,75.76,41.54z"/>
			<path class="st0" d="M33.56,47.32c0.11-0.1,0.19-0.18,0.28-0.27c5.4-5.4,10.8-10.8,16.19-16.19c1.92-1.92,3.85-3.84,5.77-5.77
				c0.5-0.5,1.07-0.88,1.73-1.14c2.85-1.11,6.05,0.64,6.61,3.64c0.3,1.64-0.13,3.09-1.27,4.32c-0.07,0.07-0.14,0.14-0.21,0.21
				c-8.51,8.51-17.02,17.02-25.53,25.53c-0.48,0.48-1.02,0.87-1.66,1.14c-1.8,0.76-3.89,0.37-5.3-0.98c-0.05-0.05-0.1-0.1-0.15-0.15
				c-3.33-3.33-6.66-6.67-10-10c-0.47-0.47-0.84-1-1.1-1.61c-1.2-2.87,0.49-6.11,3.55-6.72c1.63-0.33,3.09,0.1,4.33,1.23
				c0.11,0.1,0.22,0.21,0.32,0.32c2.06,2.06,4.12,4.12,6.17,6.17C33.38,47.14,33.46,47.22,33.56,47.32z"/>
		</g>
	</g>
</g>
</svg>
