<?xml version="1.0" encoding="utf-8"?>
<!-- Generator: Adobe Illustrator 27.3.1, SVG Export Plug-In . SVG Version: 6.00 Build 0)  -->
<svg version="1.1" id="Layer_1" xmlns="http://www.w3.org/2000/svg" xmlns:xlink="http://www.w3.org/1999/xlink" x="0px" y="0px"
	 viewBox="0 0 82.6 82.8" style="enable-background:new 0 0 82.6 82.8;" xml:space="preserve">
<style type="text/css">
	.st0{fill:#1F2937;}
</style>
<g id="TW3Owa_00000034811749511152761590000011152098533668598965_">
	<g>
		<g>
			<path class="st0" d="M40.2,2.7c0.8,0,1.6,0,2.4,0c0.1,0,0.2,0,0.3,0c0.6,0,1.2,0.1,1.8,0.1C46,3,47.2,3.1,48.5,3.4
				c3,0.6,5.8,1.5,8.6,2.7c5.8,2.6,10.7,6.4,14.6,11.4c3.3,4.1,5.6,8.7,7,13.7c0.4,1.5,0.7,3,1,4.6c0.1,1,0.3,2,0.3,2.9
				c0,0.1,0,0.2,0.1,0.3c0,1.6,0,3.3,0,4.9c0,0.1-0.1,0.2-0.1,0.3c0,0.2,0,0.4,0,0.6c-0.1,1.1-0.2,2.3-0.4,3.4
				c-0.4,2.3-1,4.5-1.8,6.6c-3.9,10.4-12.1,18.7-22.4,22.7c-3.7,1.4-7.6,2.3-11.5,2.5c-0.1,0-0.2,0-0.3,0.1c-1.4,0-2.7,0-4.1,0
				c-0.1,0-0.2,0-0.2-0.1c-1.3-0.1-2.6-0.2-3.9-0.4c-1.9-0.3-3.7-0.7-5.5-1.3c-8.9-2.8-16.4-8.8-21.3-16.7c-2.3-3.7-3.9-7.7-4.8-12
				c-0.4-1.8-0.7-3.6-0.8-5.5c0-0.4,0-0.7-0.1-1.1c0-0.2,0-0.4-0.1-0.5c0-0.7,0-1.4,0-2.1c0.1-0.2,0.1-0.4,0.1-0.6
				c0-0.8,0.1-1.6,0.2-2.4c0.1-1.2,0.3-2.5,0.6-3.7c0.6-3,1.6-5.8,2.9-8.6C9.6,18.3,14.2,13,20.5,8.9C25.4,5.7,30.8,3.8,36.6,3
				c1-0.1,2.1-0.2,3.2-0.3C39.9,2.8,40,2.8,40.2,2.7z M75.8,41.5c0-1.7-0.1-3.2-0.3-4.7c-0.2-1.3-0.4-2.6-0.8-3.9
				c-1.6-6-4.5-11.2-8.9-15.6c-5.7-5.8-13.5-9.7-22.4-10.2c-1.5-0.1-3-0.1-4.5,0c-1.3,0.1-2.6,0.3-3.8,0.5c-2.4,0.4-4.8,1.1-7,2.1
				C17,14.4,9,24.6,7.3,36.5C7.2,37.8,7,39.1,7,40.5c-0.1,2.1,0.1,4.2,0.4,6.2c0.2,1.6,0.6,3.1,1.1,4.7c1.4,4.7,3.7,8.8,6.9,12.5
				c3.8,4.4,8.4,7.6,13.9,9.7c2.3,0.9,4.6,1.5,7,1.8c1.1,0.2,2.2,0.3,3.3,0.3c1.3,0.1,2.7,0.1,4,0c1.1-0.1,2.1-0.2,3.2-0.4
				c1.8-0.3,3.6-0.7,5.4-1.3c7.3-2.5,13.1-6.9,17.5-13.2c3.4-4.9,5.3-10.3,5.9-16.2C75.7,43.6,75.8,42.5,75.8,41.5z"/>
			<path class="st0" d="M33.6,47.3c0.1-0.1,0.2-0.2,0.3-0.3c5.4-5.4,10.8-10.8,16.2-16.2c1.9-1.9,3.8-3.8,5.8-5.8
				c0.5-0.5,1.1-0.9,1.7-1.1c2.8-1.1,6,0.6,6.6,3.6c0.3,1.6-0.1,3.1-1.3,4.3c-0.1,0.1-0.1,0.1-0.2,0.2c-8.5,8.5-17,17-25.5,25.5
				c-0.5,0.5-1,0.9-1.7,1.1c-1.8,0.8-3.9,0.4-5.3-1c0,0-0.1-0.1-0.1-0.2c-3.3-3.3-6.7-6.7-10-10c-0.5-0.5-0.8-1-1.1-1.6
				c-1.2-2.9,0.5-6.1,3.5-6.7c1.6-0.3,3.1,0.1,4.3,1.2c0.1,0.1,0.2,0.2,0.3,0.3c2.1,2.1,4.1,4.1,6.2,6.2
				C33.4,47.1,33.5,47.2,33.6,47.3z"/>
		</g>
	</g>
</g>
</svg>
