<svg width="110" height="110" viewBox="0 0 110 110" fill="none" xmlns="http://www.w3.org/2000/svg">
<circle cx="54.9999" cy="54.676" r="54.4787" fill="#0000FF"/>
<path d="M75.5658 38.8295C71.4716 33.5079 65.9795 30.2059 59.2378 29.0173C58.64 28.9125 58.044 28.8421 57.4679 28.7752C57.2096 28.7445 56.9532 28.7156 56.6967 28.6831L56.6209 28.6741H53.3611L53.2798 28.6849C52.9963 28.7247 52.7127 28.7608 52.4292 28.7969C51.8043 28.8764 51.1577 28.9595 50.5148 29.0733C45.0697 30.0325 40.3398 32.5253 36.4515 36.4866C32.4856 40.5275 30.0565 45.4571 29.2366 51.1345C29.1752 51.5644 29.1246 51.9943 29.0759 52.4098C29.0542 52.5995 29.0307 52.7891 29.009 52.9788L29 53.0511V56.3061L29.0108 56.3874C29.0506 56.6746 29.0867 56.9636 29.1228 57.2527C29.2023 57.8921 29.2853 58.5533 29.4063 59.2126C30.4845 65.1411 33.3272 70.1809 37.8584 74.191C41.7828 77.6629 46.3701 79.7637 51.4937 80.432C52.7398 80.5946 53.9823 80.6777 55.1887 80.6777C60.8397 80.6777 66.0536 78.893 70.6842 75.3724C76.2087 71.1708 79.5588 65.6107 80.6388 58.8441C81.8163 51.4723 80.1096 44.7399 75.5676 38.8367L75.5658 38.8295ZM54.9991 34.1546C60.4749 34.1564 65.6292 36.3042 69.5139 40.1987C73.3913 44.0878 75.5206 49.2378 75.5062 54.6985C75.4791 65.9973 66.2793 75.1899 54.9865 75.1899C49.5125 75.1881 44.36 73.0403 40.4753 69.144C36.596 65.2531 34.4667 60.1049 34.4794 54.6443C34.5047 43.3454 43.7044 34.1546 54.9901 34.1546" fill="white"/>
<path d="M52.254 42.1187C52.254 46.3059 52.254 50.6376 52.2666 54.897C52.2666 55.4425 52.5177 56.0458 52.9023 56.4342C55.4921 59.0462 58.1361 61.6889 60.6934 64.245L62.0064 65.5564C62.0949 65.6449 62.1888 65.7316 62.2755 65.8093L62.3603 65.8888L63.2019 66.6763L67.1625 62.7005L66.1349 61.8696C66.0861 61.8298 66.0337 61.7901 65.9796 61.7504C65.92 61.7052 65.8513 61.6528 65.8224 61.6239C65.0133 60.8165 64.2061 60.0072 63.397 59.1998C61.5531 57.3555 59.6477 55.4479 57.7623 53.5801C57.746 53.5639 57.7352 53.5512 57.728 53.544C57.7262 53.5296 57.7244 53.5043 57.7244 53.4591C57.7334 49.85 57.7334 46.1831 57.7316 42.6353V37.9966H52.2504V42.1151L52.254 42.1187Z" fill="white"/>
</svg>
