<?xml version="1.0" encoding="utf-8"?>
<!-- Generator: Adobe Illustrator 27.8.1, SVG Export Plug-In . SVG Version: 6.00 Build 0)  -->
<svg version="1.1" id="Layer_1" xmlns="http://www.w3.org/2000/svg" xmlns:xlink="http://www.w3.org/1999/xlink" x="0px" y="0px"
	 viewBox="0 0 96 96" style="enable-background:new 0 0 96 96;" xml:space="preserve">
<style type="text/css">
	.st0{fill:#0000FF;}
	.st1{fill:#FFFFFF;}
</style>
<circle class="st0" cx="48" cy="48" r="48"/>
<g>
	<path class="st1" d="M32.71,54.96c0,3.06-2.49,5.54-5.54,5.54s-5.54-2.49-5.54-5.54s2.48-5.54,5.54-5.54h5.54L32.71,54.96
		L32.71,54.96z"/>
	<path class="st1" d="M35.5,54.96c0-3.06,2.49-5.54,5.54-5.54c3.06,0,5.54,2.48,5.54,5.54v13.87c0,3.06-2.48,5.54-5.54,5.54
		s-5.54-2.48-5.54-5.54c0,0,0,0,0-0.01V54.96z"/>
	<path class="st1" d="M41.04,32.72c-3.06,0-5.54-2.49-5.54-5.54s2.49-5.54,5.54-5.54s5.54,2.48,5.54,5.54v5.54L41.04,32.72
		L41.04,32.72z"/>
	<path class="st1" d="M41.04,35.51c3.06,0,5.54,2.49,5.54,5.54s-2.48,5.54-5.54,5.54H27.17c-3.06,0-5.54-2.49-5.54-5.54
		c0-3.06,2.48-5.54,5.54-5.54H41.04z"/>
	<path class="st1" d="M63.28,41.04c0-3.06,2.49-5.54,5.54-5.54s5.54,2.49,5.54,5.54s-2.48,5.54-5.54,5.54h-5.54L63.28,41.04
		L63.28,41.04z"/>
	<path class="st1" d="M60.49,41.04c0,3.06-2.49,5.54-5.54,5.54s-5.54-2.48-5.54-5.54V27.17c0-3.06,2.48-5.54,5.54-5.54
		c3.06,0,5.54,2.48,5.54,5.54c0,0,0,0,0,0.01V41.04z"/>
	<path class="st1" d="M54.96,63.28c3.06,0,5.54,2.49,5.54,5.54s-2.49,5.54-5.54,5.54s-5.54-2.48-5.54-5.54v-5.54L54.96,63.28
		L54.96,63.28z"/>
	<path class="st1" d="M54.96,60.49c-3.06,0-5.54-2.49-5.54-5.54s2.48-5.54,5.54-5.54h13.87c3.06,0,5.54,2.48,5.54,5.54
		c0,3.06-2.48,5.54-5.54,5.54c0,0,0,0-0.01,0H54.96z"/>
</g>
</svg>
