<svg width="110" height="110" viewBox="0 0 110 110" fill="none" xmlns="http://www.w3.org/2000/svg">
<circle cx="54.8834" cy="54.9958" r="54.4787" fill="#0000FF"/>
<path d="M63.0997 81.6895H46.6377V87.9954H63.0997V81.6895Z" fill="white"/>
<path d="M87.8835 51.8071H76.5248V58.1547H87.8835V51.8071Z" fill="white"/>
<path d="M46.6377 77.8468V75.2171C46.6353 73.9917 46.6328 72.7271 46.6451 71.4796C46.6451 71.4233 46.6426 71.3914 46.6402 71.3743C46.6279 71.3645 46.6034 71.3449 46.5544 71.3203C39.7254 67.5535 36.3624 61.7647 36.561 54.1206C36.7914 45.2218 44.0076 37.5876 52.9862 36.742C53.5917 36.6857 54.2044 36.6562 54.8099 36.6562C64.0434 36.6562 71.7131 43.3126 73.049 52.486C73.5907 56.1989 72.9411 59.9633 71.1763 63.3724C69.409 66.7815 66.6956 69.5068 63.3252 71.2493C63.0826 71.3743 63.0826 71.3988 63.085 71.6169C63.112 72.9673 63.1071 74.3397 63.1022 75.6705C63.1022 76.1803 63.0997 76.6925 63.0997 77.2047V77.8493H46.6377V77.8468ZM56.7537 71.5164V71.313C56.7537 70.6807 56.7537 70.068 56.7537 69.4553C56.7537 69.2984 56.7389 69.1171 56.7193 68.9235C56.6679 68.3598 56.609 67.7201 56.9645 67.23C57.315 66.7496 57.9106 66.5805 58.4376 66.431C58.6386 66.3746 58.8273 66.3207 58.9842 66.257C63.8326 64.2669 66.4701 60.7084 66.8206 55.6843C67.051 52.3732 65.9357 49.2141 63.6757 46.7928C61.4182 44.3714 58.2415 42.9842 54.9594 42.9842C54.126 42.9842 53.2828 43.0724 52.4543 43.2489C47.7971 44.2341 44.7479 47.0354 43.3924 51.5743C42.0663 56.0225 43.108 60.0516 46.4906 63.5538C47.851 64.9605 49.6085 65.9604 52.0205 66.7006C52.7019 66.9089 53.0181 67.35 52.9887 68.0485C52.9666 68.5803 52.9715 69.1318 52.9764 69.6661C52.9764 69.8964 52.9813 70.1293 52.9813 70.3596V71.5164H56.7512H56.7537Z" fill="white"/>
<path d="M29.0997 33.4997L33.4088 29.2378L41.3236 37.1514L37.0365 41.4428L29.0997 33.4997Z" fill="white"/>
<path d="M68.355 37.0704L76.2918 29.1494L80.6647 33.6001L72.7842 41.4696L68.355 37.0704Z" fill="white"/>
<path d="M58.0086 21.9956H51.7385V33.3207H58.0086V21.9956Z" fill="white"/>
<path d="M33.2078 51.8413H21.8834V58.108H33.2078V51.8413Z" fill="white"/>
<path d="M47.2823 87.3513V82.3345H62.455V87.3513H47.2823Z" fill="white"/>
<path d="M87.2388 57.5101H77.1669V52.4517H87.2388V57.5101Z" fill="white"/>
<path d="M62.4551 77.2048H47.2824C47.2824 76.9867 47.2824 76.7661 47.2824 76.5455C47.2824 74.8594 47.275 73.1757 47.2897 71.4895C47.2922 71.1391 47.2015 70.9455 46.8657 70.7617C40.3284 67.1541 37.012 61.6055 37.2056 54.1428C37.4287 45.5307 44.4537 38.1979 53.0475 37.3867C62.6438 36.4799 71.0243 43.0554 72.4117 52.5816C73.473 59.8728 69.6566 67.2521 63.0286 70.6808C62.5997 70.9038 62.4306 71.1342 62.4404 71.6317C62.4771 73.4796 62.4551 75.3275 62.4551 77.2073V77.2048ZM57.3983 72.1635C57.3983 71.2224 57.3959 70.3426 57.3983 69.4603C57.4008 68.828 57.1851 68.029 57.4866 67.6124C57.8077 67.1712 58.6313 67.1002 59.2293 66.8551C64.2175 64.8087 67.0878 61.0933 67.4628 55.7309C68.0437 47.4227 60.477 40.8938 52.3195 42.6191C47.4687 43.6436 44.189 46.6482 42.7747 51.393C41.3481 56.1721 42.5663 60.4217 46.0274 64.0048C47.6353 65.6689 49.6527 66.6517 51.8342 67.3207C52.2264 67.4408 52.3661 67.6148 52.3489 68.0266C52.3171 68.8059 52.3391 69.5853 52.3391 70.3646C52.3391 70.9651 52.3391 71.5655 52.3391 72.166H57.3983V72.1635Z" fill="white"/>
<path d="M40.4118 37.1514C39.3063 38.2591 38.1469 39.4184 37.0365 40.531C34.7005 38.193 32.3425 35.8328 30.0115 33.5021C31.1022 32.4238 32.2788 31.2596 33.4039 30.1445C35.6908 32.4311 38.0464 34.7888 40.4093 37.1514H40.4118Z" fill="white"/>
<path d="M72.7818 40.5602C71.6053 39.3912 70.4311 38.2246 69.2668 37.0679C71.593 34.747 73.9461 32.3966 76.287 30.0635C77.4317 31.2276 78.6009 32.4187 79.7554 33.5975C77.4684 35.8817 75.1178 38.2295 72.7818 40.5602Z" fill="white"/>
<path d="M52.3832 22.6401H57.364V32.6762H52.3832V22.6401Z" fill="white"/>
<path d="M22.5281 57.4634V52.4834H32.5631V57.4634H22.5281Z" fill="white"/>
</svg>
