<svg width="110" height="110" viewBox="0 0 110 110" fill="none" xmlns="http://www.w3.org/2000/svg">
<circle cx="55.1168" cy="54.9958" r="54.4787" fill="#0000FF"/>
<g clip-path="url(#clip0_233_31)">
<path d="M26.5937 75.9322H17V65.9736H26.2534C26.2386 66.0266 26.2238 66.0748 26.209 66.1278C25.8242 67.5009 25.622 68.9463 25.622 70.435C25.622 71.9237 25.8292 73.3739 26.209 74.747C26.3224 75.1469 26.4507 75.5468 26.5937 75.9322Z" fill="white"/>
<path d="M93.0001 65.9736V75.9322H58.2654C58.8967 74.2122 59.2371 72.3621 59.2371 70.435C59.2371 68.8885 59.0151 67.3949 58.6057 65.9736H93.0001Z" fill="white"/>
<path d="M17.0049 42.9585L93 42.9585V32.9999L17.0049 32.9999V42.9585Z" fill="white"/>
<path d="M83.791 62.4419H93V32.9998H83.791V62.4419Z" fill="white"/>
<path d="M26.209 33V66.1278C25.8242 67.5009 25.622 68.9462 25.622 70.435C25.622 71.9237 25.8292 73.3739 26.209 74.747V75.9322H17V33H26.209Z" fill="white"/>
<path d="M42.432 82.995C49.5339 82.995 55.2911 77.3716 55.2911 70.4347C55.2911 63.4979 49.5339 57.8745 42.432 57.8745C35.3302 57.8745 29.573 63.4979 29.573 70.4347C29.573 77.3716 35.3302 82.995 42.432 82.995Z" fill="white"/>
</g>
<defs>
<clipPath id="clip0_233_31">
<rect width="76" height="50" fill="white" transform="translate(17 33)"/>
</clipPath>
</defs>
</svg>
