<svg width="22" height="18" viewBox="0 0 22 18" fill="none" xmlns="http://www.w3.org/2000/svg">
<path d="M0.587505 6.77994H0.0195312C0.0195312 6.93058 0.0793713 7.07504 0.185887 7.18156C0.292403 7.28807 0.436869 7.34791 0.587505 7.34791V6.77994ZM0.587505 11.3237V10.7558C0.436869 10.7558 0.292403 10.8156 0.185887 10.9221C0.0793713 11.0286 0.0195312 11.1731 0.0195312 11.3237H0.587505ZM21.0346 6.77994V7.34791C21.1852 7.34791 21.3297 7.28807 21.4362 7.18156C21.5427 7.07504 21.6025 6.93058 21.6025 6.77994H21.0346ZM21.0346 11.3237H21.6025C21.6025 11.1731 21.5427 11.0286 21.4362 10.9221C21.3297 10.8156 21.1852 10.7558 21.0346 10.7558V11.3237ZM2.8594 1.66817H8.53914V0.532227H2.8594V1.66817ZM8.53914 1.66817H18.7627V0.532227H8.53914V1.66817ZM18.7627 16.4355H8.53914V17.5714H18.7627V16.4355ZM8.53914 16.4355H2.8594V17.5714H8.53914V16.4355ZM7.97117 1.1002V17.0035H9.10711V1.1002H7.97117ZM1.79161 7.84773C2.1107 8.16722 2.28993 8.60029 2.28993 9.05184C2.28993 9.50338 2.1107 9.93645 1.79161 10.2559L2.59586 11.0602C2.85965 10.7965 3.0689 10.4834 3.21166 10.1388C3.35442 9.79418 3.4279 9.42484 3.4279 9.05184C3.4279 8.67884 3.35442 8.30949 3.21166 7.96489C3.0689 7.62029 2.85965 7.3072 2.59586 7.04348L1.79161 7.84773ZM19.8305 10.2559C19.5114 9.93645 19.3321 9.50338 19.3321 9.05184C19.3321 8.60029 19.5114 8.16722 19.8305 7.84773L19.0262 7.04348C18.7624 7.3072 18.5532 7.62029 18.4104 7.96489C18.2676 8.30949 18.1942 8.67884 18.1942 9.05184C18.1942 9.42484 18.2676 9.79418 18.4104 10.1388C18.5532 10.4834 18.7624 10.7965 19.0262 11.0602L19.8305 10.2559ZM0.587505 7.34791C1.02485 7.34791 1.45991 7.51376 1.79161 7.84773L2.59586 7.04348C2.3321 6.77979 2.01898 6.57064 1.67439 6.42797C1.32979 6.28529 0.960468 6.2119 0.587505 6.21197V7.34791ZM1.15548 6.77994V3.3721H0.0195312V6.77994H1.15548ZM1.15548 14.7316V11.3237H0.0195312V14.7316H1.15548ZM1.79161 10.2559C1.45991 10.5899 1.02485 10.7558 0.587505 10.7558V11.8917C1.31338 11.8917 2.04152 11.6145 2.59586 11.0602L1.79161 10.2559ZM19.8305 7.84773C20.1622 7.51376 20.5972 7.34791 21.0346 7.34791V6.21197C20.3087 6.21197 19.5806 6.48914 19.0262 7.04348L19.8305 7.84773ZM20.4666 3.3721V6.77994H21.6025V3.3721H20.4666ZM20.4666 11.3237V14.7316H21.6025V11.3237H20.4666ZM21.0346 10.7558C20.5972 10.7558 20.1622 10.5899 19.8305 10.2559L19.0262 11.0602C19.29 11.3239 19.6031 11.533 19.9477 11.6757C20.2923 11.8184 20.6616 11.8918 21.0346 11.8917V10.7558ZM2.8594 16.4355C2.40749 16.4355 1.97409 16.256 1.65455 15.9364C1.335 15.6169 1.15548 15.1835 1.15548 14.7316H0.0195312C0.0195312 15.4848 0.318731 16.2071 0.85131 16.7397C1.38389 17.2722 2.10622 17.5714 2.8594 17.5714V16.4355ZM18.7627 17.5714C19.5159 17.5714 20.2382 17.2722 20.7708 16.7397C21.3033 16.2071 21.6025 15.4848 21.6025 14.7316H20.4666C20.4666 15.1835 20.2871 15.6169 19.9675 15.9364C19.648 16.256 19.2146 16.4355 18.7627 16.4355V17.5714ZM18.7627 1.66817C19.2146 1.66817 19.648 1.84769 19.9675 2.16724C20.2871 2.48679 20.4666 2.92019 20.4666 3.3721H21.6025C21.6025 2.61892 21.3033 1.89658 20.7708 1.36401C20.2382 0.831426 19.5159 0.532227 18.7627 0.532227V1.66817ZM2.8594 0.532227C2.10622 0.532227 1.38389 0.831426 0.85131 1.36401C0.318731 1.89658 0.0195313 2.61892 0.0195312 3.3721H1.15548C1.15548 2.92019 1.335 2.48679 1.65455 2.16724C1.97409 1.84769 2.40749 1.66817 2.8594 1.66817V0.532227Z" fill="#BFBFBF"/>
</svg>
