<svg width="23" height="23" viewBox="0 0 23 23" fill="none" xmlns="http://www.w3.org/2000/svg">
<path fill-rule="evenodd" clip-rule="evenodd" d="M22.8329 9.72213C23.1372 12.2196 22.5761 14.746 21.2432 16.8798C19.9103 19.0137 17.8862 20.6262 15.5084 21.4484C13.1306 22.2706 10.5428 22.2529 8.17645 21.3981C5.81015 20.5433 3.80838 18.9031 2.50494 16.7511C2.36308 16.5172 2.31996 16.2365 2.38507 15.9708C2.45018 15.705 2.61819 15.4761 2.85213 15.3342C3.08606 15.1923 3.36677 15.1492 3.6325 15.2143C3.89823 15.2794 4.1272 15.4474 4.26906 15.6814C4.9712 16.8408 5.92784 17.8254 7.06662 18.5605C8.2054 19.2957 9.49648 19.7622 10.8422 19.9247C12.1878 20.0873 13.5528 19.9416 14.8339 19.4988C16.115 19.056 17.2786 18.3275 18.2366 17.3687C19.1946 16.4098 19.922 15.2455 20.3637 13.9641C20.8054 12.6826 20.9498 11.3174 20.786 9.97192C20.6223 8.62639 20.1546 7.33573 19.4184 6.19761C18.6823 5.05949 17.6969 4.10373 16.5368 3.40263C16.3027 3.26114 16.1344 3.03244 16.0689 2.76684C16.0034 2.50124 16.0461 2.2205 16.1876 1.98638C16.3291 1.75226 16.5578 1.58394 16.8234 1.51844C17.089 1.45295 17.3697 1.49564 17.6038 1.63713C19.0314 2.50007 20.2441 3.67639 21.15 5.07709C22.0559 6.4778 22.6314 8.06621 22.8329 9.72213ZM13.2891 1.42676C13.2891 1.79143 13.1442 2.14117 12.8863 2.39903C12.6285 2.65689 12.2787 2.80176 11.9141 2.80176C11.5494 2.80176 11.1997 2.65689 10.9418 2.39903C10.6839 2.14117 10.5391 1.79143 10.5391 1.42676C10.5391 1.06209 10.6839 0.712349 10.9418 0.454486C11.1997 0.196623 11.5494 0.0517578 11.9141 0.0517578C12.2787 0.0517578 12.6285 0.196623 12.8863 0.454486C13.1442 0.712349 13.2891 1.06209 13.2891 1.42676ZM4.76956 6.92676C4.86127 6.77032 4.92113 6.59729 4.9457 6.41763C4.97026 6.23797 4.95905 6.05522 4.9127 5.87991C4.86635 5.7046 4.78578 5.54018 4.67563 5.39614C4.56548 5.25209 4.42793 5.13125 4.27089 5.04058C4.11385 4.94991 3.94043 4.8912 3.7606 4.86783C3.58078 4.84446 3.39811 4.85688 3.22311 4.90439C3.04811 4.95191 2.88424 5.03356 2.74092 5.14467C2.59761 5.25577 2.47769 5.39412 2.38806 5.55176C2.2086 5.8674 2.16127 6.24121 2.25641 6.59162C2.35154 6.94203 2.58141 7.24058 2.89586 7.42213C3.2103 7.60369 3.58379 7.65349 3.93483 7.56068C4.28586 7.46788 4.58593 7.23999 4.76956 6.92676ZM2.28906 9.67676C2.65374 9.67676 3.00347 9.82162 3.26133 10.0795C3.5192 10.3373 3.66406 10.6871 3.66406 11.0518C3.66406 11.4164 3.5192 11.7662 3.26133 12.024C3.00347 12.2819 2.65374 12.4268 2.28906 12.4268C1.92439 12.4268 1.57465 12.2819 1.31679 12.024C1.05893 11.7662 0.914063 11.4164 0.914062 11.0518C0.914063 10.6871 1.05893 10.3373 1.31679 10.0795C1.57465 9.82162 1.92439 9.67676 2.28906 9.67676ZM7.78906 3.90726C7.9467 3.81763 8.08505 3.69771 8.19615 3.5544C8.30726 3.41108 8.38891 3.24721 8.43643 3.07221C8.48394 2.89721 8.49636 2.71454 8.47299 2.53472C8.44962 2.3549 8.39091 2.18147 8.30024 2.02443C8.20957 1.86739 8.08873 1.72984 7.94468 1.61969C7.80064 1.50954 7.63623 1.42897 7.46091 1.38262C7.2856 1.33627 7.10285 1.32506 6.92319 1.34962C6.74353 1.37419 6.5705 1.43405 6.41406 1.52576C6.10083 1.70939 5.87294 2.00946 5.78014 2.36049C5.68733 2.71153 5.73713 3.08502 5.91868 3.39946C6.10024 3.71391 6.39879 3.94378 6.7492 4.03891C7.09961 4.13405 7.47342 4.08672 7.78906 3.90726Z" fill="#D0D0D0"/>
</svg>
