<svg width="110" height="110" viewBox="0 0 110 110" fill="none" xmlns="http://www.w3.org/2000/svg">
<circle cx="55" cy="54.676" r="54.4787" fill="#0000FF"/>
<path d="M70.888 53.0346L62.827 61.0343H66.8003C66.247 64.0735 65.1174 66.4877 63.3512 68.4048C60.572 71.4167 57.1333 72.9457 53.133 72.9457C52.3799 72.9457 51.5957 72.8912 50.801 72.7842C43.8363 71.8509 39.0766 66.5548 38.6772 59.2892C38.4567 55.3502 39.7943 51.8244 42.6505 48.8125C44.3813 46.9919 46.4657 45.7187 48.8435 45.0245L49.5716 44.8126L47.4955 37.4023L46.7591 37.6163C44.9534 38.1427 43.1789 38.9314 41.4835 39.957C33.41 44.8651 29.3576 54.7126 31.6251 63.9036C32.8712 68.9501 35.3738 72.9877 39.0662 75.9073C43.0707 79.0724 47.562 80.6749 52.4111 80.6749C53.7259 80.6749 55.0843 80.5553 56.4448 80.3162C65.2942 78.7578 71.1231 73.4953 73.7671 64.6734C74.0479 63.7316 74.2352 62.7563 74.4162 61.8125C74.4619 61.5734 74.5098 61.3301 74.5576 61.0847H78.999L70.8859 53.0346H70.888Z" fill="white"/>
<path d="M64.4038 33.7753L49.5432 54.5808L56.9691 59.9728L71.8297 39.1673L64.4038 33.7753Z" fill="white"/>
<path d="M73.0224 29.6209C72.2111 29.0126 71.2105 28.677 70.2015 28.677C68.8827 28.677 67.6366 29.2412 66.7858 30.227C66.3759 30.701 66.0514 31.2338 65.7664 31.7036C65.6478 31.8966 65.5334 32.0854 65.4169 32.2636L65.0113 32.8782L72.3879 38.2603L72.8393 37.6709C72.9683 37.501 73.1077 37.3311 73.2471 37.1591C73.5861 36.7417 73.9377 36.3075 74.2414 35.8167C75.4896 33.7927 74.9529 31.0702 73.0224 29.6209Z" fill="white"/>
<path d="M48.8248 55.6753L48.4732 56.659C48.4503 56.7177 48.4129 56.8163 48.3858 56.9296L47.8367 59.1151C47.4164 60.7868 46.9962 62.4584 46.5698 64.128C46.3097 65.1432 46.7362 65.7053 47.1377 65.9989C47.4144 66.2024 47.7202 66.3052 48.0405 66.3052C48.3796 66.3052 48.7208 66.1898 49.0848 65.9528C49.5716 65.6361 50.0584 65.3215 50.5452 65.0069C50.9279 64.7594 51.3107 64.5119 51.6914 64.2644C52.6483 63.6435 53.6073 63.0206 54.5434 62.4102L56.4219 61.1895L49.6486 56.2689L48.8269 55.6795L48.8248 55.6753Z" fill="white"/>
</svg>
