<svg width="110" height="110" viewBox="0 0 110 110" fill="none" xmlns="http://www.w3.org/2000/svg">
<circle cx="55" cy="54.676" r="54.4787" fill="#0000FF"/>
<path d="M78.743 45.2477L64.4461 30.9508C63.3062 29.8129 61.7911 29.1848 60.176 29.1848C58.563 29.1848 57.0458 29.8129 55.908 30.9508L44.3905 42.4682C42.0373 44.8215 42.0373 48.6531 44.3905 51.0064L46.0463 52.6622L29.49 69.2206L29.9386 79.7225L40.4365 80.1671L45.6793 74.9243L45.5121 72.8198L49.2785 72.9136V68.7883H51.8887L54.9536 65.7234L51.3136 62.0834L49.7557 63.6413H44.1295V67.6361L39.9308 67.5321L40.361 72.9646L38.5135 74.8121L34.8776 74.7102L34.847 71.1456L49.6884 56.3043L58.6874 65.3033C59.8253 66.4432 61.3424 67.0692 62.9575 67.0692C64.5726 67.0692 66.0877 66.4412 67.2276 65.3033L78.7451 53.7858C81.0983 51.4326 81.0983 47.6009 78.7451 45.2477H78.743ZM75.362 49.5178C75.362 49.7564 75.2702 49.9786 75.103 50.1458L63.5856 61.6633C63.4184 61.8305 63.1941 61.9223 62.9575 61.9223C62.721 61.9223 62.4966 61.8305 62.3294 61.6633L48.0325 47.3664C47.6859 47.0197 47.6859 46.4549 48.0325 46.1082L59.55 34.5908C59.7172 34.4235 59.9415 34.3318 60.1781 34.3318C60.4146 34.3318 60.6389 34.4235 60.8061 34.5908L75.103 48.8877C75.2702 49.0549 75.362 49.2792 75.362 49.5157V49.5178Z" fill="white"/>
<path d="M61.5382 47.9638C62.1948 48.6205 63.0697 48.9834 63.9995 48.9834C64.9294 48.9834 65.8042 48.6205 66.4609 47.9638C67.819 46.6057 67.819 44.3972 66.4609 43.0391C65.8042 42.3805 64.9294 42.0195 63.9995 42.0195C63.0697 42.0195 62.1948 42.3825 61.5382 43.0391C60.8816 43.6958 60.5186 44.5706 60.5186 45.5005C60.5186 46.4303 60.8816 47.3052 61.5382 47.9618V47.9638Z" fill="white"/>
</svg>
