<svg width="110" height="110" viewBox="0 0 110 110" fill="none" xmlns="http://www.w3.org/2000/svg">
<circle cx="54.6144" cy="55.2944" r="54.4787" fill="#0000FF"/>
<path d="M26.5977 82.3557V82.8557H27.0977H60.7646H61.2646V82.3557V73.1545V72.6545H60.7646H27.0977H26.5977V73.1545V82.3557Z" fill="white" stroke="white"/>
<path d="M26.6045 37.4436V37.9436H27.1045H82.0464H82.5464V37.4436V28.2332V27.7332H82.0464H27.1045H26.6045V28.2332V37.4436Z" fill="white" stroke="white"/>
<path d="M26.5977 52.4132V52.9132H27.0977H82.1253H82.6253V52.4132V43.209V42.709H82.1253H27.0977H26.5977V43.209V52.4132Z" fill="white" stroke="white"/>
<path d="M82.6311 58.1787V57.6787H82.1311H82.1246H27.1826H26.6826V58.1787V67.3892V67.8892H27.1826H82.1311H82.6311V67.3892V58.1787Z" fill="white" stroke="white"/>
</svg>
