<svg width="110" height="110" viewBox="0 0 110 110" fill="none" xmlns="http://www.w3.org/2000/svg">
<circle cx="54.6144" cy="54.7477" r="54.4787" fill="#0000FF"/>
<g clip-path="url(#clip0_254_5)">
<path d="M37.5716 70.6328C37.5265 70.6458 37.4814 70.6555 37.4363 70.6684C37.3815 70.6555 37.3364 70.6652 37.3106 70.7201L37.317 70.7104C37.2172 70.7363 37.1173 70.7524 37.0206 70.7848C35.3676 71.3602 33.6759 71.8063 31.9681 72.1942C30.8531 72.4463 29.7189 72.595 28.5943 72.7954C27.6051 72.97 26.6094 73.0605 25.6202 73.2027C25.2045 73.2609 25.1143 73.1122 25.1143 72.7114C25.1271 68.0339 25.1239 63.3596 25.1239 58.682C25.1239 58.5947 25.1304 58.5042 25.1239 58.417C25.1143 58.2392 25.1755 58.1745 25.3688 58.1487C26.1132 58.0484 26.8543 57.9418 27.5922 57.7963C28.517 57.6153 29.4515 57.4569 30.3376 57.1142L30.3182 57.1239C30.4214 57.1239 30.5212 57.1142 30.6018 57.0366L30.5954 57.0431C30.6663 57.0302 30.7404 57.0269 30.8113 57.0043C31.8327 56.6811 32.8252 56.2835 33.8176 55.8729C34.7489 55.4882 35.5738 54.9452 36.4019 54.3956C36.5147 54.3698 36.6081 54.3148 36.6661 54.2114L36.6533 54.2178C36.6919 54.192 36.7306 54.1629 36.7725 54.137L36.7596 54.1467C36.8144 54.1079 36.8691 54.0659 36.9271 54.0271L36.9239 54.0304C37.5072 53.8105 37.9003 53.3321 38.3546 52.9442C38.6188 52.7212 38.9056 52.4884 39.1022 52.1199C38.9572 52.1102 38.8605 52.0973 38.7638 52.0973C36.5856 52.0973 34.4073 52.107 32.2291 52.107C30.0057 52.107 27.7855 52.1037 25.5622 52.1102C25.2625 52.1102 25.1175 52.0585 25.1207 51.7061C25.1304 46.5761 25.1304 41.446 25.1336 36.3159C25.6008 36.3062 26.0681 36.2835 26.5353 36.2835C31.1399 36.2835 35.7478 36.2835 40.3524 36.2835C40.9131 36.2835 40.9131 36.2868 40.9131 36.8686C40.9131 40.8867 40.9131 44.9048 40.9196 48.9229C40.9196 49.0651 40.8229 49.2849 41.0388 49.3367C41.2386 49.3852 41.3417 49.2009 41.4158 49.0393C41.5576 48.7354 41.6961 48.4283 41.8347 48.1245L41.8282 48.1309C41.8637 48.0857 41.9056 48.0436 41.9281 47.9951C42.9141 46.0104 43.9066 44.0256 44.8862 42.0343C45.4018 40.9902 45.898 39.9331 46.4007 38.8825L46.3942 38.889C46.4683 38.847 46.4877 38.7759 46.4909 38.695L46.4844 38.7112C46.6198 38.556 46.7036 38.375 46.7519 38.1778L46.7487 38.1843C47.0258 37.6542 47.3093 37.1272 47.5736 36.5874C47.6702 36.3902 47.7895 36.3126 48.0118 36.3126C48.566 36.3159 49.1203 36.2835 49.6777 36.2835C52.7196 36.2803 55.7646 36.2835 58.8064 36.2803C58.9643 36.2803 59.1255 36.2609 59.2833 36.2512C59.3929 36.2577 59.5025 36.2609 59.612 36.2674C59.6926 36.4161 59.6668 36.5809 59.6668 36.7426C59.6668 39.8652 59.6668 42.9911 59.6668 46.1138C59.6668 47.0383 59.6668 47.9628 59.6668 48.8873C59.6668 49.0134 59.6249 49.1718 59.7957 49.2235C59.9665 49.2752 60.0696 49.1783 60.1437 49.0328C60.5948 48.1406 61.0459 47.2484 61.4971 46.3562C61.5261 46.3045 61.5551 46.2496 61.5808 46.1978C61.7742 45.9263 61.9256 45.6321 62.0255 45.3121L62.0191 45.3186C62.1061 45.2636 62.1383 45.1796 62.1512 45.0826C62.1737 45.0438 62.1931 45.005 62.2156 44.9662L62.2092 44.9759C62.4992 44.5622 62.7022 44.0999 62.9052 43.6409L62.8987 43.6473C63.4046 42.9394 63.7494 42.1313 64.1425 41.3651C64.6452 40.3857 65.1898 39.4191 65.6409 38.4106C65.8761 37.8837 66.15 37.3729 66.4046 36.8525V36.8557C66.6173 36.3191 67.0362 36.2738 67.5549 36.2771C72.5978 36.2932 77.6407 36.2868 82.6868 36.2868C83.1476 36.2868 83.6051 36.2868 84.1143 36.2868C83.85 37.166 83.3538 37.8352 83.067 38.5981L83.0735 38.5916C82.6578 38.9698 82.5257 39.4935 82.3581 40.001L82.3678 39.9913C82.3098 40.0139 82.2872 40.0592 82.2937 40.1206L82.284 40.1497C82.052 40.4568 81.8877 40.7962 81.7588 41.155L81.762 41.1518C81.6847 41.1906 81.6653 41.2617 81.6653 41.3425L81.6524 41.3651C81.2335 42.1895 80.7534 42.9782 80.3571 43.8187C79.5741 45.477 78.6944 47.09 77.8663 48.7257C77.3958 49.6567 76.8641 50.5618 76.4742 51.5348L76.4807 51.5283C76.2487 51.9001 75.9909 52.2557 75.8749 52.6888H75.8781C75.5301 53.1996 75.2336 53.7524 74.9565 54.2922C74.5795 55.026 74.2057 55.7662 73.8738 56.5259C73.4259 57.5506 72.833 58.501 72.3465 59.5096C71.1413 61.9954 69.8685 64.4489 68.5925 66.8992C68.0093 68.0209 67.3745 69.1135 66.9073 70.2902L66.9137 70.2837C66.4014 71.0854 66.0437 71.9679 65.5861 72.7987C65.4443 73.0573 65.2961 73.248 64.9352 73.248C59.3349 73.2383 53.7346 73.2383 48.1375 73.248C47.7701 73.248 47.6799 73.1801 47.87 72.8213C48.4629 71.7093 49.0333 70.5843 49.6036 69.4594C49.7099 69.2461 49.9516 69.0941 49.8936 68.8064C50.4382 67.9336 50.8796 67.0124 51.3114 66.0814H51.3082C52.0042 64.8498 52.6551 63.5923 53.2577 62.3057C53.364 62.212 53.4156 62.0892 53.4413 61.9502L53.4285 61.9566C53.4542 61.9178 53.4768 61.879 53.5026 61.8435C53.7185 61.4394 54.031 61.0806 54.1212 60.6119V60.6151C54.3146 60.4179 54.4241 60.1755 54.4983 59.9136C54.524 59.8587 54.553 59.807 54.5788 59.752C54.6529 59.71 54.6626 59.6389 54.6658 59.5645C54.6658 59.5645 54.6594 59.5742 54.6594 59.571C54.7367 59.5354 54.7657 59.4675 54.7657 59.3867L54.7593 59.3997C54.843 59.3124 54.9236 59.2219 54.9172 59.0893V59.0764C55.1685 58.8954 55.1814 58.5818 55.3296 58.3426C55.3908 58.2392 55.5648 58.0905 55.3715 57.9773C55.2362 57.8965 55.0879 58 54.9945 58.1163C54.9268 58.2036 54.8849 58.3135 54.8302 58.4105C54.7045 58.4687 54.6626 58.5947 54.5981 58.7014C54.5981 58.7014 54.5981 58.7079 54.5981 58.7111C54.5691 58.7467 54.5434 58.779 54.5176 58.8146V58.8081C54.321 58.9988 54.1277 59.1863 54.002 59.4384L54.0085 59.432C53.9118 59.4611 53.8538 59.5257 53.8377 59.6259L53.8441 59.6162C53.799 59.6647 53.7539 59.7132 53.712 59.7617H53.7088C53.2319 60.1334 52.8807 60.6216 52.4972 61.0806V61.0838C52.4682 61.1194 52.436 61.1582 52.407 61.1937L52.4134 61.1808C51.537 62.0051 50.6637 62.8326 49.7873 63.657C49.5231 63.825 49.2749 64.0125 49.0655 64.2453L49.0623 64.2485C49.0333 64.2711 49.0043 64.297 48.9753 64.3196L48.9559 64.3358C48.8109 64.4166 48.6659 64.4974 48.5821 64.6494H48.5886C48.5499 64.6784 48.5145 64.7043 48.4758 64.7334L48.4855 64.7205C47.5768 65.367 46.6649 66.0135 45.7562 66.6568L45.7594 66.6535C45.5919 66.7085 45.4372 66.7893 45.3212 66.9283L45.3276 66.9251C44.8056 67.1837 44.3094 67.4875 43.8196 67.8108C43.7713 67.8399 43.7197 67.869 43.6714 67.8949C43.5522 67.9142 43.4555 67.9692 43.3782 68.0597L43.3814 68.0565C43.188 68.1147 43.0012 68.1825 42.8561 68.3312L42.8626 68.3248C41.1516 69.204 39.3439 69.8538 37.5845 70.6231L37.5716 70.6328Z" fill="white"/>
</g>
<defs>
<clipPath id="clip0_254_5">
<rect width="59" height="37" fill="white" transform="translate(25.1143 36.2478)"/>
</clipPath>
</defs>
</svg>
