<svg width="109" height="110" viewBox="0 0 109 110" fill="none" xmlns="http://www.w3.org/2000/svg">
<ellipse cx="54.7024" cy="55.2944" rx="54.2976" ry="54.4787" fill="#0000FF"/>
<g clip-path="url(#clip0_254_9)">
<path d="M24.5369 22.7944H69.1082C69.9644 23.1968 70.2048 23.8961 70.2048 24.8061C70.1913 45.1389 70.194 65.4716 70.194 85.8044C70.194 85.9097 70.194 86.015 70.194 86.123C70.1535 87.2382 69.5971 87.7863 68.4816 87.7917C67.1905 87.7998 65.8994 87.7917 64.6084 87.7917C63.7684 87.7917 62.9284 87.7917 62.01 87.7917V77.8468H31.6053V87.7917C29.4607 87.7917 27.3864 87.7917 25.3147 87.7917C23.9183 87.7917 23.3943 87.2733 23.3943 85.8854C23.3943 65.4905 23.397 45.093 23.3835 24.6981C23.3835 23.78 23.6888 23.1482 24.5369 22.7944ZM33.2988 69.5949V32.9527H29.5309C29.5309 33.2551 29.5309 33.5252 29.5309 33.7952C29.5309 45.4278 29.5309 57.0604 29.5309 68.693C29.5309 68.8631 29.485 69.0494 29.5444 69.1952C29.6066 69.3491 29.7686 69.5733 29.8902 69.576C31.0057 69.6057 32.1239 69.5922 33.2988 69.5922V69.5949ZM64.0574 69.5679V32.9554H60.3435V69.5706H64.0574V69.5679ZM60.0897 29.0455H33.5824V32.7772H60.0897V29.0455ZM33.5554 73.4994H60.0789V69.7893H33.5554V73.4994Z" fill="white"/>
<path d="M82.3403 82.9394C82.1998 82.6343 82.1134 82.475 82.0513 82.3076C80.8413 79.0187 79.6312 75.7298 78.4293 72.4355C78.3375 72.1844 78.2807 71.9036 78.2807 71.6335C78.2726 60.063 78.2753 48.4925 78.2753 36.922C78.2753 36.7951 78.2888 36.6709 78.2996 36.4873H86.3782V37.1894C86.3782 48.6546 86.3782 60.1197 86.3701 71.5822C86.3701 71.9711 86.2918 72.3815 86.1595 72.7487C85.0115 75.881 83.8447 79.0079 82.6806 82.132C82.5969 82.3589 82.4915 82.5776 82.3403 82.9367V82.9394Z" fill="white"/>
<path d="M35.4866 81.6567H44.8778V87.7701H35.4866V81.6567Z" fill="white"/>
<path d="M58.1639 87.762H48.7781V81.6541H58.1639V87.762Z" fill="white"/>
<path d="M86.362 32.5827H78.2104C78.2861 31.4891 78.2321 30.4171 78.4616 29.4072C78.8992 27.4819 80.7412 26.3019 82.7859 26.472C84.6252 26.626 86.1999 28.2002 86.3512 30.1066C86.416 30.9193 86.362 31.7429 86.362 32.5827Z" fill="white"/>
</g>
<defs>
<clipPath id="clip0_254_9">
<rect width="62.7906" height="65" fill="white" transform="translate(23.3071 22.7944)"/>
</clipPath>
</defs>
</svg>
