<svg width="110" height="110" viewBox="0 0 110 110" fill="none" xmlns="http://www.w3.org/2000/svg">
<circle cx="54.8835" cy="54.7477" r="54.4787" fill="#0000FF"/>
<path d="M83.3783 44.4584L83.2429 44.0927L82.9671 44.3684L78.1517 49.1838L78.053 49.2825L78.0852 49.4183C78.5021 51.1751 78.7105 52.9615 78.7105 54.7478C78.7105 61.0671 76.2002 67.1276 71.7317 71.596C67.2633 76.0644 61.2028 78.5748 54.8835 78.5748C48.5642 78.5748 42.5038 76.0644 38.0353 71.596C33.5669 67.1276 31.0566 61.0671 31.0566 54.7478C31.0566 48.4285 33.5669 42.368 38.0353 37.8996C42.5038 33.4312 48.5642 30.9208 54.8835 30.9208C56.6698 30.9208 58.4562 31.1292 60.213 31.5461L60.3488 31.5783L60.4475 31.4796L65.293 26.6342L65.5722 26.355L65.2005 26.222C61.8944 25.0391 58.4049 24.4016 54.8835 24.4016C50.8984 24.4016 46.9523 25.1865 43.2706 26.7116C39.5888 28.2366 36.2435 30.4719 33.4255 33.2898C27.7345 38.9808 24.5374 46.6995 24.5374 54.7478C24.5374 62.7961 27.7345 70.5148 33.4255 76.2058C36.2435 79.0237 39.5888 81.259 43.2706 82.784C46.9523 84.3091 50.8984 85.094 54.8835 85.094C62.9319 85.094 70.6505 81.8968 76.3415 76.2058C82.0326 70.5148 85.2297 62.7961 85.2297 54.7478C85.2297 51.2266 84.5923 47.7361 83.3783 44.4584ZM76.2009 24.6516V24.0481L75.7741 24.4748L63.7356 36.5133L63.6624 36.5865V36.6901V41.101L56.1667 48.5967C55.7279 48.4785 55.2956 48.4785 54.8991 48.4786H54.8835C53.2208 48.4786 51.6262 49.1391 50.4505 50.3148C49.2748 51.4905 48.6143 53.0851 48.6143 54.7478C48.6143 56.4105 49.2748 58.0051 50.4505 59.1808C51.6262 60.3565 53.2208 61.017 54.8835 61.017C56.5463 61.017 58.1409 60.3565 59.3166 59.1808C60.4923 58.0051 61.1528 56.4105 61.1528 54.7478V54.7322C61.1528 54.3358 61.1528 53.9035 61.0347 53.4647L68.5304 45.9689H72.9413H73.0448L73.118 45.8957L85.1565 33.8572L85.5833 33.4305H84.9797H76.2009V24.6516ZM55.1335 36.6901V36.4401H54.8835C50.028 36.4401 45.3714 38.3689 41.938 41.8023C38.5047 45.2357 36.5758 49.8923 36.5758 54.7478C36.5758 59.6033 38.5047 64.26 41.938 67.6933C45.3714 71.1267 50.028 73.0555 54.8835 73.0555C59.7391 73.0555 64.3957 71.1267 67.8291 67.6933C71.2624 64.26 73.1913 59.6033 73.1913 54.7478V54.4978H72.9413H66.922H66.672V54.7478C66.672 57.8743 65.43 60.8727 63.2193 63.0835C61.0085 65.2943 58.01 66.5363 54.8835 66.5363C51.757 66.5363 48.7586 65.2943 46.5478 63.0835C44.3371 60.8727 43.0951 57.8743 43.0951 54.7478C43.0951 51.6213 44.3371 48.6229 46.5478 46.4121C48.7586 44.2013 51.757 42.9593 54.8835 42.9593H55.1335V42.7093V36.6901Z" fill="white" stroke="white" stroke-width="0.5"/>
</svg>
