<?xml version="1.0" encoding="utf-8"?>
<!-- Generator: Adobe Illustrator 27.3.1, SVG Export Plug-In . SVG Version: 6.00 Build 0)  -->
<svg version="1.1" id="Layer_1" xmlns="http://www.w3.org/2000/svg" xmlns:xlink="http://www.w3.org/1999/xlink" x="0px" y="0px"
	 viewBox="0 0 110 110" style="enable-background:new 0 0 110 110;" xml:space="preserve">
<style type="text/css">
	.st0{fill:#FFFFFF;}
	.st1{fill:#0000FF;}
</style>
<circle class="st0" cx="54.9" cy="55" r="54.5"/>
<path class="st1" d="M55.8,25.2c2,0,7,0.1,12.3,0.3l1.9,0.1c5.3,0.2,10.6,0.7,13.3,1.4c3.5,1,6.3,3.9,7.2,7.5
	c1.5,5.8,1.7,17.1,1.7,19.9l0,0.6v0.6c0,2.7-0.2,14.1-1.7,19.9c-0.9,3.7-3.7,6.6-7.2,7.5c-2.6,0.7-8,1.2-13.3,1.4L68,84.5
	c-5.3,0.2-10.3,0.3-12.3,0.3l-0.9,0H54c-4.2,0-21.8-0.2-27.4-1.8c-3.5-1-6.3-3.9-7.2-7.5c-1.5-5.8-1.7-17.1-1.7-19.9v-1.2
	c0-2.7,0.2-14.1,1.7-19.9c0.9-3.7,3.7-6.6,7.2-7.5c5.6-1.6,23.2-1.8,27.4-1.8H55.8z M47.4,41.9V68l22.3-13L47.4,41.9z"/>
</svg>
